<svg xmlns="http://www.w3.org/2000/svg" viewBox="0 0 900 600" preserveAspectRatio="xMidYMid slice" style="width: 100%; height: 100%; transform: translate3d(0px, 0px, 0px);"><defs><clipPath id="__lottie_element_223"><rect width="900" height="600" x="0" y="0"/></clipPath></defs><g clip-path="url(#__lottie_element_223)"><g transform="matrix(1,0,0,1,131.95999145507812,-20.81597900390625)" opacity="1" style="display: block;"><g id="Layer_2" opacity="1" transform="matrix(1,0,0,1,-146.96002197265625,-130.90399169921875)"><g opacity="1" transform="matrix(1,0,0,1,0,0)"><path fill="rgb(255,255,255)" fill-opacity="1" d=" M853,673.8800048828125 C853,673.8800048828125 853,720.75 853,720.75 C853,736.469970703125 842.2999877929688,749.22998046875 829.0999755859375,749.22998046875 C829.0999755859375,749.22998046875 192.10000610351562,749.22998046875 192.10000610351562,749.22998046875 C167.17999267578125,749.22998046875 146.9600067138672,725.1300048828125 146.9600067138672,695.3900146484375 C146.9600067138672,695.3900146484375 146.9600067138672,621.3900146484375 146.9600067138672,621.3900146484375 C146.9600067138672,604.760009765625 158.27000427246094,591.27001953125 172.22000122070312,591.27001953125 C172.22000122070312,591.27001953125 783.6599731445312,591.27001953125 783.6599731445312,591.27001953125 C821.9400024414062,591.22998046875 853,628.239990234375 853,673.8800048828125 C853,673.8800048828125 853,673.8800048828125 853,673.8800048828125z"/><path stroke-linecap="butt" stroke-linejoin="round" fill-opacity="0" stroke="rgb(28,31,36)" stroke-opacity="1" stroke-width="3" d=" M853,673.8800048828125 C853,673.8800048828125 853,720.75 853,720.75 C853,736.469970703125 842.2999877929688,749.22998046875 829.0999755859375,749.22998046875 C829.0999755859375,749.22998046875 192.10000610351562,749.22998046875 192.10000610351562,749.22998046875 C167.17999267578125,749.22998046875 146.9600067138672,725.1300048828125 146.9600067138672,695.3900146484375 C146.9600067138672,695.3900146484375 146.9600067138672,621.3900146484375 146.9600067138672,621.3900146484375 C146.9600067138672,604.760009765625 158.27000427246094,591.27001953125 172.22000122070312,591.27001953125 C172.22000122070312,591.27001953125 783.6599731445312,591.27001953125 783.6599731445312,591.27001953125 C821.9400024414062,591.22998046875 853,628.239990234375 853,673.8800048828125 C853,673.8800048828125 853,673.8800048828125 853,673.8800048828125z"/></g><g opacity="1" transform="matrix(1,0,0,1,0,0)"><path fill="rgb(72,103,255)" fill-opacity="1" d=" M829.0800170898438,749.219970703125 C829.0800170898438,749.219970703125 290.1499938964844,749.219970703125 290.1499938964844,749.219970703125 C290.1499938964844,749.219970703125 288.2900085449219,746.3400268554688 288.2900085449219,746.3400268554688 C288.2900085449219,746.3400268554688 390.2900085449219,684.780029296875 530.6900024414062,684.780029296875 C766.0599975585938,684.780029296875 829.0800170898438,749.219970703125 829.0800170898438,749.219970703125 C829.0800170898438,749.219970703125 829.0800170898438,749.219970703125 829.0800170898438,749.219970703125z"/><path stroke-linecap="round" stroke-linejoin="round" fill-opacity="0" stroke="rgb(28,31,36)" stroke-opacity="1" stroke-width="3" d=" M829.0800170898438,749.219970703125 C829.0800170898438,749.219970703125 290.1499938964844,749.219970703125 290.1499938964844,749.219970703125 C290.1499938964844,749.219970703125 288.2900085449219,746.3400268554688 288.2900085449219,746.3400268554688 C288.2900085449219,746.3400268554688 390.2900085449219,684.780029296875 530.6900024414062,684.780029296875 C766.0599975585938,684.780029296875 829.0800170898438,749.219970703125 829.0800170898438,749.219970703125 C829.0800170898438,749.219970703125 829.0800170898438,749.219970703125 829.0800170898438,749.219970703125z"/></g><g opacity="1" transform="matrix(1,0,0,1,0,0)"><path fill="rgb(255,255,255)" fill-opacity="1" d=" M548.1199951171875,749.22998046875 C548.1199951171875,749.22998046875 557.1199951171875,680.469970703125 530.6900024414062,656.22998046875 C530.6900024414062,656.22998046875 572.6099853515625,665.4000244140625 581.219970703125,749.22998046875 C581.219970703125,749.22998046875 548.1199951171875,749.22998046875 548.1199951171875,749.22998046875z"/><path stroke-linecap="round" stroke-linejoin="round" fill-opacity="0" stroke="rgb(28,31,36)" stroke-opacity="1" stroke-width="3" d=" M548.1199951171875,749.22998046875 C548.1199951171875,749.22998046875 557.1199951171875,680.469970703125 530.6900024414062,656.22998046875 C530.6900024414062,656.22998046875 572.6099853515625,665.4000244140625 581.219970703125,749.22998046875 C581.219970703125,749.22998046875 548.1199951171875,749.22998046875 548.1199951171875,749.22998046875z"/></g><g opacity="1" transform="matrix(1,0,0,1,0,0)"><path fill="rgb(255,255,255)" fill-opacity="1" d=" M584,749.22998046875 C584,749.22998046875 584.5599975585938,703.1199951171875 616.5599975585938,702.7100219726562 C616.5599975585938,702.7100219726562 594.27001953125,721.7899780273438 610.1599731445312,749.22998046875 C610.1599731445312,749.22998046875 584,749.22998046875 584,749.22998046875z"/><path stroke-linecap="butt" stroke-linejoin="round" fill-opacity="0" stroke="rgb(28,31,36)" stroke-opacity="1" stroke-width="3" d=" M584,749.22998046875 C584,749.22998046875 584.5599975585938,703.1199951171875 616.5599975585938,702.7100219726562 C616.5599975585938,702.7100219726562 594.27001953125,721.7899780273438 610.1599731445312,749.22998046875 C610.1599731445312,749.22998046875 584,749.22998046875 584,749.22998046875z"/></g><g opacity="1" transform="matrix(1,0,0,1,0,0)"><path fill="rgb(255,255,255)" fill-opacity="1" d=" M603,656.2000122070312 C603,656.2000122070312 603,664.5599975585938 603,664.5599975585938 C600.8699951171875,666.7559814453125 599.1259765625,669.2949829101562 597.8400268554688,672.0700073242188 C585.780029296875,697.0700073242188 595.75,749.219970703125 595.75,749.219970703125 C595.75,749.219970703125 564.8499755859375,749.219970703125 564.8499755859375,749.219970703125 C564.8499755859375,749.219970703125 567.8499755859375,706.52001953125 577.9500122070312,678.6199951171875 C579.5380249023438,674.0120239257812 581.5819702148438,669.572998046875 584.0499877929688,665.3699951171875 C584.0499877929688,665.3699951171875 603,656.2000122070312 603,656.2000122070312z"/><path stroke-linecap="butt" stroke-linejoin="round" fill-opacity="0" stroke="rgb(28,31,36)" stroke-opacity="1" stroke-width="3" d=" M603,656.2000122070312 C603,656.2000122070312 603,664.5599975585938 603,664.5599975585938 C600.8699951171875,666.7559814453125 599.1259765625,669.2949829101562 597.8400268554688,672.0700073242188 C585.780029296875,697.0700073242188 595.75,749.219970703125 595.75,749.219970703125 C595.75,749.219970703125 564.8499755859375,749.219970703125 564.8499755859375,749.219970703125 C564.8499755859375,749.219970703125 567.8499755859375,706.52001953125 577.9500122070312,678.6199951171875 C579.5380249023438,674.0120239257812 581.5819702148438,669.572998046875 584.0499877929688,665.3699951171875 C584.0499877929688,665.3699951171875 603,656.2000122070312 603,656.2000122070312z"/></g><g opacity="1" transform="matrix(1,0,0,1,0,0)"><path fill="rgb(29,31,37)" fill-opacity="1" d=" M578,679.1199951171875 C577.8790283203125,679.1190185546875 577.7630004882812,679.0770263671875 577.6699829101562,679 C577.510009765625,678.8660278320312 577.4500122070312,678.64697265625 577.52001953125,678.4500122070312 C579.1209716796875,673.8079833984375 581.1849975585938,669.3389892578125 583.6799926757812,665.1099853515625 C583.72900390625,665.0269775390625 583.802001953125,664.9609985351562 583.8900146484375,664.9199829101562 C583.8900146484375,664.9199829101562 602.8900146484375,655.75 602.8900146484375,655.75 C603.0390014648438,655.6640014648438 603.2210083007812,655.6640014648438 603.3699951171875,655.75 C603.5130004882812,655.8419799804688 603.5999755859375,656 603.5999755859375,656.1699829101562 C603.5999755859375,656.1699829101562 603.5999755859375,664.530029296875 603.5999755859375,664.530029296875 C603.6010131835938,664.6640014648438 603.551025390625,664.7919921875 603.4600219726562,664.8900146484375 C601.3660278320312,667.0399780273438 599.6539916992188,669.5330200195312 598.4000244140625,672.260009765625 C598.3179931640625,672.416015625 598.1649780273438,672.52001953125 597.989990234375,672.5399780273438 C591.030029296875,673.2420043945312 584.3070068359375,675.4530029296875 578.2899780273438,679.02001953125 C578.208984375,679.0889892578125 578.1060180664062,679.1240234375 578,679.1199951171875 C578,679.1199951171875 578,679.1199951171875 578,679.1199951171875z"/></g><g opacity="1" transform="matrix(1,0,0,1,0,0)"><path fill="rgb(29,31,37)" fill-opacity="1" d=" M603,655.2000122070312 C602.8510131835938,655.2030029296875 602.7050170898438,655.2369995117188 602.5700073242188,655.2999877929688 C602.5700073242188,655.2999877929688 583.5700073242188,664.469970703125 583.5700073242188,664.469970703125 C583.39599609375,664.5540161132812 583.25,664.6859741210938 583.1500244140625,664.8499755859375 C580.6439819335938,669.1099853515625 578.5670166015625,673.6090087890625 576.9500122070312,678.280029296875 C576.8350219726562,678.5969848632812 576.8870239257812,678.9500122070312 577.0880126953125,679.219970703125 C577.2899780273438,679.489990234375 577.614013671875,679.6400146484375 577.9500122070312,679.6199951171875 C578.1209716796875,679.6170043945312 578.2899780273438,679.572998046875 578.4400024414062,679.489990234375 C584.4130249023438,675.947998046875 591.0900268554688,673.7570190429688 598,673.0700073242188 C598.35498046875,673.0399780273438 598.6680297851562,672.822998046875 598.8200073242188,672.5 C600.0640258789062,669.823974609375 601.7550048828125,667.3790283203125 603.8200073242188,665.27001953125 C604.0070190429688,665.0809936523438 604.1119995117188,664.8259887695312 604.1099853515625,664.5599975585938 C604.1099853515625,664.5599975585938 604.1099853515625,656.2000122070312 604.1099853515625,656.2000122070312 C604.1069946289062,655.8579711914062 603.9299926757812,655.541015625 603.6400146484375,655.3599853515625 C603.4819946289062,655.2579956054688 603.2979736328125,655.2020263671875 603.1099853515625,655.2000122070312 C603.1099853515625,655.2000122070312 603,655.2000122070312 603,655.2000122070312z M603,656.2000122070312 C603,656.2000122070312 603,664.5599975585938 603,664.5599975585938 C600.8699951171875,666.7559814453125 599.1259765625,669.2949829101562 597.8400268554688,672.0700073242188 C590.8289794921875,672.7839965820312 584.0579833984375,675.02001953125 578,678.6199951171875 C579.5880126953125,674.0120239257812 581.6320190429688,669.572998046875 584.0999755859375,665.3699951171875 C584.0999755859375,665.3699951171875 603,656.2000122070312 603,656.2000122070312"/></g><g opacity="1" transform="matrix(1,0,0,1,0,0)"><path fill="rgb(255,255,255)" fill-opacity="1" d=" M627.3300170898438,695.6400146484375 C627.3300170898438,695.6400146484375 622.030029296875,656.8800048828125 584.0800170898438,665.3699951171875 C584.0800170898438,665.3699951171875 589.9099731445312,650.3699951171875 609.4000244140625,655.1599731445312 C628.3800048828125,659.8499755859375 625.780029296875,680.6300048828125 627.3300170898438,695.6400146484375 C627.3300170898438,695.6400146484375 627.3300170898438,695.6400146484375 627.3300170898438,695.6400146484375z"/><path stroke-linecap="round" stroke-linejoin="round" fill-opacity="0" stroke="rgb(28,31,36)" stroke-opacity="1" stroke-width="3" d=" M627.3300170898438,695.6400146484375 C627.3300170898438,695.6400146484375 622.030029296875,656.8800048828125 584.0800170898438,665.3699951171875 C584.0800170898438,665.3699951171875 589.9099731445312,650.3699951171875 609.4000244140625,655.1599731445312 C628.3800048828125,659.8499755859375 625.780029296875,680.6300048828125 627.3300170898438,695.6400146484375 C627.3300170898438,695.6400146484375 627.3300170898438,695.6400146484375 627.3300170898438,695.6400146484375z"/></g><g opacity="1" transform="matrix(1.0090420246124268,0,0,1.0090420246124268,301.3800048828125,616.1900024414062)"><path fill="rgb(255,255,255)" fill-opacity="1" d=" M0,-6.099999904632568 C3.3665900230407715,-6.099999904632568 6.099999904632568,-3.3665900230407715 6.099999904632568,0 C6.099999904632568,3.3665900230407715 3.3665900230407715,6.099999904632568 0,6.099999904632568 C-3.3665900230407715,6.099999904632568 -6.099999904632568,3.3665900230407715 -6.099999904632568,0 C-6.099999904632568,-3.3665900230407715 -3.3665900230407715,-6.099999904632568 0,-6.099999904632568z"/><path stroke-linecap="butt" stroke-linejoin="round" fill-opacity="0" stroke="rgb(28,31,36)" stroke-opacity="1" stroke-width="3" d=" M0,-6.099999904632568 C3.3665900230407715,-6.099999904632568 6.099999904632568,-3.3665900230407715 6.099999904632568,0 C6.099999904632568,3.3665900230407715 3.3665900230407715,6.099999904632568 0,6.099999904632568 C-3.3665900230407715,6.099999904632568 -6.099999904632568,3.3665900230407715 -6.099999904632568,0 C-6.099999904632568,-3.3665900230407715 -3.3665900230407715,-6.099999904632568 0,-6.099999904632568z"/></g><g opacity="1" transform="matrix(1.1489028930664062,0,0,1.1489028930664062,681.4299926757812,641.8599853515625)"><path fill="rgb(255,255,255)" fill-opacity="1" d=" M0,-6.099999904632568 C3.3665900230407715,-6.099999904632568 6.099999904632568,-3.3665900230407715 6.099999904632568,0 C6.099999904632568,3.3665900230407715 3.3665900230407715,6.099999904632568 0,6.099999904632568 C-3.3665900230407715,6.099999904632568 -6.099999904632568,3.3665900230407715 -6.099999904632568,0 C-6.099999904632568,-3.3665900230407715 -3.3665900230407715,-6.099999904632568 0,-6.099999904632568z"/><path stroke-linecap="butt" stroke-linejoin="round" fill-opacity="0" stroke="rgb(28,31,36)" stroke-opacity="1" stroke-width="3" d=" M0,-6.099999904632568 C3.3665900230407715,-6.099999904632568 6.099999904632568,-3.3665900230407715 6.099999904632568,0 C6.099999904632568,3.3665900230407715 3.3665900230407715,6.099999904632568 0,6.099999904632568 C-3.3665900230407715,6.099999904632568 -6.099999904632568,3.3665900230407715 -6.099999904632568,0 C-6.099999904632568,-3.3665900230407715 -3.3665900230407715,-6.099999904632568 0,-6.099999904632568z"/></g></g><g id="Layer_8" opacity="1" transform="matrix(1,0,0,1,-146.96002197265625,-130.90399169921875)"><g opacity="1" transform="matrix(1,0,0,1,725.97998046875,672.0800170898438)"><g opacity="1" transform="matrix(1,0,0,1,-725.97998046875,-672.0800170898438)"><path fill="rgb(255,255,255)" fill-opacity="1" d=" M775.4099731445312,749 C775.4099731445312,749 739.2000122070312,749 739.2000122070312,749 C739.2000122070312,749 712.5,732 734.989990234375,672.1199951171875 C741.4710083007812,678.0130004882812 747.3800048828125,684.5050048828125 752.6400146484375,691.510009765625 C763.3499755859375,705.5399780273438 775,726.0599975585938 775.4099731445312,749 C775.4099731445312,749 775.4099731445312,749 775.4099731445312,749z"/><path stroke-linecap="butt" stroke-linejoin="round" fill-opacity="0" stroke="rgb(28,31,36)" stroke-opacity="1" stroke-width="3" d=" M775.4099731445312,749 C775.4099731445312,749 739.2000122070312,749 739.2000122070312,749 C739.2000122070312,749 712.5,732 734.989990234375,672.1199951171875 C741.4710083007812,678.0130004882812 747.3800048828125,684.5050048828125 752.6400146484375,691.510009765625 C763.3499755859375,705.5399780273438 775,726.0599975585938 775.4099731445312,749 C775.4099731445312,749 775.4099731445312,749 775.4099731445312,749z"/></g><g opacity="1" transform="matrix(1,0,0,1,-725.97998046875,-672.0800170898438)"><path fill="rgb(255,255,255)" fill-opacity="1" d=" M734.989990234375,672.0800170898438 C734.989990234375,672.0800170898438 755.719970703125,746.0900268554688 755.719970703125,746.0900268554688"/><path stroke-linecap="butt" stroke-linejoin="round" fill-opacity="0" stroke="rgb(28,31,36)" stroke-opacity="1" stroke-width="3" d=" M734.989990234375,672.0800170898438 C734.989990234375,672.0800170898438 755.719970703125,746.0900268554688 755.719970703125,746.0900268554688"/></g><g opacity="1" transform="matrix(1,0,0,1,-725.9800415039062,-672.0800170898438)"><path fill="rgb(29,31,37)" fill-opacity="1" d=" M775.4099731445312,749 C775.4099731445312,749 749.739990234375,749.5999755859375 749.739990234375,749.5999755859375 C744.0800170898438,716.8699951171875 748.3699951171875,699.8400268554688 752.6400146484375,691.510009765625 C763.3499755859375,705.5399780273438 775,726.0599975585938 775.4099731445312,749 C775.4099731445312,749 775.4099731445312,749 775.4099731445312,749z"/><path stroke-linecap="butt" stroke-linejoin="round" fill-opacity="0" stroke="rgb(29,31,37)" stroke-opacity="1" stroke-width="1" d=" M775.4099731445312,749 C775.4099731445312,749 749.739990234375,749.5999755859375 749.739990234375,749.5999755859375 C744.0800170898438,716.8699951171875 748.3699951171875,699.8400268554688 752.6400146484375,691.510009765625 C763.3499755859375,705.5399780273438 775,726.0599975585938 775.4099731445312,749 C775.4099731445312,749 775.4099731445312,749 775.4099731445312,749z"/></g></g><g opacity="1" transform="matrix(1,0,0,1,753.04296875,652.18994140625)"><g opacity="1" transform="matrix(1,0,0,1,-753.04296875,-652.18994140625)"><path fill="rgb(255,255,255)" fill-opacity="1" d=" M785.489990234375,652.1900024414062 C785.489990234375,652.1900024414062 817,689.6699829101562 808.0800170898438,749 C808.0800170898438,749 754.3200073242188,749 754.3200073242188,749 C754.3200073242188,749 743.3900146484375,697.3400268554688 785.489990234375,652.1900024414062 C785.489990234375,652.1900024414062 785.489990234375,652.1900024414062 785.489990234375,652.1900024414062z"/><path stroke-linecap="butt" stroke-linejoin="round" fill-opacity="0" stroke="rgb(28,31,36)" stroke-opacity="1" stroke-width="3" d=" M785.489990234375,652.1900024414062 C785.489990234375,652.1900024414062 817,689.6699829101562 808.0800170898438,749 C808.0800170898438,749 754.3200073242188,749 754.3200073242188,749 C754.3200073242188,749 743.3900146484375,697.3400268554688 785.489990234375,652.1900024414062 C785.489990234375,652.1900024414062 785.489990234375,652.1900024414062 785.489990234375,652.1900024414062z"/></g><g opacity="1" transform="matrix(1,0,0,1,-753.0430297851562,-652.1900024414062)"><path fill="rgb(255,255,255)" fill-opacity="1" d=" M785.489990234375,652.1900024414062 C785.489990234375,652.1900024414062 780.8099975585938,748.969970703125 780.8099975585938,748.969970703125"/><path stroke-linecap="butt" stroke-linejoin="round" fill-opacity="0" stroke="rgb(28,31,36)" stroke-opacity="1" stroke-width="3" d=" M785.489990234375,652.1900024414062 C785.489990234375,652.1900024414062 780.8099975585938,748.969970703125 780.8099975585938,748.969970703125"/></g></g></g><g id="Tree" opacity="1" transform="matrix(1,0,0,1,-146.95999145507812,-130.90399169921875)"><g opacity="1" transform="matrix(1,0,0,1,245.91000366210938,665.3699951171875)"><g opacity="1" transform="matrix(1,0,0,1,-245.9099884033203,-665.3699951171875)"><path fill="rgb(255,255,255)" fill-opacity="1" d=" M302.6300048828125,749.219970703125 C302.6300048828125,749.219970703125 247.91000366210938,749.219970703125 247.91000366210938,749.219970703125 C247.91000366210938,749.219970703125 237.91000366210938,713.5499877929688 268.6199951171875,686.219970703125 C270.6650085449219,684.385009765625 272.8080139160156,682.6630249023438 275.0400085449219,681.0599975585938 C283.3299865722656,675.0599975585938 293.95001220703125,669.6599731445312 307.4800109863281,665.3800048828125 C307.4800109863281,665.3699951171875 326.8900146484375,709.4400024414062 302.6300048828125,749.219970703125 C302.6300048828125,749.219970703125 302.6300048828125,749.219970703125 302.6300048828125,749.219970703125z"/><path stroke-linecap="butt" stroke-linejoin="round" fill-opacity="0" stroke="rgb(28,31,36)" stroke-opacity="1" stroke-width="3" d=" M302.6300048828125,749.219970703125 C302.6300048828125,749.219970703125 247.91000366210938,749.219970703125 247.91000366210938,749.219970703125 C247.91000366210938,749.219970703125 237.91000366210938,713.5499877929688 268.6199951171875,686.219970703125 C270.6650085449219,684.385009765625 272.8080139160156,682.6630249023438 275.0400085449219,681.0599975585938 C283.3299865722656,675.0599975585938 293.95001220703125,669.6599731445312 307.4800109863281,665.3800048828125 C307.4800109863281,665.3699951171875 326.8900146484375,709.4400024414062 302.6300048828125,749.219970703125 C302.6300048828125,749.219970703125 302.6300048828125,749.219970703125 302.6300048828125,749.219970703125z"/></g><g opacity="1" transform="matrix(1,0,0,1,-245.91000366210938,-665.3699951171875)"><path fill="rgb(255,255,255)" fill-opacity="1" d=" M307.4800109863281,665.3699951171875 C307.4800109863281,665.3699951171875 269.1000061035156,749.22998046875 269.1000061035156,749.22998046875"/><path stroke-linecap="butt" stroke-linejoin="round" fill-opacity="0" stroke="rgb(28,31,36)" stroke-opacity="1" stroke-width="3" d=" M307.4800109863281,665.3699951171875 C307.4800109863281,665.3699951171875 269.1000061035156,749.22998046875 269.1000061035156,749.22998046875"/></g><g opacity="1" transform="matrix(1,0,0,1,-245.91000366210938,-665.3699951171875)"><path fill="rgb(29,31,37)" fill-opacity="1" d=" M247.91000366210938,749.719970703125 C247.68800354003906,749.719970703125 247.49200439453125,749.572998046875 247.42999267578125,749.3599853515625 C247.3300018310547,749 237.67999267578125,713.0700073242188 268.2900085449219,685.8300170898438 C268.3819885253906,685.7509765625 268.4989929199219,685.708984375 268.6199951171875,685.7100219726562 C268.6199951171875,685.7100219726562 268.7300109863281,685.7100219726562 268.7300109863281,685.7100219726562 C268.8890075683594,685.7470092773438 269.0190124511719,685.8590087890625 269.0799865722656,686.010009765625 C275.75,702.1500244140625 282.8299865722656,723.9299926757812 278.3999938964844,749.2999877929688 C278.3559875488281,749.541015625 278.1449890136719,749.7139892578125 277.8999938964844,749.7100219726562 C277.8999938964844,749.7100219726562 247.91000366210938,749.719970703125 247.91000366210938,749.719970703125z"/></g></g><g opacity="1" transform="matrix(1,0,0,1,185.74200439453125,620.1700439453125)"><g opacity="1" transform="matrix(1,0,0,1,-185.74200439453125,-620.1700439453125)"><path fill="rgb(255,255,255)" fill-opacity="1" d=" M201.9199981689453,620.1699829101562 C201.9199981689453,620.1699829101562 165.52000427246094,684.8400268554688 201.9199981689453,749.22998046875 C201.9199981689453,749.22998046875 269.1000061035156,749.22998046875 269.1000061035156,749.22998046875 C269.1000061035156,749.22998046875 288.29998779296875,690 201.9199981689453,620.1699829101562 C201.9199981689453,620.1699829101562 201.9199981689453,620.1699829101562 201.9199981689453,620.1699829101562z"/><path stroke-linecap="butt" stroke-linejoin="round" fill-opacity="0" stroke="rgb(28,31,36)" stroke-opacity="1" stroke-width="3" d=" M201.9199981689453,620.1699829101562 C201.9199981689453,620.1699829101562 165.52000427246094,684.8400268554688 201.9199981689453,749.22998046875 C201.9199981689453,749.22998046875 269.1000061035156,749.22998046875 269.1000061035156,749.22998046875 C269.1000061035156,749.22998046875 288.29998779296875,690 201.9199981689453,620.1699829101562 C201.9199981689453,620.1699829101562 201.9199981689453,620.1699829101562 201.9199981689453,620.1699829101562z"/></g><g opacity="1" transform="matrix(1,0,0,1,-185.74200439453125,-620.1700439453125)"><path fill="rgb(255,255,255)" fill-opacity="1" d=" M201.9199981689453,620.1699829101562 C201.9199981689453,620.1699829101562 235.99000549316406,749.22998046875 235.99000549316406,749.22998046875"/><path stroke-linecap="butt" stroke-linejoin="round" fill-opacity="0" stroke="rgb(28,31,36)" stroke-opacity="1" stroke-width="3" d=" M201.9199981689453,620.1699829101562 C201.9199981689453,620.1699829101562 235.99000549316406,749.22998046875 235.99000549316406,749.22998046875"/></g></g></g><g id="BOX-HANND" opacity="1" transform="matrix(1,0,0,1,75.583984375,119.61898803710938)"><g opacity="1" transform="matrix(1,0,0,1,0,-67.46502685546875)"><g id="Box" opacity="1" transform="matrix(1,0,0,1,-236.62998962402344,-117.69601440429688)"><g opacity="1" transform="matrix(1,0,0,1,364.3800048828125,446.8699951171875)"><path fill="rgb(255,255,255)" fill-opacity="1" d=" M0,0 C0,0 64.87000274658203,0 64.87000274658203,0 C64.87000274658203,0 64.87000274658203,236.48800659179688 64.87000274658203,236.48800659179688 C64.87000274658203,236.48800659179688 0,236.48800659179688 0,236.48800659179688 C0,236.48800659179688 0,0 0,0z"/><path stroke-linecap="butt" stroke-linejoin="round" fill-opacity="0" stroke="rgb(28,31,36)" stroke-opacity="1" stroke-width="3" d=" M0,0 C0,0 64.87000274658203,0 64.87000274658203,0 C64.87000274658203,0 64.87000274658203,236.48800659179688 64.87000274658203,236.48800659179688 C64.87000274658203,236.48800659179688 0,236.48800659179688 0,236.48800659179688 C0,236.48800659179688 0,0 0,0z"/></g><g opacity="1" transform="matrix(1,0,0,1,364.3800048828125,454.5899963378906)"><path fill="rgb(29,31,37)" fill-opacity="1" d=" M64.87000274658203,0 C64.87000274658203,0 64.87000274658203,65.2300033569336 64.87000274658203,65.2300033569336 C64.87000274658203,65.2300033569336 0,65.2300033569336 0,65.2300033569336 C0,65.2300033569336 0,0 0,0 C0,0 64.87000274658203,0 64.87000274658203,0z"/></g><g opacity="1" transform="matrix(1,0,0,1,0,0)"><path fill="rgb(255,255,255)" fill-opacity="1" d=" M696.8400268554688,476 C696.8400268554688,476 649,476 649,476 C649,476 649,340.75 649,340.75 C648.9940185546875,291.2179870605469 608.8419799804688,251.0659942626953 559.3099975585938,251.05999755859375 C559.3099975585938,251.05999755859375 326.30999755859375,251.05999755859375 326.30999755859375,251.05999755859375 C276.77899169921875,251.0659942626953 236.6300048828125,291.218994140625 236.6300048828125,340.75 C236.6300048828125,340.75 236.6300048828125,480.6199951171875 236.6300048828125,480.6199951171875 C236.6300048828125,484.7919921875 238.28700256347656,488.7929992675781 241.23699951171875,491.7430114746094 C244.18699645996094,494.6929931640625 248.18800354003906,496.3500061035156 252.36000061035156,496.3500061035156 C252.36000061035156,496.3500061035156 697.1900024414062,496.3500061035156 697.1900024414062,496.3500061035156 C700.0120239257812,496.35400390625 702.708984375,495.1860046386719 704.6370239257812,493.125 C706.5650024414062,491.0639953613281 707.551025390625,488.2959899902344 707.3599853515625,485.4800109863281 C706.864990234375,480.0589904785156 702.2830200195312,475.92999267578125 696.8400268554688,476 C696.8400268554688,476 696.8400268554688,476 696.8400268554688,476z"/><path stroke-linecap="butt" stroke-linejoin="round" fill-opacity="0" stroke="rgb(28,31,36)" stroke-opacity="1" stroke-width="3" d=" M696.8400268554688,476 C696.8400268554688,476 649,476 649,476 C649,476 649,340.75 649,340.75 C648.9940185546875,291.2179870605469 608.8419799804688,251.0659942626953 559.3099975585938,251.05999755859375 C559.3099975585938,251.05999755859375 326.30999755859375,251.05999755859375 326.30999755859375,251.05999755859375 C276.77899169921875,251.0659942626953 236.6300048828125,291.218994140625 236.6300048828125,340.75 C236.6300048828125,340.75 236.6300048828125,480.6199951171875 236.6300048828125,480.6199951171875 C236.6300048828125,484.7919921875 238.28700256347656,488.7929992675781 241.23699951171875,491.7430114746094 C244.18699645996094,494.6929931640625 248.18800354003906,496.3500061035156 252.36000061035156,496.3500061035156 C252.36000061035156,496.3500061035156 697.1900024414062,496.3500061035156 697.1900024414062,496.3500061035156 C700.0120239257812,496.35400390625 702.708984375,495.1860046386719 704.6370239257812,493.125 C706.5650024414062,491.0639953613281 707.551025390625,488.2959899902344 707.3599853515625,485.4800109863281 C706.864990234375,480.0589904785156 702.2830200195312,475.92999267578125 696.8400268554688,476 C696.8400268554688,476 696.8400268554688,476 696.8400268554688,476z"/></g><g opacity="1" transform="matrix(1,0,0,1,0,0)"><path fill="rgb(29,31,37)" fill-opacity="1" d=" M487.5199890136719,476.4599914550781 C487.2439880371094,476.4599914550781 487.0199890136719,476.2359924316406 487.0199890136719,475.9599914550781 C487.0199890136719,475.9599914550781 487.0199890136719,343.25 487.0199890136719,343.25 C487.4859924316406,303.65399169921875 519.7160034179688,271.79998779296875 559.3150024414062,271.79998779296875 C598.9140014648438,271.79998779296875 631.1439819335938,303.65399169921875 631.6099853515625,343.25 C631.6099853515625,343.25 631.6099853515625,476 631.6099853515625,476 C631.6099853515625,476.2760009765625 631.385986328125,476.5 631.1099853515625,476.5 C631.1099853515625,476.5 487.5199890136719,476.4599914550781 487.5199890136719,476.4599914550781z"/></g><g opacity="1" transform="matrix(1,0,0,1,0,0)"><path fill="rgb(29,31,37)" fill-opacity="1" d=" M559.3099975585938,270.4599914550781 C519.1270141601562,270.5039978027344 486.5639953613281,303.0669860839844 486.5199890136719,343.25 C486.5199890136719,343.25 486.5199890136719,476 486.5199890136719,476 C486.5199890136719,476.552001953125 486.9679870605469,477 487.5199890136719,477 C487.5199890136719,477 631.1099853515625,477 631.1099853515625,477 C631.6619873046875,477 632.1099853515625,476.552001953125 632.1099853515625,476 C632.1099853515625,476 632.1099853515625,343.25 632.1099853515625,343.25 C632.1099853515625,323.9429931640625 624.4400024414062,305.427001953125 610.7869873046875,291.7760009765625 C597.1339721679688,278.125 578.6170043945312,270.4570007324219 559.3099975585938,270.4599914550781 C559.3099975585938,270.4599914550781 559.3099975585938,270.4599914550781 559.3099975585938,270.4599914550781z M559.3099975585938,271.4599914550781 C578.3519897460938,271.4549865722656 596.6170043945312,279.0159912109375 610.0830078125,292.4800109863281 C623.5490112304688,305.9440002441406 631.1129760742188,324.2080078125 631.1099853515625,343.25 C631.1099853515625,343.25 631.1099853515625,476 631.1099853515625,476 C631.1099853515625,476 487.5199890136719,476 487.5199890136719,476 C487.5199890136719,476 487.5199890136719,343.25 487.5199890136719,343.25 C487.5199890136719,303.60101318359375 519.6610107421875,271.4599914550781 559.3099975585938,271.4599914550781"/></g></g><g id="Hand" opacity="1" transform="matrix(1,0,0,1,229.43099975585938,73.97499084472656)"><g id="Hand" opacity="1" transform="matrix(1,0,0,1,-487.54998779296875,-185.16099548339844)"><g id="xxxxxxx" opacity="1" transform="matrix(1,0,0,1,0,0)"><path fill="rgb(29,31,37)" fill-opacity="1" d=" M695.5900268554688,415.3800048828125 C695.5900268554688,442.739990234375 681.1099853515625,454.5899963378906 681.1099853515625,454.5899963378906 C675.656005859375,439.81298828125 672.406982421875,424.31298828125 671.469970703125,408.5899963378906 C682.25,402.8399963378906 695.5900268554688,399.07000732421875 695.5900268554688,415.3800048828125 C695.5900268554688,415.3800048828125 695.5900268554688,415.3800048828125 695.5900268554688,415.3800048828125z"/></g><g id="Hand" opacity="1" transform="matrix(1,0,0,1,667.77001953125,185.1610107421875)"><g id="Lamp" opacity="1" transform="matrix(1,0,0,1,-667.77001953125,-185.16099548339844)"><g opacity="1" transform="matrix(1,0,0,1,0,0)"><path fill="rgb(29,31,37)" fill-opacity="1" d=" M832.7100219726562,345.3599853515625 C831.60302734375,345.3609924316406 830.5139770507812,345.07501220703125 829.5499877929688,344.5299987792969 C829.5499877929688,344.5299987792969 778.3300170898438,315.6499938964844 778.3300170898438,315.6499938964844 C775.2340087890625,313.89300537109375 774.1400146484375,309.9649963378906 775.8800048828125,306.8599853515625 C775.8800048828125,306.8599853515625 779.9600219726562,299.6300048828125 779.9600219726562,299.6300048828125 C781.7139892578125,296.5299987792969 785.64599609375,295.4339904785156 788.75,297.17999267578125 C788.75,297.17999267578125 840,326.05999755859375 840,326.05999755859375 C843.0999755859375,327.8139953613281 844.1959838867188,331.7460021972656 842.4500122070312,334.8500061035156 C842.4500122070312,334.8500061035156 838.3800048828125,342.0799865722656 838.3800048828125,342.0799865722656 C837.2219848632812,344.1180114746094 835.0540161132812,345.37298583984375 832.7100219726562,345.3599853515625 C832.7100219726562,345.3599853515625 832.7100219726562,345.3599853515625 832.7100219726562,345.3599853515625z"/></g><g opacity="1" transform="matrix(1,0,0,1,0,0)"><path fill="rgb(29,31,37)" fill-opacity="1" d=" M785.5800170898438,295.8800048828125 C785.5800170898438,295.8800048828125 785.5800170898438,295.8800048828125 785.5800170898438,295.8800048828125 C783.072021484375,295.8890075683594 780.760009765625,297.239013671875 779.52001953125,299.4200134277344 C779.52001953125,299.4200134277344 775.4500122070312,306.6400146484375 775.4500122070312,306.6400146484375 C773.5859985351562,309.989990234375 774.7630004882812,314.21600341796875 778.0900268554688,316.1199951171875 C778.0900268554688,316.1199951171875 829.2999877929688,345 829.2999877929688,345 C832.6519775390625,346.8630065917969 836.8790283203125,345.6809997558594 838.780029296875,342.3500061035156 C838.780029296875,342.3500061035156 842.8499755859375,335.1300048828125 842.8499755859375,335.1300048828125 C844.7080078125,331.7829895019531 843.531982421875,327.5639953613281 840.2100219726562,325.6600036621094 C840.2100219726562,325.6600036621094 789,296.75 789,296.75 C787.9600219726562,296.1610107421875 786.7849731445312,295.8500061035156 785.5900268554688,295.8500061035156 C785.5900268554688,295.8500061035156 785.5800170898438,295.8800048828125 785.5800170898438,295.8800048828125z M785.5800170898438,296.8500061035156 C786.60302734375,296.8500061035156 787.6090087890625,297.1159973144531 788.5,297.6199951171875 C788.5,297.6199951171875 839.719970703125,326.5 839.719970703125,326.5 C842.56201171875,328.1319885253906 843.5679931640625,331.7430114746094 841.97998046875,334.6099853515625 C841.97998046875,334.6099853515625 837.9000244140625,341.8299865722656 837.9000244140625,341.8299865722656 C836.27099609375,344.67498779296875 832.6589965820312,345.6860046386719 829.7899780273438,344.1000061035156 C829.7899780273438,344.1000061035156 778.5800170898438,315.2099914550781 778.5800170898438,315.2099914550781 C777.2020263671875,314.43701171875 776.1890258789062,313.14599609375 775.7650146484375,311.625 C775.3410034179688,310.1029968261719 775.541015625,308.4739990234375 776.3200073242188,307.1000061035156 C776.3200073242188,307.1000061035156 780.3900146484375,299.8800048828125 780.3900146484375,299.8800048828125 C781.4609985351562,298.0249938964844 783.4390258789062,296.8819885253906 785.5800170898438,296.8800048828125"/></g><g opacity="1" transform="matrix(1,0,0,1,0,0)"><path fill="rgb(29,31,37)" fill-opacity="1" d=" M811.1199951171875,361.92999267578125 C810.0130004882812,361.9280090332031 808.9249877929688,361.6419982910156 807.9600219726562,361.1000061035156 C807.9600219726562,361.1000061035156 772.1400146484375,340.8999938964844 772.1400146484375,340.8999938964844 C770.64697265625,340.06201171875 769.5490112304688,338.6629943847656 769.0900268554688,337.0140075683594 C768.6300048828125,335.364013671875 768.8460083007812,333.6000061035156 769.6900024414062,332.1099853515625 C769.6900024414062,332.1099853515625 773.760009765625,324.8800048828125 773.760009765625,324.8800048828125 C775.5139770507812,321.7799987792969 779.4459838867188,320.6839904785156 782.5499877929688,322.42999267578125 C782.5499877929688,322.42999267578125 818.3699951171875,342.6300048828125 818.3699951171875,342.6300048828125 C819.8629760742188,343.4679870605469 820.9609985351562,344.86700439453125 821.4199829101562,346.5159912109375 C821.8800048828125,348.1659851074219 821.6640014648438,349.92999267578125 820.8200073242188,351.4200134277344 C820.8200073242188,351.4200134277344 816.75,358.6400146484375 816.75,358.6400146484375 C815.60498046875,360.6730041503906 813.4530029296875,361.92999267578125 811.1199951171875,361.92999267578125 C811.1199951171875,361.92999267578125 811.1199951171875,361.92999267578125 811.1199951171875,361.92999267578125z"/></g><g opacity="1" transform="matrix(1,0,0,1,0,0)"><path fill="rgb(29,31,37)" fill-opacity="1" d=" M779.3900146484375,321.1300048828125 C779.3900146484375,321.1300048828125 779.3900146484375,321.1300048828125 779.3900146484375,321.1300048828125 C776.8779907226562,321.135009765625 774.56201171875,322.4859924316406 773.3200073242188,324.6700134277344 C773.3200073242188,324.6700134277344 769.25,331.8900146484375 769.25,331.8900146484375 C767.3920288085938,335.23699951171875 768.5679931640625,339.45599365234375 771.8900146484375,341.3599853515625 C771.8900146484375,341.3599853515625 807.7100219726562,361.55999755859375 807.7100219726562,361.55999755859375 C809.3150024414062,362.468994140625 811.2160034179688,362.70098876953125 812.9929809570312,362.20599365234375 C814.77001953125,361.71099853515625 816.2769775390625,360.52801513671875 817.1799926757812,358.9200134277344 C817.1799926757812,358.9200134277344 821.260009765625,351.69000244140625 821.260009765625,351.69000244140625 C823.1179809570312,348.3429870605469 821.9420166015625,344.1239929199219 818.6199951171875,342.2200012207031 C818.6199951171875,342.2200012207031 782.7999877929688,322 782.7999877929688,322 C781.7579956054688,321.4169921875 780.583984375,321.1109924316406 779.3900146484375,321.1099853515625 C779.3900146484375,321.1099853515625 779.3900146484375,321.1300048828125 779.3900146484375,321.1300048828125z M779.3900146484375,322.1000061035156 C780.4140014648438,322.09698486328125 781.4210205078125,322.3630065917969 782.3099975585938,322.8699951171875 C782.3099975585938,322.8699951171875 818.1300048828125,343.05999755859375 818.1300048828125,343.05999755859375 C820.9719848632812,344.6919860839844 821.97802734375,348.3030090332031 820.3900146484375,351.1700134277344 C820.3900146484375,351.1700134277344 816.3099975585938,358.3999938964844 816.3099975585938,358.3999938964844 C815.5349731445312,359.7760009765625 814.2449951171875,360.7869873046875 812.7230224609375,361.21099853515625 C811.2020263671875,361.635009765625 809.5750122070312,361.43701171875 808.2000122070312,360.6600036621094 C808.2000122070312,360.6600036621094 772.3800048828125,340.4599914550781 772.3800048828125,340.4599914550781 C769.5380249023438,338.8280029296875 768.531982421875,335.2170104980469 770.1199951171875,332.3500061035156 C770.1199951171875,332.3500061035156 774.2000122070312,325.1300048828125 774.2000122070312,325.1300048828125 C775.2620239257812,323.2659912109375 777.2449951171875,322.1199951171875 779.3900146484375,322.1300048828125"/></g><g opacity="1" transform="matrix(1,0,0,1,0,0)"><path fill="rgb(255,255,255)" fill-opacity="1" d=" M902.27001953125,265.92999267578125 C913.6309814453125,245.81700134277344 910.97900390625,220.7100067138672 895.666015625,203.4149932861328 C880.35302734375,186.11900329589844 855.7529907226562,180.44500732421875 834.4110107421875,189.28500366210938 C813.0700073242188,198.125 799.68798828125,219.53199768066406 801.0900268554688,242.58999633789062 C801.0900268554688,242.58999633789062 801.0900268554688,242.58999633789062 801.0900268554688,242.58999633789062 C801.0900268554688,242.58999633789062 801.1599731445312,266.82000732421875 801.1599731445312,266.82000732421875 C801.2109985351562,278.385986328125 798.0980224609375,289.7449951171875 792.1599731445312,299.6700134277344 C792.1599731445312,299.6700134277344 792.1599731445312,299.6700134277344 792.1599731445312,299.6700134277344 C792.1599731445312,299.6700134277344 814.1599731445312,312.07000732421875 814.1599731445312,312.07000732421875 C814.1599731445312,312.07000732421875 836.1599731445312,324.4700012207031 836.1599731445312,324.4700012207031 C836.1599731445312,324.4700012207031 836.1599731445312,324.4700012207031 836.1599731445312,324.4700012207031 C841.572998046875,314.24700927734375 849.6740112304688,305.6960144042969 859.5900268554688,299.739990234375 C859.5900268554688,299.739990234375 880.3599853515625,287.2699890136719 880.3599853515625,287.2699890136719 C880.3599853515625,287.2699890136719 880.3599853515625,287.2699890136719 880.3599853515625,287.2699890136719 C889.572021484375,282.4230041503906 897.1820068359375,275.010986328125 902.27001953125,265.92999267578125 C902.27001953125,265.92999267578125 902.27001953125,265.92999267578125 902.27001953125,265.92999267578125z"/><path stroke-linecap="round" stroke-linejoin="round" fill-opacity="0" stroke="rgb(28,31,36)" stroke-opacity="1" stroke-width="3" d=" M902.27001953125,265.92999267578125 C913.6309814453125,245.81700134277344 910.97900390625,220.7100067138672 895.666015625,203.4149932861328 C880.35302734375,186.11900329589844 855.7529907226562,180.44500732421875 834.4110107421875,189.28500366210938 C813.0700073242188,198.125 799.68798828125,219.53199768066406 801.0900268554688,242.58999633789062 C801.0900268554688,242.58999633789062 801.0900268554688,242.58999633789062 801.0900268554688,242.58999633789062 C801.0900268554688,242.58999633789062 801.1599731445312,266.82000732421875 801.1599731445312,266.82000732421875 C801.2109985351562,278.385986328125 798.0980224609375,289.7449951171875 792.1599731445312,299.6700134277344 C792.1599731445312,299.6700134277344 792.1599731445312,299.6700134277344 792.1599731445312,299.6700134277344 C792.1599731445312,299.6700134277344 814.1599731445312,312.07000732421875 814.1599731445312,312.07000732421875 C814.1599731445312,312.07000732421875 836.1599731445312,324.4700012207031 836.1599731445312,324.4700012207031 C836.1599731445312,324.4700012207031 836.1599731445312,324.4700012207031 836.1599731445312,324.4700012207031 C841.572998046875,314.24700927734375 849.6740112304688,305.6960144042969 859.5900268554688,299.739990234375 C859.5900268554688,299.739990234375 880.3599853515625,287.2699890136719 880.3599853515625,287.2699890136719 C880.3599853515625,287.2699890136719 880.3599853515625,287.2699890136719 880.3599853515625,287.2699890136719 C889.572021484375,282.4230041503906 897.1820068359375,275.010986328125 902.27001953125,265.92999267578125 C902.27001953125,265.92999267578125 902.27001953125,265.92999267578125 902.27001953125,265.92999267578125z"/></g><g opacity="1" transform="matrix(1,0,0,1,0,0)"><path stroke-linecap="round" stroke-linejoin="round" fill-opacity="0" stroke="rgb(28,31,36)" stroke-opacity="1" stroke-width="3" d=" M807.7899780273438,308.489990234375 C807.7899780273438,308.489990234375 839.0800170898438,276.1300048828125 831.5399780273438,251.58999633789062 C824,227.0500030517578 807.3599853515625,260.4200134277344 824.0999755859375,264.7799987792969 C840.8400268554688,269.1400146484375 877.4500122070312,263.3500061035156 869.8800048828125,253.63999938964844 C862.3099975585938,243.92999267578125 851.6799926757812,247.36000061035156 847.4600219726562,269.6400146484375 C843.239990234375,291.9200134277344 824.010009765625,317.6400146484375 824.010009765625,317.6400146484375"/></g></g><g id="hand" opacity="1" transform="matrix(1,0,0,1,-667.77001953125,-185.1610107421875)"><path fill="rgb(255,255,255)" fill-opacity="1" d=" M681.1099853515625,343.55999755859375 C681.1099853515625,343.55999755859375 779.22998046875,286.7900085449219 779.22998046875,286.7900085449219 C780.8209838867188,285.864013671875 782.843017578125,286.1709899902344 784.0880126953125,287.5270080566406 C785.333984375,288.88299560546875 785.468017578125,290.9230041503906 784.4099731445312,292.42999267578125 C784.4099731445312,292.42999267578125 763.510009765625,322.32000732421875 763.510009765625,322.32000732421875 C757.7769775390625,330.5190124511719 757.1320190429688,341.24200439453125 761.8400268554688,350.07000732421875 C761.8400268554688,350.07000732421875 761.8400268554688,350.07000732421875 761.8400268554688,350.07000732421875 C766.1309814453125,358.1059875488281 774.2360229492188,363.38800048828125 783.3200073242188,364.07000732421875 C783.3200073242188,364.07000732421875 783.3200073242188,364.07000732421875 783.3200073242188,364.07000732421875 C799.4099731445312,365.281005859375 815.3250122070312,360.0669860839844 827.5800170898438,349.57000732421875 C827.5800170898438,349.57000732421875 846,333.80999755859375 846,333.80999755859375 C846.8909912109375,333.0509948730469 848.1649780273438,332.9419860839844 849.1719970703125,333.5379943847656 C850.1790161132812,334.1340026855469 850.697021484375,335.3039855957031 850.4600219726562,336.45001220703125 C850.4600219726562,336.45001220703125 845,362.2699890136719 845,362.2699890136719 C840.2030029296875,384.9800109863281 823.447021484375,403.2919921875 801.25,410.0799865722656 C801.25,410.0799865722656 777.7000122070312,417.29998779296875 777.7000122070312,417.29998779296875 C757.7160034179688,423.41400146484375 736.89501953125,426.3500061035156 716,426 C716,426 667.77001953125,425.20001220703125 667.77001953125,425.20001220703125 C667.77001953125,425.20001220703125 667.77001953125,347.760009765625 667.77001953125,347.760009765625 C667.77001953125,347.760009765625 681.1099853515625,343.55999755859375 681.1099853515625,343.55999755859375z"/><path stroke-linecap="butt" stroke-linejoin="round" fill-opacity="0" stroke="rgb(28,31,36)" stroke-opacity="1" stroke-width="3" d=" M681.1099853515625,343.55999755859375 C681.1099853515625,343.55999755859375 779.22998046875,286.7900085449219 779.22998046875,286.7900085449219 C780.8209838867188,285.864013671875 782.843017578125,286.1709899902344 784.0880126953125,287.5270080566406 C785.333984375,288.88299560546875 785.468017578125,290.9230041503906 784.4099731445312,292.42999267578125 C784.4099731445312,292.42999267578125 763.510009765625,322.32000732421875 763.510009765625,322.32000732421875 C757.7769775390625,330.5190124511719 757.1320190429688,341.24200439453125 761.8400268554688,350.07000732421875 C761.8400268554688,350.07000732421875 761.8400268554688,350.07000732421875 761.8400268554688,350.07000732421875 C766.1309814453125,358.1059875488281 774.2360229492188,363.38800048828125 783.3200073242188,364.07000732421875 C783.3200073242188,364.07000732421875 783.3200073242188,364.07000732421875 783.3200073242188,364.07000732421875 C799.4099731445312,365.281005859375 815.3250122070312,360.0669860839844 827.5800170898438,349.57000732421875 C827.5800170898438,349.57000732421875 846,333.80999755859375 846,333.80999755859375 C846.8909912109375,333.0509948730469 848.1649780273438,332.9419860839844 849.1719970703125,333.5379943847656 C850.1790161132812,334.1340026855469 850.697021484375,335.3039855957031 850.4600219726562,336.45001220703125 C850.4600219726562,336.45001220703125 845,362.2699890136719 845,362.2699890136719 C840.2030029296875,384.9800109863281 823.447021484375,403.2919921875 801.25,410.0799865722656 C801.25,410.0799865722656 777.7000122070312,417.29998779296875 777.7000122070312,417.29998779296875 C757.7160034179688,423.41400146484375 736.89501953125,426.3500061035156 716,426 C716,426 667.77001953125,425.20001220703125 667.77001953125,425.20001220703125 C667.77001953125,425.20001220703125 667.77001953125,347.760009765625 667.77001953125,347.760009765625 C667.77001953125,347.760009765625 681.1099853515625,343.55999755859375 681.1099853515625,343.55999755859375z"/></g></g><g id="xxxxxxxx" opacity="1" transform="matrix(1,0,0,1,487.5500183105469,335.6889953613281)"><g opacity="1" transform="matrix(1,0,0,1,-487.5500183105469,-335.6889953613281)"><path fill="rgb(255,255,255)" fill-opacity="1" d=" M671.469970703125,408.5400085449219 C672.4030151367188,424.2640075683594 675.6510009765625,439.7640075683594 681.1099853515625,454.5400085449219 C681.1099853515625,456.7200012207031 671.97998046875,447.8999938964844 631.1099853515625,446.9100036621094 C628.7100219726562,446.9100036621094 626.1799926757812,446.82000732421875 623.5499877929688,446.82000732421875 C623.5499877929688,446.82000732421875 520.5469970703125,447.2879943847656 520.5469970703125,447.2879943847656 C520.5469970703125,447.2879943847656 520.5700073242188,351.16900634765625 520.5700073242188,351.16900634765625 C520.5700073242188,351.16900634765625 621.6400146484375,351.2799987792969 621.6400146484375,351.2799987792969 C624.8040161132812,351.281005859375 627.9660034179688,351.10101318359375 631.1099853515625,350.739990234375 C644.6160278320312,349.22601318359375 657.5670166015625,344.5159912109375 668.8900146484375,337 C671.3049926757812,335.39801025390625 674.4039916992188,335.25299072265625 676.9580078125,336.62200927734375 C679.5120239257812,337.9909973144531 681.1069946289062,340.6520080566406 681.1099853515625,343.54998779296875 C673.4359741210938,364.31298828125 670.1530151367188,386.4429931640625 671.469970703125,408.5400085449219 C671.469970703125,408.5400085449219 671.469970703125,408.5400085449219 671.469970703125,408.5400085449219z"/><path stroke-linecap="butt" stroke-linejoin="round" fill-opacity="0" stroke="rgb(28,31,36)" stroke-opacity="1" stroke-width="3" d=" M671.469970703125,408.5400085449219 C672.4030151367188,424.2640075683594 675.6510009765625,439.7640075683594 681.1099853515625,454.5400085449219 C681.1099853515625,456.7200012207031 671.97998046875,447.8999938964844 631.1099853515625,446.9100036621094 C628.7100219726562,446.9100036621094 626.1799926757812,446.82000732421875 623.5499877929688,446.82000732421875 C623.5499877929688,446.82000732421875 520.5469970703125,447.2879943847656 520.5469970703125,447.2879943847656 C520.5469970703125,447.2879943847656 520.5700073242188,351.16900634765625 520.5700073242188,351.16900634765625 C520.5700073242188,351.16900634765625 621.6400146484375,351.2799987792969 621.6400146484375,351.2799987792969 C624.8040161132812,351.281005859375 627.9660034179688,351.10101318359375 631.1099853515625,350.739990234375 C644.6160278320312,349.22601318359375 657.5670166015625,344.5159912109375 668.8900146484375,337 C671.3049926757812,335.39801025390625 674.4039916992188,335.25299072265625 676.9580078125,336.62200927734375 C679.5120239257812,337.9909973144531 681.1069946289062,340.6520080566406 681.1099853515625,343.54998779296875 C673.4359741210938,364.31298828125 670.1530151367188,386.4429931640625 671.469970703125,408.5400085449219 C671.469970703125,408.5400085449219 671.469970703125,408.5400085449219 671.469970703125,408.5400085449219z"/></g><g opacity="1" transform="matrix(1,0,0,1,33.279998779296875,15.592002868652344)"><path fill="rgb(72,103,255)" fill-opacity="1" d=" M30.030000686645508,0 C30.030000686645508,0 30.030000686645508,95.58999633789062 30.030000686645508,95.58999633789062 C30.030000686645508,95.58999633789062 0,95.58999633789062 0,95.58999633789062 C0,95.58999633789062 0,0 0,0 C0,0 30.030000686645508,0 30.030000686645508,0z"/><path stroke-linecap="butt" stroke-linejoin="round" fill-opacity="0" stroke="rgb(28,31,36)" stroke-opacity="1" stroke-width="3" d=" M30.030000686645508,0 C30.030000686645508,0 30.030000686645508,95.58999633789062 30.030000686645508,95.58999633789062 C30.030000686645508,95.58999633789062 0,95.58999633789062 0,95.58999633789062 C0,95.58999633789062 0,0 0,0 C0,0 30.030000686645508,0 30.030000686645508,0z"/></g><g opacity="1" transform="matrix(1,0,0,1,116.24000549316406,15.592002868652344)"><path fill="rgb(72,103,255)" fill-opacity="1" d=" M30.030000686645508,0 C30.030000686645508,0 30.030000686645508,95.58999633789062 30.030000686645508,95.58999633789062 C30.030000686645508,95.58999633789062 0,95.58999633789062 0,95.58999633789062 C0,95.58999633789062 0,0 0,0 C0,0 30.030000686645508,0 30.030000686645508,0z"/><path stroke-linecap="butt" stroke-linejoin="round" fill-opacity="0" stroke="rgb(28,31,36)" stroke-opacity="1" stroke-width="3" d=" M30.030000686645508,0 C30.030000686645508,0 30.030000686645508,95.58999633789062 30.030000686645508,95.58999633789062 C30.030000686645508,95.58999633789062 0,95.58999633789062 0,95.58999633789062 C0,95.58999633789062 0,0 0,0 C0,0 30.030000686645508,0 30.030000686645508,0z"/></g></g></g></g></g></g><g id="Stars" opacity="1" transform="matrix(1,0,0,1,-175.8609619140625,-57.43700408935547)"><g opacity="1" transform="matrix(1,0,0,1,0,0)"><path fill="rgb(255,255,255)" fill-opacity="1" d=" M661.9000244140625,132.7100067138672 C661.9000244140625,132.7100067138672 672.9000244140625,152.85000610351562 672.9000244140625,152.85000610351562 C673.2210083007812,153.43099975585938 673.698974609375,153.90899658203125 674.280029296875,154.22999572753906 C674.280029296875,154.22999572753906 694.4199829101562,165.22999572753906 694.4199829101562,165.22999572753906 C695.5330200195312,165.83799743652344 696.2260131835938,167.00599670410156 696.2260131835938,168.27499389648438 C696.2260131835938,169.54400634765625 695.5330200195312,170.71200561523438 694.4199829101562,171.32000732421875 C694.4199829101562,171.32000732421875 674.280029296875,182.32000732421875 674.280029296875,182.32000732421875 C673.698974609375,182.64100646972656 673.2210083007812,183.11900329589844 672.9000244140625,183.6999969482422 C672.9000244140625,183.6999969482422 661.9000244140625,203.85000610351562 661.9000244140625,203.85000610351562 C661.2869873046875,204.95799255371094 660.1209716796875,205.64500427246094 658.85498046875,205.64500427246094 C657.5889892578125,205.64500427246094 656.4229736328125,204.95799255371094 655.8099975585938,203.85000610351562 C655.8099975585938,203.85000610351562 644.8099975585938,183.6999969482422 644.8099975585938,183.6999969482422 C644.489013671875,183.11900329589844 644.010986328125,182.64100646972656 643.4299926757812,182.32000732421875 C643.4299926757812,182.32000732421875 623.2899780273438,171.32000732421875 623.2899780273438,171.32000732421875 C622.177001953125,170.71200561523438 621.4840087890625,169.54400634765625 621.4840087890625,168.27499389648438 C621.4840087890625,167.00599670410156 622.177001953125,165.83799743652344 623.2899780273438,165.22999572753906 C623.2899780273438,165.22999572753906 643.4299926757812,154.22999572753906 643.4299926757812,154.22999572753906 C644.010986328125,153.90899658203125 644.489013671875,153.43099975585938 644.8099975585938,152.85000610351562 C644.8099975585938,152.85000610351562 655.8099975585938,132.7100067138672 655.8099975585938,132.7100067138672 C656.4180297851562,131.5970001220703 657.5859985351562,130.9040069580078 658.85498046875,130.9040069580078 C660.1240234375,130.9040069580078 661.2919921875,131.5970001220703 661.9000244140625,132.7100067138672 C661.9000244140625,132.7100067138672 661.9000244140625,132.7100067138672 661.9000244140625,132.7100067138672z"/><path stroke-linecap="butt" stroke-linejoin="round" fill-opacity="0" stroke="rgb(28,31,36)" stroke-opacity="1" stroke-width="3" d=" M661.9000244140625,132.7100067138672 C661.9000244140625,132.7100067138672 672.9000244140625,152.85000610351562 672.9000244140625,152.85000610351562 C673.2210083007812,153.43099975585938 673.698974609375,153.90899658203125 674.280029296875,154.22999572753906 C674.280029296875,154.22999572753906 694.4199829101562,165.22999572753906 694.4199829101562,165.22999572753906 C695.5330200195312,165.83799743652344 696.2260131835938,167.00599670410156 696.2260131835938,168.27499389648438 C696.2260131835938,169.54400634765625 695.5330200195312,170.71200561523438 694.4199829101562,171.32000732421875 C694.4199829101562,171.32000732421875 674.280029296875,182.32000732421875 674.280029296875,182.32000732421875 C673.698974609375,182.64100646972656 673.2210083007812,183.11900329589844 672.9000244140625,183.6999969482422 C672.9000244140625,183.6999969482422 661.9000244140625,203.85000610351562 661.9000244140625,203.85000610351562 C661.2869873046875,204.95799255371094 660.1209716796875,205.64500427246094 658.85498046875,205.64500427246094 C657.5889892578125,205.64500427246094 656.4229736328125,204.95799255371094 655.8099975585938,203.85000610351562 C655.8099975585938,203.85000610351562 644.8099975585938,183.6999969482422 644.8099975585938,183.6999969482422 C644.489013671875,183.11900329589844 644.010986328125,182.64100646972656 643.4299926757812,182.32000732421875 C643.4299926757812,182.32000732421875 623.2899780273438,171.32000732421875 623.2899780273438,171.32000732421875 C622.177001953125,170.71200561523438 621.4840087890625,169.54400634765625 621.4840087890625,168.27499389648438 C621.4840087890625,167.00599670410156 622.177001953125,165.83799743652344 623.2899780273438,165.22999572753906 C623.2899780273438,165.22999572753906 643.4299926757812,154.22999572753906 643.4299926757812,154.22999572753906 C644.010986328125,153.90899658203125 644.489013671875,153.43099975585938 644.8099975585938,152.85000610351562 C644.8099975585938,152.85000610351562 655.8099975585938,132.7100067138672 655.8099975585938,132.7100067138672 C656.4180297851562,131.5970001220703 657.5859985351562,130.9040069580078 658.85498046875,130.9040069580078 C660.1240234375,130.9040069580078 661.2919921875,131.5970001220703 661.9000244140625,132.7100067138672 C661.9000244140625,132.7100067138672 661.9000244140625,132.7100067138672 661.9000244140625,132.7100067138672z"/></g><g opacity="1" transform="matrix(1.056606411933899,0,0,1.056606411933899,-40.29638671875,-12.671905517578125)"><path fill="rgb(29,31,37)" fill-opacity="1" d=" M713.1400146484375,209 C713.1400146484375,209 717.739990234375,217.41000366210938 717.739990234375,217.41000366210938 C717.8800048828125,217.64999389648438 718.0800170898438,217.85000610351562 718.3200073242188,217.99000549316406 C718.3200073242188,217.99000549316406 726.72998046875,222.58999633789062 726.72998046875,222.58999633789062 C727.198974609375,222.83999633789062 727.4910278320312,223.32899475097656 727.4910278320312,223.86000061035156 C727.4910278320312,224.39100646972656 727.198974609375,224.8800048828125 726.72998046875,225.1300048828125 C726.72998046875,225.1300048828125 718.3200073242188,229.74000549316406 718.3200073242188,229.74000549316406 C718.0780029296875,229.8730010986328 717.8779907226562,230.0709991455078 717.739990234375,230.30999755859375 C717.739990234375,230.30999755859375 713.1400146484375,238.72999572753906 713.1400146484375,238.72999572753906 C712.885009765625,239.1929931640625 712.3980102539062,239.47999572753906 711.8699951171875,239.47999572753906 C711.3419799804688,239.47999572753906 710.85498046875,239.1929931640625 710.5999755859375,238.72999572753906 C710.5999755859375,238.72999572753906 706,230.30999755859375 706,230.30999755859375 C705.8690185546875,230.06900024414062 705.6710205078125,229.87100219726562 705.4299926757812,229.74000549316406 C705.4299926757812,229.74000549316406 697,225.1300048828125 697,225.1300048828125 C696.5369873046875,224.875 696.25,224.38800048828125 696.25,223.86000061035156 C696.25,223.33200073242188 696.5369873046875,222.84500122070312 697,222.58999633789062 C697,222.58999633789062 705.4199829101562,217.99000549316406 705.4199829101562,217.99000549316406 C705.6589965820312,217.8520050048828 705.8569946289062,217.65199279785156 705.989990234375,217.41000366210938 C705.989990234375,217.41000366210938 710.5999755859375,209 710.5999755859375,209 C710.8499755859375,208.531005859375 711.3389892578125,208.23899841308594 711.8699951171875,208.23899841308594 C712.4010009765625,208.23899841308594 712.8900146484375,208.531005859375 713.1400146484375,209 C713.1400146484375,209 713.1400146484375,209 713.1400146484375,209z"/></g></g></g></g></svg>