<svg xmlns="http://www.w3.org/2000/svg" viewBox="0 0 900 600" preserveAspectRatio="xMidYMid slice" style="width: 100%; height: 100%; transform: translate3d(0px, 0px, 0px);"><defs><clipPath id="__lottie_element_218"><rect width="900" height="600" x="0" y="0"/></clipPath></defs><g clip-path="url(#__lottie_element_218)"><g id="Animation-1" transform="matrix(1,0,0,1,-37.760009765625,126.51898193359375)" opacity="1" style="display: block;"><g id="BASE" opacity="1" transform="matrix(1,0,0,1,19.735992431640625,-280.25)"><g opacity="1" transform="matrix(1,0,0,1,0,0)"><path fill="rgb(255,255,255)" fill-opacity="1" d=" M169.89999389648438,551 C169.89999389648438,551 821.8300170898438,551 821.8300170898438,551 C831.0570068359375,551 839.905029296875,554.6669921875 846.427001953125,561.1950073242188 C852.947998046875,567.7219848632812 856.6079711914062,576.572998046875 856.5999755859375,585.7999877929688 C856.5999755859375,585.7999877929688 856.5999755859375,710.9400024414062 856.5999755859375,710.9400024414062 C856.5830078125,733.0689697265625 838.6389770507812,751 816.510009765625,751 C816.510009765625,751 192.69000244140625,751 192.69000244140625,751 C167.77099609375,751 147.57000732421875,730.7990112304688 147.57000732421875,705.8800048828125 C147.57000732421875,705.8800048828125 147.57000732421875,573.3599853515625 147.57000732421875,573.3599853515625 C147.56199645996094,567.4329833984375 149.91099548339844,561.7449951171875 154.10000610351562,557.551025390625 C158.28799438476562,553.3569946289062 163.97300720214844,551 169.89999389648438,551 C169.89999389648438,551 169.89999389648438,551 169.89999389648438,551z"/><path stroke-linecap="butt" stroke-linejoin="miter" fill-opacity="0" stroke-miterlimit="10" stroke="rgb(28,31,36)" stroke-opacity="1" stroke-width="3" d=" M169.89999389648438,551 C169.89999389648438,551 821.8300170898438,551 821.8300170898438,551 C831.0570068359375,551 839.905029296875,554.6669921875 846.427001953125,561.1950073242188 C852.947998046875,567.7219848632812 856.6079711914062,576.572998046875 856.5999755859375,585.7999877929688 C856.5999755859375,585.7999877929688 856.5999755859375,710.9400024414062 856.5999755859375,710.9400024414062 C856.5830078125,733.0689697265625 838.6389770507812,751 816.510009765625,751 C816.510009765625,751 192.69000244140625,751 192.69000244140625,751 C167.77099609375,751 147.57000732421875,730.7990112304688 147.57000732421875,705.8800048828125 C147.57000732421875,705.8800048828125 147.57000732421875,573.3599853515625 147.57000732421875,573.3599853515625 C147.56199645996094,567.4329833984375 149.91099548339844,561.7449951171875 154.10000610351562,557.551025390625 C158.28799438476562,553.3569946289062 163.97300720214844,551 169.89999389648438,551 C169.89999389648438,551 169.89999389648438,551 169.89999389648438,551z"/></g><g opacity="1" transform="matrix(1,0,0,1,0,0)"><path fill="rgb(255,255,255)" fill-opacity="1" d=" M418.8599853515625,618.4500122070312 C418.8599853515625,618.4500122070312 606.2899780273438,750.4500122070312 606.2899780273438,750.4500122070312 C606.2899780273438,750.4500122070312 816.510009765625,750.4500122070312 816.510009765625,750.4500122070312 C827.1430053710938,750.4500122070312 837.3400268554688,746.2260131835938 844.8579711914062,738.7080078125 C852.3759765625,731.1900024414062 856.5999755859375,720.9929809570312 856.5999755859375,710.3599853515625 C856.5999755859375,710.3599853515625 856.5999755859375,634.3300170898438 856.5999755859375,634.3300170898438 C856.5999755859375,625.5599975585938 849.489990234375,618.4500122070312 840.719970703125,618.4500122070312 C840.719970703125,618.4500122070312 418.8599853515625,618.4500122070312 418.8599853515625,618.4500122070312z"/><path stroke-linecap="round" stroke-linejoin="round" fill-opacity="0" stroke="rgb(28,31,36)" stroke-opacity="1" stroke-width="3" d=" M418.8599853515625,618.4500122070312 C418.8599853515625,618.4500122070312 606.2899780273438,750.4500122070312 606.2899780273438,750.4500122070312 C606.2899780273438,750.4500122070312 816.510009765625,750.4500122070312 816.510009765625,750.4500122070312 C827.1430053710938,750.4500122070312 837.3400268554688,746.2260131835938 844.8579711914062,738.7080078125 C852.3759765625,731.1900024414062 856.5999755859375,720.9929809570312 856.5999755859375,710.3599853515625 C856.5999755859375,710.3599853515625 856.5999755859375,634.3300170898438 856.5999755859375,634.3300170898438 C856.5999755859375,625.5599975585938 849.489990234375,618.4500122070312 840.719970703125,618.4500122070312 C840.719970703125,618.4500122070312 418.8599853515625,618.4500122070312 418.8599853515625,618.4500122070312z"/></g><g opacity="1" transform="matrix(1,0,0,1,0,0)"><path fill="rgb(255,255,255)" fill-opacity="1" d=" M418.260009765625,751.030029296875 C418.260009765625,751.030029296875 418.260009765625,618.4500122070312 418.260009765625,618.4500122070312 C418.260009765625,618.4500122070312 606.4500122070312,751.030029296875 606.4500122070312,751.030029296875 C606.4500122070312,751.030029296875 418.260009765625,751.030029296875 418.260009765625,751.030029296875 C418.260009765625,751.030029296875 418.260009765625,751.030029296875 418.260009765625,751.030029296875z"/><path stroke-linecap="round" stroke-linejoin="round" fill-opacity="0" stroke="rgb(28,31,36)" stroke-opacity="1" stroke-width="3" d=" M418.260009765625,751.030029296875 C418.260009765625,751.030029296875 418.260009765625,618.4500122070312 418.260009765625,618.4500122070312 C418.260009765625,618.4500122070312 606.4500122070312,751.030029296875 606.4500122070312,751.030029296875 C606.4500122070312,751.030029296875 418.260009765625,751.030029296875 418.260009765625,751.030029296875 C418.260009765625,751.030029296875 418.260009765625,751.030029296875 418.260009765625,751.030029296875z"/></g><g opacity="1" transform="matrix(1,0,0,1,0,0)"><path fill="rgb(255,255,255)" fill-opacity="1" d=" M434.739990234375,751 C434.739990234375,751 434.739990234375,697.719970703125 434.739990234375,697.719970703125 C434.7439880371094,695.7899780273438 435.81500244140625,694.02001953125 437.52301025390625,693.1209716796875 C439.2309875488281,692.2219848632812 441.2959899902344,692.3410034179688 442.8900146484375,693.4299926757812 C442.8900146484375,693.4299926757812 526.8099975585938,751 526.8099975585938,751 C526.8099975585938,751 434.739990234375,751 434.739990234375,751z"/><path stroke-linecap="round" stroke-linejoin="round" fill-opacity="0" stroke="rgb(28,31,36)" stroke-opacity="1" stroke-width="3" d=" M434.739990234375,751 C434.739990234375,751 434.739990234375,697.719970703125 434.739990234375,697.719970703125 C434.7439880371094,695.7899780273438 435.81500244140625,694.02001953125 437.52301025390625,693.1209716796875 C439.2309875488281,692.2219848632812 441.2959899902344,692.3410034179688 442.8900146484375,693.4299926757812 C442.8900146484375,693.4299926757812 526.8099975585938,751 526.8099975585938,751 C526.8099975585938,751 434.739990234375,751 434.739990234375,751z"/></g><g opacity="1" transform="matrix(1,0,0,1,0,0)"><path fill="rgb(29,31,37)" fill-opacity="1" d=" M691.1900024414062,622.5900268554688 C691.1900024414062,622.5900268554688 614.8400268554688,649.5399780273438 614.8400268554688,649.5399780273438 C610.9840087890625,650.9149780273438 608.2760009765625,654.4019775390625 607.8980102539062,658.47802734375 C607.52099609375,662.5549926757812 609.5419921875,666.47998046875 613.0800170898438,668.5399780273438 C613.0800170898438,668.5399780273438 650.719970703125,690.25 650.719970703125,690.25 C657.22900390625,694.0029907226562 665.0609741210938,694.697998046875 672.1300048828125,692.1500244140625 C672.1300048828125,692.1500244140625 754.7100219726562,662.3699951171875 754.7100219726562,662.3699951171875 C754.7100219726562,662.3699951171875 691.1900024414062,622.5900268554688 691.1900024414062,622.5900268554688z"/></g><g opacity="1" transform="matrix(1,0,0,1,0,0)"><path fill="rgb(255,255,255)" fill-opacity="1" d=" M754.3499755859375,656.77001953125 C754.3499755859375,656.77001953125 711.75,672.1300048828125 711.75,672.1300048828125 C711.75,672.1300048828125 671.75,686.5399780273438 671.75,686.5399780273438 C664.6829833984375,689.094970703125 656.8499755859375,688.4039916992188 650.3400268554688,684.6500244140625 C650.3400268554688,684.6500244140625 612.7000122070312,662.9400024414062 612.7000122070312,662.9400024414062 C609.1619873046875,660.8800048828125 607.1409912109375,656.9550170898438 607.5180053710938,652.8779907226562 C607.89599609375,648.802001953125 610.60400390625,645.3150024414062 614.4600219726562,643.9400024414062 C614.4600219726562,643.9400024414062 666.1400146484375,625.7000122070312 666.1400146484375,625.7000122070312 C666.1400146484375,625.7000122070312 690.8400268554688,617 690.8400268554688,617 C690.8400268554688,617 754.3499755859375,656.77001953125 754.3499755859375,656.77001953125z"/><path stroke-linecap="butt" stroke-linejoin="miter" fill-opacity="0" stroke-miterlimit="10" stroke="rgb(28,31,36)" stroke-opacity="1" stroke-width="3" d=" M754.3499755859375,656.77001953125 C754.3499755859375,656.77001953125 711.75,672.1300048828125 711.75,672.1300048828125 C711.75,672.1300048828125 671.75,686.5399780273438 671.75,686.5399780273438 C664.6829833984375,689.094970703125 656.8499755859375,688.4039916992188 650.3400268554688,684.6500244140625 C650.3400268554688,684.6500244140625 612.7000122070312,662.9400024414062 612.7000122070312,662.9400024414062 C609.1619873046875,660.8800048828125 607.1409912109375,656.9550170898438 607.5180053710938,652.8779907226562 C607.89599609375,648.802001953125 610.60400390625,645.3150024414062 614.4600219726562,643.9400024414062 C614.4600219726562,643.9400024414062 666.1400146484375,625.7000122070312 666.1400146484375,625.7000122070312 C666.1400146484375,625.7000122070312 690.8400268554688,617 690.8400268554688,617 C690.8400268554688,617 754.3499755859375,656.77001953125 754.3499755859375,656.77001953125z"/></g><g opacity="1" transform="matrix(1,0,0,1,0,0)"><path fill="rgb(29,31,37)" fill-opacity="1" d=" M754.3499755859375,656.77001953125 C754.3499755859375,656.77001953125 711.75,672.1300048828125 711.75,672.1300048828125 C711.75,672.1300048828125 666.1699829101562,625.6699829101562 666.1699829101562,625.6699829101562 C666.1699829101562,625.6699829101562 690.8400268554688,616.9600219726562 690.8400268554688,616.9600219726562 C690.8400268554688,616.9600219726562 754.3499755859375,656.77001953125 754.3499755859375,656.77001953125 C754.3499755859375,656.77001953125 754.3499755859375,656.77001953125 754.3499755859375,656.77001953125z"/></g><g opacity="1" transform="matrix(1,0,0,1,0,0)"><path fill="rgb(28,31,36)" fill-opacity="1" d=" M812.6799926757812,707 C812.5499877929688,707.0009765625 812.4240112304688,706.9509887695312 812.3300170898438,706.8599853515625 C812.2319946289062,706.7620239257812 812.177978515625,706.6290283203125 812.1799926757812,706.489990234375 C812.1799926757812,706.489990234375 812.22998046875,701.8499755859375 812.22998046875,701.8499755859375 C812.22998046875,701.8499755859375 569.22998046875,560.8499755859375 569.22998046875,560.8499755859375 C564.6589965820312,558.1939697265625 562.06298828125,553.1110229492188 562.5900268554688,547.8499755859375 C562.5900268554688,547.8499755859375 582.7899780273438,346.8500061035156 582.7899780273438,346.8500061035156 C583.25,342.260009765625 585.5789794921875,338.0610046386719 589.22998046875,335.239990234375 C589.22998046875,335.239990234375 584.6300048828125,331.7099914550781 584.6300048828125,331.7099914550781 C584.4559936523438,331.5719909667969 584.3909912109375,331.3380126953125 584.469970703125,331.1300048828125 C584.5449829101562,330.9360046386719 584.7319946289062,330.8089904785156 584.9400024414062,330.80999755859375 C584.9400024414062,330.80999755859375 597.9400024414062,331.80999755859375 597.9400024414062,331.80999755859375 C598.2899780273438,331.80999755859375 598.72998046875,331.739990234375 599.1699829101562,331.7300109863281 C599.1699829101562,331.7300109863281 599.52001953125,331.7300109863281 599.52001953125,331.7300109863281 C601.3350219726562,331.7300109863281 603.1389770507812,332.02398681640625 604.8599853515625,332.6000061035156 C604.8599853515625,332.6000061035156 854.510009765625,416.1099853515625 854.510009765625,416.1099853515625 C860.4949951171875,418.0840148925781 864.2960205078125,423.9620056152344 863.6400146484375,430.2300109863281 C863.6400146484375,430.2300109863281 837.0599975585938,694.25 837.0599975585938,694.25 C836.3770141601562,701.0889892578125 830.6530151367188,706.3170166015625 823.780029296875,706.3800048828125 C823.780029296875,706.3800048828125 812.6799926757812,707 812.6799926757812,707z"/></g><g opacity="1" transform="matrix(1,0,0,1,0,0)"><path fill="rgb(28,31,36)" fill-opacity="1" d=" M584.9400024414062,330.2799987792969 C584.5130004882812,330.281005859375 584.1339721679688,330.5530090332031 583.9970092773438,330.9570007324219 C583.8590087890625,331.3609924316406 583.9929809570312,331.8080139160156 584.3300170898438,332.07000732421875 C584.3300170898438,332.07000732421875 588.4199829101562,335.2200012207031 588.4199829101562,335.2200012207031 C584.9450073242188,338.1199951171875 582.7449951171875,342.2669982910156 582.2899780273438,346.7699890136719 C582.2899780273438,346.7699890136719 562.0900268554688,547.77001953125 562.0900268554688,547.77001953125 C561.5579833984375,553.2260131835938 564.2579956054688,558.489990234375 569,561.239990234375 C569,561.239990234375 811.72998046875,702.1300048828125 811.72998046875,702.1300048828125 C811.72998046875,702.1300048828125 811.6799926757812,706.469970703125 811.6799926757812,706.469970703125 C811.6799926757812,707.02197265625 812.1279907226562,707.469970703125 812.6799926757812,707.469970703125 C812.6799926757812,707.469970703125 812.72998046875,707.469970703125 812.72998046875,707.469970703125 C812.72998046875,707.469970703125 823.7899780273438,706.8699951171875 823.7899780273438,706.8699951171875 C823.7899780273438,706.8699951171875 823.7899780273438,706.8699951171875 823.7899780273438,706.8699951171875 C830.9080200195312,706.7849731445312 836.8289794921875,701.3720092773438 837.5499877929688,694.2899780273438 C837.5499877929688,694.2899780273438 864.0800170898438,430.2900085449219 864.0800170898438,430.2900085449219 C864.7630004882812,423.7900085449219 860.8250122070312,417.6919860839844 854.6199951171875,415.6400146484375 C854.6199951171875,415.6400146484375 605,332.1000061035156 605,332.1000061035156 C603.2269897460938,331.5039978027344 601.3699951171875,331.20001220703125 599.5,331.20001220703125 C599.5,331.20001220703125 599.1400146484375,331.20001220703125 599.1400146484375,331.20001220703125 C598.75,331.20001220703125 598.3300170898438,331.20001220703125 597.8699951171875,331.2799987792969 C597.8699951171875,331.2799987792969 585.030029296875,330.2799987792969 585.030029296875,330.2799987792969 C585.030029296875,330.2799987792969 584.9400024414062,330.2799987792969 584.9400024414062,330.2799987792969z M584.9400024414062,331.2799987792969 C584.9400024414062,331.2799987792969 597.8699951171875,332.2799987792969 597.8699951171875,332.2799987792969 C598.2899780273438,332.2799987792969 598.7100219726562,332.2099914550781 599.1400146484375,332.20001220703125 C599.1400146484375,332.20001220703125 599.47998046875,332.20001220703125 599.47998046875,332.20001220703125 C601.2410278320312,332.20098876953125 602.9910278320312,332.4880065917969 604.6599731445312,333.04998779296875 C604.6599731445312,333.04998779296875 854.3099975585938,416.54998779296875 854.3099975585938,416.54998779296875 C860.0499877929688,418.48199462890625 863.6959838867188,424.12298583984375 863.0999755859375,430.1499938964844 C863.0999755859375,430.1499938964844 836.5599975585938,694.2000122070312 836.5599975585938,694.2000122070312 C835.8870239257812,700.7949829101562 830.3590087890625,705.8280029296875 823.72998046875,705.8800048828125 C823.72998046875,705.8800048828125 823.72998046875,705.8800048828125 823.72998046875,705.8800048828125 C823.72998046875,705.8800048828125 812.6799926757812,706.489990234375 812.6799926757812,706.489990234375 C812.6799926757812,706.489990234375 812.739990234375,701.5499877929688 812.739990234375,701.5499877929688 C812.739990234375,701.5499877929688 569.47998046875,560.3800048828125 569.47998046875,560.3800048828125 C565.0859985351562,557.8189697265625 562.5900268554688,552.9310302734375 563.0900268554688,547.8699951171875 C563.0900268554688,547.8699951171875 583.2899780273438,346.8699951171875 583.2899780273438,346.8699951171875 C583.7420043945312,342.1860046386719 586.2139892578125,337.9320068359375 590.0599975585938,335.2200012207031 C590.0599975585938,335.2200012207031 584.9400024414062,331.2799987792969 584.9400024414062,331.2799987792969"/></g><g opacity="1" transform="matrix(1,0,0,1,0,0)"><path fill="rgb(255,255,255)" fill-opacity="1" d=" M810.2999877929688,708.2100219726562 C807.7529907226562,708.1929931640625 805.2550048828125,707.5029907226562 803.0599975585938,706.2100219726562 C803.0599975585938,706.2100219726562 555.3900146484375,562.5 555.3900146484375,562.5 C550.468017578125,559.6400146484375 547.677978515625,554.1619873046875 548.260009765625,548.5 C548.260009765625,548.5 568.4600219726562,347.5 568.4600219726562,347.5 C568.9869995117188,342.1130065917969 571.9429931640625,337.260986328125 576.4879760742188,334.322998046875 C581.0339965820312,331.3840026855469 586.6719970703125,330.67999267578125 591.7999877929688,332.4100036621094 C591.7999877929688,332.4100036621094 841.4500122070312,416 841.4500122070312,416 C847.8790283203125,418.114990234375 851.9609985351562,424.4289855957031 851.25,431.1600036621094 C851.25,431.1600036621094 824.719970703125,695.1599731445312 824.719970703125,695.1599731445312 C824.0020141601562,702.5800170898438 817.7550048828125,708.2340087890625 810.2999877929688,708.2100219726562 C810.2999877929688,708.2100219726562 810.2999877929688,708.2100219726562 810.2999877929688,708.2100219726562z"/></g><g opacity="1" transform="matrix(1,0,0,1,0,0)"><path fill="rgb(28,31,36)" fill-opacity="1" d=" M586.1400146484375,330 C586.1400146484375,330 586.1400146484375,330 586.1400146484375,330 C576.2310180664062,329.9960021972656 567.9429931640625,337.5260009765625 567,347.3900146484375 C567,347.3900146484375 546.7999877929688,548.3900146484375 546.7999877929688,548.3900146484375 C546.1799926757812,554.6240234375 549.2559814453125,560.64697265625 554.6699829101562,563.7999877929688 C554.6699829101562,563.7999877929688 802.3099975585938,707.5399780273438 802.3099975585938,707.5399780273438 C807.0029907226562,710.2730102539062 812.7630004882812,710.4299926757812 817.5980224609375,707.9580078125 C822.4329833984375,705.4860229492188 825.677978515625,700.7239990234375 826.2100219726562,695.3200073242188 C826.2100219726562,695.3200073242188 852.75,431.2699890136719 852.75,431.2699890136719 C853.5250244140625,423.8380126953125 849.0170288085938,416.8689880371094 841.9199829101562,414.5299987792969 C841.9199829101562,414.5299987792969 592.280029296875,331 592.280029296875,331 C590.301025390625,330.33599853515625 588.2269897460938,329.9989929199219 586.1400146484375,330 C586.1400146484375,330 586.1400146484375,330 586.1400146484375,330z M586.1400146484375,333 C587.905029296875,333.0010070800781 589.656982421875,333.2879943847656 591.3300170898438,333.8500061035156 C591.3300170898438,333.8500061035156 841,417.3800048828125 841,417.3800048828125 C846.7360229492188,419.32501220703125 850.3699951171875,424.9739990234375 849.760009765625,431 C849.760009765625,431 823.22998046875,695 823.22998046875,695 C822.5579833984375,701.6370239257812 816.9710083007812,706.68798828125 810.2999877929688,706.6900024414062 C808.02099609375,706.6849975585938 805.7849731445312,706.0750122070312 803.8200073242188,704.9199829101562 C803.8200073242188,704.9199829101562 556.1500244140625,561.2100219726562 556.1500244140625,561.2100219726562 C551.7490234375,558.6500244140625 549.2479858398438,553.7570190429688 549.75,548.6900024414062 C549.75,548.6900024414062 569.9500122070312,347.69000244140625 569.9500122070312,347.69000244140625 C570.7760009765625,339.364013671875 577.7730102539062,333.0159912109375 586.1400146484375,333"/></g><g opacity="1" transform="matrix(1,0,0,1,0,0)"><path fill="rgb(72,103,255)" fill-opacity="1" d=" M829,439.4700012207031 C829,439.4700012207031 810.2000122070312,629 810.2000122070312,629 C810.0180053710938,630.8809814453125 808.916015625,632.5490112304688 807.2579956054688,633.4539794921875 C805.5989990234375,634.3590087890625 803.5999755859375,634.3839721679688 801.9199829101562,633.52001953125 C801.9199829101562,633.52001953125 775.75,620.1099853515625 775.75,620.1099853515625 C775.75,620.1099853515625 747.75,605.75 747.75,605.75 C747.75,605.75 592,525.9000244140625 592,525.9000244140625 C592,525.9000244140625 582.9000244140625,521.239990234375 582.9000244140625,521.239990234375 C582.9000244140625,521.239990234375 578,518.72998046875 578,518.72998046875 C575.9119873046875,517.6619873046875 574.6929931640625,515.4229736328125 574.9299926757812,513.0900268554688 C574.9299926757812,513.0900268554688 589.9299926757812,362.1700134277344 589.9299926757812,362.1700134277344 C590.1019897460938,360.4419860839844 591.051025390625,358.8869934082031 592.5079956054688,357.9429931640625 C593.9660034179688,357 595.7730102539062,356.7699890136719 597.4199829101562,357.32000732421875 C597.4199829101562,357.32000732421875 825.1699829101562,433.489990234375 825.1699829101562,433.489990234375 C827.6790161132812,434.35400390625 829.2650146484375,436.8299865722656 829,439.4700012207031 C829,439.4700012207031 829,439.4700012207031 829,439.4700012207031z"/><path stroke-linecap="butt" stroke-linejoin="miter" fill-opacity="0" stroke-miterlimit="10" stroke="rgb(28,31,36)" stroke-opacity="1" stroke-width="3" d=" M829,439.4700012207031 C829,439.4700012207031 810.2000122070312,629 810.2000122070312,629 C810.0180053710938,630.8809814453125 808.916015625,632.5490112304688 807.2579956054688,633.4539794921875 C805.5989990234375,634.3590087890625 803.5999755859375,634.3839721679688 801.9199829101562,633.52001953125 C801.9199829101562,633.52001953125 775.75,620.1099853515625 775.75,620.1099853515625 C775.75,620.1099853515625 747.75,605.75 747.75,605.75 C747.75,605.75 592,525.9000244140625 592,525.9000244140625 C592,525.9000244140625 582.9000244140625,521.239990234375 582.9000244140625,521.239990234375 C582.9000244140625,521.239990234375 578,518.72998046875 578,518.72998046875 C575.9119873046875,517.6619873046875 574.6929931640625,515.4229736328125 574.9299926757812,513.0900268554688 C574.9299926757812,513.0900268554688 589.9299926757812,362.1700134277344 589.9299926757812,362.1700134277344 C590.1019897460938,360.4419860839844 591.051025390625,358.8869934082031 592.5079956054688,357.9429931640625 C593.9660034179688,357 595.7730102539062,356.7699890136719 597.4199829101562,357.32000732421875 C597.4199829101562,357.32000732421875 825.1699829101562,433.489990234375 825.1699829101562,433.489990234375 C827.6790161132812,434.35400390625 829.2650146484375,436.8299865722656 829,439.4700012207031 C829,439.4700012207031 829,439.4700012207031 829,439.4700012207031z"/></g><g opacity="1" transform="matrix(0.40402430295944214,-0.9147482514381409,0.9147482514381409,0.40402430295944214,676.9176025390625,603.7363891601562)"><path fill="rgb(29,31,37)" fill-opacity="1" d=" M0,-11.199999809265137 C4.360010147094727,-11.199999809265137 7.900000095367432,-6.18127965927124 7.900000095367432,0 C7.900000095367432,6.18127965927124 4.360010147094727,11.199999809265137 0,11.199999809265137 C-4.360010147094727,11.199999809265137 -7.900000095367432,6.18127965927124 -7.900000095367432,0 C-7.900000095367432,-6.18127965927124 -4.360010147094727,-11.199999809265137 0,-11.199999809265137z"/></g></g><g id="Layer_3" opacity="1" transform="matrix(1,0,0,1,19.735992431640625,-280.25)"><g opacity="1" transform="matrix(1,0,0,1,0,0)"><path fill="rgb(255,255,255)" fill-opacity="1" d=" M430.6199951171875,336.8399963378906 C430.6199951171875,336.8399963378906 438.17999267578125,350.6700134277344 438.17999267578125,350.6700134277344 C438.3999938964844,351.07000732421875 438.7300109863281,351.3999938964844 439.1300048828125,351.6199951171875 C439.1300048828125,351.6199951171875 453,359.17999267578125 453,359.17999267578125 C453.7650146484375,359.59698486328125 454.2409973144531,360.39898681640625 454.2409973144531,361.2699890136719 C454.2409973144531,362.1409912109375 453.7650146484375,362.9429931640625 453,363.3599853515625 C453,363.3599853515625 439.1700134277344,370.92999267578125 439.1700134277344,370.92999267578125 C438.7720031738281,371.14898681640625 438.4429931640625,371.4750061035156 438.2200012207031,371.8699951171875 C438.2200012207031,371.8699951171875 430.6600036621094,385.70001220703125 430.6600036621094,385.70001220703125 C430.2430114746094,386.4649963378906 429.4410095214844,386.9410095214844 428.57000732421875,386.9410095214844 C427.6990051269531,386.9410095214844 426.8970031738281,386.4649963378906 426.4800109863281,385.70001220703125 C426.4800109863281,385.70001220703125 418.9200134277344,371.8699951171875 418.9200134277344,371.8699951171875 C418.6969909667969,371.4750061035156 418.3680114746094,371.14898681640625 417.9700012207031,370.92999267578125 C417.9700012207031,370.92999267578125 404.1400146484375,363.3599853515625 404.1400146484375,363.3599853515625 C403.375,362.9429931640625 402.89898681640625,362.1409912109375 402.89898681640625,361.2699890136719 C402.89898681640625,360.39898681640625 403.375,359.59698486328125 404.1400146484375,359.17999267578125 C404.1400146484375,359.17999267578125 417.9700012207031,351.6199951171875 417.9700012207031,351.6199951171875 C418.3699951171875,351.3999938964844 418.70001220703125,351.07000732421875 418.9200134277344,350.6700134277344 C418.9200134277344,350.6700134277344 426.4800109863281,336.8399963378906 426.4800109863281,336.8399963378906 C426.90301513671875,336.0950012207031 427.6929931640625,335.635009765625 428.54998779296875,335.635009765625 C429.4070129394531,335.635009765625 430.1969909667969,336.0950012207031 430.6199951171875,336.8399963378906 C430.6199951171875,336.8399963378906 430.6199951171875,336.8399963378906 430.6199951171875,336.8399963378906z"/><path stroke-linecap="butt" stroke-linejoin="miter" fill-opacity="0" stroke-miterlimit="10" stroke="rgb(28,31,36)" stroke-opacity="1" stroke-width="3" d=" M430.6199951171875,336.8399963378906 C430.6199951171875,336.8399963378906 438.17999267578125,350.6700134277344 438.17999267578125,350.6700134277344 C438.3999938964844,351.07000732421875 438.7300109863281,351.3999938964844 439.1300048828125,351.6199951171875 C439.1300048828125,351.6199951171875 453,359.17999267578125 453,359.17999267578125 C453.7650146484375,359.59698486328125 454.2409973144531,360.39898681640625 454.2409973144531,361.2699890136719 C454.2409973144531,362.1409912109375 453.7650146484375,362.9429931640625 453,363.3599853515625 C453,363.3599853515625 439.1700134277344,370.92999267578125 439.1700134277344,370.92999267578125 C438.7720031738281,371.14898681640625 438.4429931640625,371.4750061035156 438.2200012207031,371.8699951171875 C438.2200012207031,371.8699951171875 430.6600036621094,385.70001220703125 430.6600036621094,385.70001220703125 C430.2430114746094,386.4649963378906 429.4410095214844,386.9410095214844 428.57000732421875,386.9410095214844 C427.6990051269531,386.9410095214844 426.8970031738281,386.4649963378906 426.4800109863281,385.70001220703125 C426.4800109863281,385.70001220703125 418.9200134277344,371.8699951171875 418.9200134277344,371.8699951171875 C418.6969909667969,371.4750061035156 418.3680114746094,371.14898681640625 417.9700012207031,370.92999267578125 C417.9700012207031,370.92999267578125 404.1400146484375,363.3599853515625 404.1400146484375,363.3599853515625 C403.375,362.9429931640625 402.89898681640625,362.1409912109375 402.89898681640625,361.2699890136719 C402.89898681640625,360.39898681640625 403.375,359.59698486328125 404.1400146484375,359.17999267578125 C404.1400146484375,359.17999267578125 417.9700012207031,351.6199951171875 417.9700012207031,351.6199951171875 C418.3699951171875,351.3999938964844 418.70001220703125,351.07000732421875 418.9200134277344,350.6700134277344 C418.9200134277344,350.6700134277344 426.4800109863281,336.8399963378906 426.4800109863281,336.8399963378906 C426.90301513671875,336.0950012207031 427.6929931640625,335.635009765625 428.54998779296875,335.635009765625 C429.4070129394531,335.635009765625 430.1969909667969,336.0950012207031 430.6199951171875,336.8399963378906 C430.6199951171875,336.8399963378906 430.6199951171875,336.8399963378906 430.6199951171875,336.8399963378906z"/></g><g opacity="1" transform="matrix(1,0,0,1,0,0)"><path fill="rgb(29,31,37)" fill-opacity="1" d=" M465.79998779296875,389.2200012207031 C465.79998779296875,389.2200012207031 469,395 469,395 C469.09100341796875,395.16400146484375 469.22601318359375,395.29901123046875 469.3900146484375,395.3900146484375 C469.3900146484375,395.3900146484375 475.1700134277344,398.54998779296875 475.1700134277344,398.54998779296875 C475.4880065917969,398.72601318359375 475.6860046386719,399.0610046386719 475.6860046386719,399.42498779296875 C475.6860046386719,399.78900146484375 475.4880065917969,400.1239929199219 475.1700134277344,400.29998779296875 C475.1700134277344,400.29998779296875 469.3900146484375,403.4599914550781 469.3900146484375,403.4599914550781 C469.22198486328125,403.5509948730469 469.08599853515625,403.69000244140625 469,403.8599853515625 C469,403.8599853515625 465.8399963378906,409.6300048828125 465.8399963378906,409.6300048828125 C465.66400146484375,409.947998046875 465.3290100097656,410.14599609375 464.9649963378906,410.14599609375 C464.60101318359375,410.14599609375 464.2659912109375,409.947998046875 464.0899963378906,409.6300048828125 C464.0899963378906,409.6300048828125 460.92999267578125,403.8599853515625 460.92999267578125,403.8599853515625 C460.8380126953125,403.6910095214844 460.6990051269531,403.552001953125 460.5299987792969,403.4599914550781 C460.5299987792969,403.4599914550781 454.760009765625,400.29998779296875 454.760009765625,400.29998779296875 C454.4419860839844,400.1239929199219 454.2439880371094,399.78900146484375 454.2439880371094,399.42498779296875 C454.2439880371094,399.0610046386719 454.4419860839844,398.72601318359375 454.760009765625,398.54998779296875 C454.760009765625,398.54998779296875 460.5299987792969,395.3900146484375 460.5299987792969,395.3900146484375 C460.697998046875,395.3009948730469 460.83599853515625,395.1650085449219 460.92999267578125,395 C460.92999267578125,395 464.0899963378906,389.2200012207031 464.0899963378906,389.2200012207031 C464.27099609375,388.9209899902344 464.5950012207031,388.739013671875 464.94500732421875,388.739013671875 C465.2950134277344,388.739013671875 465.6189880371094,388.9209899902344 465.79998779296875,389.2200012207031 C465.79998779296875,389.2200012207031 465.79998779296875,389.2200012207031 465.79998779296875,389.2200012207031z"/></g><g opacity="1" transform="matrix(1,0,0,1,183.6699981689453,423.1300048828125)"><path fill="rgb(255,255,255)" fill-opacity="1" d=" M0,-4.800000190734863 C2.6491200923919678,-4.800000190734863 4.800000190734863,-2.6491200923919678 4.800000190734863,0 C4.800000190734863,2.6491200923919678 2.6491200923919678,4.800000190734863 0,4.800000190734863 C-2.6491200923919678,4.800000190734863 -4.800000190734863,2.6491200923919678 -4.800000190734863,0 C-4.800000190734863,-2.6491200923919678 -2.6491200923919678,-4.800000190734863 0,-4.800000190734863z"/><path stroke-linecap="butt" stroke-linejoin="miter" fill-opacity="0" stroke-miterlimit="10" stroke="rgb(28,31,36)" stroke-opacity="1" stroke-width="3" d=" M0,-4.800000190734863 C2.6491200923919678,-4.800000190734863 4.800000190734863,-2.6491200923919678 4.800000190734863,0 C4.800000190734863,2.6491200923919678 2.6491200923919678,4.800000190734863 0,4.800000190734863 C-2.6491200923919678,4.800000190734863 -4.800000190734863,2.6491200923919678 -4.800000190734863,0 C-4.800000190734863,-2.6491200923919678 -2.6491200923919678,-4.800000190734863 0,-4.800000190734863z"/></g><g opacity="1" transform="matrix(1,0,0,1,525.260009765625,365.6199951171875)"><path fill="rgb(255,255,255)" fill-opacity="1" d=" M0,-4.800000190734863 C2.6491200923919678,-4.800000190734863 4.800000190734863,-2.6491200923919678 4.800000190734863,0 C4.800000190734863,2.6491200923919678 2.6491200923919678,4.800000190734863 0,4.800000190734863 C-2.6491200923919678,4.800000190734863 -4.800000190734863,2.6491200923919678 -4.800000190734863,0 C-4.800000190734863,-2.6491200923919678 -2.6491200923919678,-4.800000190734863 0,-4.800000190734863z"/><path stroke-linecap="butt" stroke-linejoin="miter" fill-opacity="0" stroke-miterlimit="10" stroke="rgb(28,31,36)" stroke-opacity="1" stroke-width="3" d=" M0,-4.800000190734863 C2.6491200923919678,-4.800000190734863 4.800000190734863,-2.6491200923919678 4.800000190734863,0 C4.800000190734863,2.6491200923919678 2.6491200923919678,4.800000190734863 0,4.800000190734863 C-2.6491200923919678,4.800000190734863 -4.800000190734863,2.6491200923919678 -4.800000190734863,0 C-4.800000190734863,-2.6491200923919678 -2.6491200923919678,-4.800000190734863 0,-4.800000190734863z"/></g></g><g id="Hand-Left" opacity="1" transform="matrix(0.9890673160552979,-0.14746463298797607,0.14746463298797607,0.9890673160552979,336.8398742675781,156.5474853515625)"><g id="HL_2" opacity="1" transform="matrix(1,0,0,1,-326.67901611328125,-430.32000732421875)"><g opacity="1" transform="matrix(1,0,0,1,0,0)"><path fill="rgb(255,255,255)" fill-opacity="1" d=" M363.75,623.3599853515625 C363.75,623.3599853515625 328.80999755859375,498.489990234375 328.80999755859375,498.489990234375 C328.32501220703125,497.0669860839844 327.9179992675781,495.6180114746094 327.5899963378906,494.1499938964844 C322.9590148925781,472.8869934082031 336.4419860839844,451.89599609375 357.7049865722656,447.2650146484375 C378.9679870605469,442.6340026855469 399.9590148925781,456.11700439453125 404.5899963378906,477.3800048828125 C404.9049987792969,478.8489990234375 405.1390075683594,480.3349914550781 405.2900085449219,481.8299865722656 C405.2900085449219,481.8299865722656 425.42999267578125,609.9299926757812 425.42999267578125,609.9299926757812 C429.1390075683594,626.9619750976562 418.3370056152344,643.7760009765625 401.30499267578125,647.4849853515625 C384.27301025390625,651.1939697265625 367.4590148925781,640.3920288085938 363.75,623.3599853515625 C363.75,623.3599853515625 363.75,623.3599853515625 363.75,623.3599853515625z"/><path stroke-linecap="butt" stroke-linejoin="miter" fill-opacity="0" stroke-miterlimit="10" stroke="rgb(28,31,36)" stroke-opacity="1" stroke-width="3" d=" M363.75,623.3599853515625 C363.75,623.3599853515625 328.80999755859375,498.489990234375 328.80999755859375,498.489990234375 C328.32501220703125,497.0669860839844 327.9179992675781,495.6180114746094 327.5899963378906,494.1499938964844 C322.9590148925781,472.8869934082031 336.4419860839844,451.89599609375 357.7049865722656,447.2650146484375 C378.9679870605469,442.6340026855469 399.9590148925781,456.11700439453125 404.5899963378906,477.3800048828125 C404.9049987792969,478.8489990234375 405.1390075683594,480.3349914550781 405.2900085449219,481.8299865722656 C405.2900085449219,481.8299865722656 425.42999267578125,609.9299926757812 425.42999267578125,609.9299926757812 C429.1390075683594,626.9619750976562 418.3370056152344,643.7760009765625 401.30499267578125,647.4849853515625 C384.27301025390625,651.1939697265625 367.4590148925781,640.3920288085938 363.75,623.3599853515625 C363.75,623.3599853515625 363.75,623.3599853515625 363.75,623.3599853515625z"/></g></g><g id="HL_1" opacity="1" transform="matrix(0.9991017580032349,0.04237502068281174,-0.04237502068281174,0.9991017580032349,-300.34649658203125,-446.59228515625)"><g opacity="1" transform="matrix(1,0,0,1,0,0)"><path fill="rgb(255,255,255)" fill-opacity="1" d=" M497.07000732421875,471.3399963378906 C497.07000732421875,471.3399963378906 522.6300048828125,439.5899963378906 522.6300048828125,439.5899963378906 C523.2630004882812,438.7980041503906 524.3280029296875,438.4930114746094 525.2839965820312,438.83099365234375 C526.239990234375,439.16900634765625 526.8759765625,440.07598876953125 526.8699951171875,441.0899963378906 C526.8699951171875,441.0899963378906 526.8699951171875,451.5799865722656 526.8699951171875,451.5799865722656 C526.8690185546875,452.5469970703125 527.4459838867188,453.4200134277344 528.3350219726562,453.79901123046875 C529.2239990234375,454.1780090332031 530.2529907226562,453.989990234375 530.9500122070312,453.32000732421875 C530.9500122070312,453.32000732421875 553.469970703125,431.6199951171875 553.469970703125,431.6199951171875 C554.8900146484375,430.260009765625 557.0079956054688,429.9330139160156 558.77197265625,430.8009948730469 C560.5360107421875,431.6679992675781 561.5700073242188,433.5450134277344 561.3599853515625,435.5 C561.3599853515625,435.5 560,447.82000732421875 560,447.82000732421875 C558.6179809570312,460.53399658203125 553.0540161132812,472.42999267578125 544.1799926757812,481.6400146484375 C544.1799926757812,481.6400146484375 526.8599853515625,499.6400146484375 526.8599853515625,499.6400146484375 C526.8599853515625,499.6400146484375 497.07000732421875,471.3399963378906 497.07000732421875,471.3399963378906z"/><path stroke-linecap="butt" stroke-linejoin="miter" fill-opacity="0" stroke-miterlimit="10" stroke="rgb(28,31,36)" stroke-opacity="1" stroke-width="3" d=" M497.07000732421875,471.3399963378906 C497.07000732421875,471.3399963378906 522.6300048828125,439.5899963378906 522.6300048828125,439.5899963378906 C523.2630004882812,438.7980041503906 524.3280029296875,438.4930114746094 525.2839965820312,438.83099365234375 C526.239990234375,439.16900634765625 526.8759765625,440.07598876953125 526.8699951171875,441.0899963378906 C526.8699951171875,441.0899963378906 526.8699951171875,451.5799865722656 526.8699951171875,451.5799865722656 C526.8690185546875,452.5469970703125 527.4459838867188,453.4200134277344 528.3350219726562,453.79901123046875 C529.2239990234375,454.1780090332031 530.2529907226562,453.989990234375 530.9500122070312,453.32000732421875 C530.9500122070312,453.32000732421875 553.469970703125,431.6199951171875 553.469970703125,431.6199951171875 C554.8900146484375,430.260009765625 557.0079956054688,429.9330139160156 558.77197265625,430.8009948730469 C560.5360107421875,431.6679992675781 561.5700073242188,433.5450134277344 561.3599853515625,435.5 C561.3599853515625,435.5 560,447.82000732421875 560,447.82000732421875 C558.6179809570312,460.53399658203125 553.0540161132812,472.42999267578125 544.1799926757812,481.6400146484375 C544.1799926757812,481.6400146484375 526.8599853515625,499.6400146484375 526.8599853515625,499.6400146484375 C526.8599853515625,499.6400146484375 497.07000732421875,471.3399963378906 497.07000732421875,471.3399963378906z"/></g><g opacity="1" transform="matrix(1,0,0,1,0,0)"><path fill="rgb(255,255,255)" fill-opacity="1" d=" M497.07000732421875,471.3399963378906 C497.07000732421875,471.3399963378906 526.8699951171875,499.6400146484375 526.8699951171875,499.6400146484375 C526.8699951171875,499.6400146484375 421.70001220703125,635.2100219726562 421.70001220703125,635.2100219726562 C421.2699890136719,635.7899780273438 420.8299865722656,636.3699951171875 420.3599853515625,636.9299926757812 C413.1130065917969,645.5689697265625 401.8080139160156,649.6849975585938 390.7030029296875,647.72802734375 C379.5979919433594,645.77099609375 370.3800048828125,638.0390014648438 366.52301025390625,627.4429931640625 C362.6650085449219,616.8469848632812 364.75299072265625,604.9990234375 372,596.3599853515625 C373.17999267578125,594.968017578125 374.4750061035156,593.677001953125 375.8699951171875,592.5 C375.8699951171875,592.5 497.07000732421875,471.3399963378906 497.07000732421875,471.3399963378906z"/><path stroke-linecap="butt" stroke-linejoin="miter" fill-opacity="0" stroke-miterlimit="10" stroke="rgb(28,31,36)" stroke-opacity="1" stroke-width="3" d=" M497.07000732421875,471.3399963378906 C497.07000732421875,471.3399963378906 526.8699951171875,499.6400146484375 526.8699951171875,499.6400146484375 C526.8699951171875,499.6400146484375 421.70001220703125,635.2100219726562 421.70001220703125,635.2100219726562 C421.2699890136719,635.7899780273438 420.8299865722656,636.3699951171875 420.3599853515625,636.9299926757812 C413.1130065917969,645.5689697265625 401.8080139160156,649.6849975585938 390.7030029296875,647.72802734375 C379.5979919433594,645.77099609375 370.3800048828125,638.0390014648438 366.52301025390625,627.4429931640625 C362.6650085449219,616.8469848632812 364.75299072265625,604.9990234375 372,596.3599853515625 C373.17999267578125,594.968017578125 374.4750061035156,593.677001953125 375.8699951171875,592.5 C375.8699951171875,592.5 497.07000732421875,471.3399963378906 497.07000732421875,471.3399963378906z"/></g></g></g><g id="BDY" opacity="1" transform="matrix(1,0,0,1,19.7349853515625,-280.2499694824219)"><g opacity="1" transform="matrix(1,0,0,1,0,0)"><path fill="rgb(29,31,37)" fill-opacity="1" d=" M394.0799865722656,704.4299926757812 C394.0799865722656,704.4299926757812 303,687.8400268554688 303,687.8400268554688 C303,687.8400268554688 217.86000061035156,704.4299926757812 217.86000061035156,704.4299926757812 C217.86000061035156,704.4299926757812 208.72000122070312,730.780029296875 211.9600067138672,750.5 C211.9600067138672,750.5 395.760009765625,750.5 395.760009765625,750.5 C395.760009765625,750.5 394.0799865722656,704.4299926757812 394.0799865722656,704.4299926757812z"/></g><g opacity="1" transform="matrix(1,0,0,1,0,0)"><path fill="rgb(255,255,255)" fill-opacity="1" d=" M394.0799865722656,517.5399780273438 C394.0799865722656,517.5399780273438 394.0799865722656,704.4299926757812 394.0799865722656,704.4299926757812 C363.7460021972656,727.2210083007812 324.5119934082031,734.5440063476562 288,724.22998046875 C288,724.22998046875 217.89999389648438,704.4299926757812 217.89999389648438,704.4299926757812 C217.89999389648438,704.4299926757812 217.6300048828125,694.0499877929688 217.6300048828125,694.0499877929688 C217.6300048828125,694.0499877929688 217.6300048828125,694.0499877929688 217.6300048828125,694.0499877929688 C217.6300048828125,694.0499877929688 213.8800048828125,548.6900024414062 213.8800048828125,548.6900024414062 C213.8800048828125,548.6900024414062 212.24000549316406,471.3500061035156 212.24000549316406,471.3500061035156 C212.24000549316406,471.3500061035156 211.9499969482422,457.5299987792969 211.9499969482422,457.5299987792969 C211.9499969482422,457.5299987792969 271.7300109863281,440.29998779296875 271.7300109863281,440.29998779296875 C271.7300109863281,440.29998779296875 280.17999267578125,437.5899963378906 280.17999267578125,437.5899963378906 C280.17999267578125,437.5899963378906 354.17999267578125,442.5199890136719 354.17999267578125,442.5199890136719 C357.4360046386719,443.80499267578125 360.52301025390625,445.4840087890625 363.3699951171875,447.5199890136719 C375.1000061035156,455.6300048828125 394.0799865722656,475.2699890136719 394.0799865722656,517.5399780273438 C394.0799865722656,517.5399780273438 394.0799865722656,517.5399780273438 394.0799865722656,517.5399780273438z"/><path stroke-linecap="butt" stroke-linejoin="miter" fill-opacity="0" stroke-miterlimit="10" stroke="rgb(28,31,36)" stroke-opacity="1" stroke-width="3" d=" M394.0799865722656,517.5399780273438 C394.0799865722656,517.5399780273438 394.0799865722656,704.4299926757812 394.0799865722656,704.4299926757812 C363.7460021972656,727.2210083007812 324.5119934082031,734.5440063476562 288,724.22998046875 C288,724.22998046875 217.89999389648438,704.4299926757812 217.89999389648438,704.4299926757812 C217.89999389648438,704.4299926757812 217.6300048828125,694.0499877929688 217.6300048828125,694.0499877929688 C217.6300048828125,694.0499877929688 217.6300048828125,694.0499877929688 217.6300048828125,694.0499877929688 C217.6300048828125,694.0499877929688 213.8800048828125,548.6900024414062 213.8800048828125,548.6900024414062 C213.8800048828125,548.6900024414062 212.24000549316406,471.3500061035156 212.24000549316406,471.3500061035156 C212.24000549316406,471.3500061035156 211.9499969482422,457.5299987792969 211.9499969482422,457.5299987792969 C211.9499969482422,457.5299987792969 271.7300109863281,440.29998779296875 271.7300109863281,440.29998779296875 C271.7300109863281,440.29998779296875 280.17999267578125,437.5899963378906 280.17999267578125,437.5899963378906 C280.17999267578125,437.5899963378906 354.17999267578125,442.5199890136719 354.17999267578125,442.5199890136719 C357.4360046386719,443.80499267578125 360.52301025390625,445.4840087890625 363.3699951171875,447.5199890136719 C375.1000061035156,455.6300048828125 394.0799865722656,475.2699890136719 394.0799865722656,517.5399780273438 C394.0799865722656,517.5399780273438 394.0799865722656,517.5399780273438 394.0799865722656,517.5399780273438z"/></g><g opacity="1" transform="matrix(1,0,0,1,226.64999389648438,540.5900268554688)"><path fill="rgb(72,103,255)" fill-opacity="1" d=" M167.42999267578125,0 C167.42999267578125,0 167.42999267578125,53.599998474121094 167.42999267578125,53.599998474121094 C167.42999267578125,53.599998474121094 0,53.599998474121094 0,53.599998474121094 C0,53.599998474121094 0,0 0,0 C0,0 167.42999267578125,0 167.42999267578125,0z"/><path stroke-linecap="butt" stroke-linejoin="miter" fill-opacity="0" stroke-miterlimit="10" stroke="rgb(28,31,36)" stroke-opacity="1" stroke-width="3" d=" M167.42999267578125,0 C167.42999267578125,0 167.42999267578125,53.599998474121094 167.42999267578125,53.599998474121094 C167.42999267578125,53.599998474121094 0,53.599998474121094 0,53.599998474121094 C0,53.599998474121094 0,0 0,0 C0,0 167.42999267578125,0 167.42999267578125,0z"/></g><g opacity="1" transform="matrix(1,0,0,1,0,0)"><path fill="rgb(255,255,255)" fill-opacity="1" d=" M354.1300048828125,442.510009765625 C354.1300048828125,442.510009765625 354.1300048828125,442.510009765625 354.1300048828125,442.510009765625 C351.0369873046875,449.47900390625 345.2130126953125,454.8689880371094 338.0260009765625,457.4150085449219 C330.8380126953125,459.96099853515625 322.9200134277344,459.43798828125 316.1300048828125,455.9700012207031 C316.1300048828125,455.9700012207031 280.19000244140625,437.5799865722656 280.19000244140625,437.5799865722656 C280.19000244140625,437.5799865722656 282,385.44000244140625 282,385.44000244140625 C282,385.44000244140625 282.2200012207031,379.0799865722656 282.2200012207031,379.0799865722656 C282.2200012207031,379.0799865722656 282.3399963378906,379.0799865722656 282.3399963378906,379.0799865722656 C282.3399963378906,379.0799865722656 346.79998779296875,386 346.79998779296875,386 C346.79998779296875,386 353.3399963378906,436.4100036621094 353.3399963378906,436.4100036621094 C353.3399963378906,436.4100036621094 354.1300048828125,442.510009765625 354.1300048828125,442.510009765625z"/><path stroke-linecap="butt" stroke-linejoin="miter" fill-opacity="0" stroke-miterlimit="10" stroke="rgb(28,31,36)" stroke-opacity="1" stroke-width="3" d=" M354.1300048828125,442.510009765625 C354.1300048828125,442.510009765625 354.1300048828125,442.510009765625 354.1300048828125,442.510009765625 C351.0369873046875,449.47900390625 345.2130126953125,454.8689880371094 338.0260009765625,457.4150085449219 C330.8380126953125,459.96099853515625 322.9200134277344,459.43798828125 316.1300048828125,455.9700012207031 C316.1300048828125,455.9700012207031 280.19000244140625,437.5799865722656 280.19000244140625,437.5799865722656 C280.19000244140625,437.5799865722656 282,385.44000244140625 282,385.44000244140625 C282,385.44000244140625 282.2200012207031,379.0799865722656 282.2200012207031,379.0799865722656 C282.2200012207031,379.0799865722656 282.3399963378906,379.0799865722656 282.3399963378906,379.0799865722656 C282.3399963378906,379.0799865722656 346.79998779296875,386 346.79998779296875,386 C346.79998779296875,386 353.3399963378906,436.4100036621094 353.3399963378906,436.4100036621094 C353.3399963378906,436.4100036621094 354.1300048828125,442.510009765625 354.1300048828125,442.510009765625z"/></g><g opacity="1" transform="matrix(1,0,0,1,0,0)"><path fill="rgb(29,31,37)" fill-opacity="1" d=" M353.3399963378906,436.4100036621094 C345.7799987792969,440.1199951171875 335.8599853515625,441.9100036621094 323.510009765625,438.0899963378906 C290.80999755859375,428 282,385.44000244140625 282,385.44000244140625 C282,385.44000244140625 282.3399963378906,379.1000061035156 282.3399963378906,379.1000061035156 C282.3399963378906,379.1000061035156 346.79998779296875,386 346.79998779296875,386 C346.79998779296875,386 353.3399963378906,436.4100036621094 353.3399963378906,436.4100036621094z"/></g></g><g id="Hand-Right" opacity="1" transform="matrix(0.8571673035621643,0.5150380730628967,-0.5150380730628967,0.8571673035621643,136.63214111328125,68.54795837402344)"><g opacity="1" transform="matrix(1,0,0,1,0,0)"><g id="HR_2" opacity="1" transform="matrix(1,0,0,1,-56.98199462890625,-423.15496826171875)"><g opacity="1" transform="matrix(1,0,0,1,0,0)"><path fill="rgb(255,255,255)" fill-opacity="1" d=" M233.77999877929688,632.8099975585938 C233.77999877929688,632.8099975585938 259.6300048828125,505.75 259.6300048828125,505.75 C263.3789978027344,491.60198974609375 258.97698974609375,476.5409851074219 248.197998046875,466.6400146484375 C237.41799926757812,456.739013671875 222.03900146484375,453.6289978027344 208.25900268554688,458.56500244140625 C194.47999572753906,463.5 184.57200622558594,475.6669921875 182.52999877929688,490.1600036621094 C182.31500244140625,491.64801025390625 182.18800354003906,493.1470031738281 182.14999389648438,494.6499938964844 C182.14999389648438,494.6499938964844 171.3000030517578,623.8599853515625 171.3000030517578,623.8599853515625 C169.59800720214844,635.0700073242188 174.0399932861328,646.3319702148438 182.93699645996094,653.3610229492188 C191.83299255371094,660.3900146484375 203.81700134277344,662.1069946289062 214.32899475097656,657.8579711914062 C224.8419952392578,653.6090087890625 232.26699829101562,644.0469970703125 233.77999877929688,632.8099975585938 C233.77999877929688,632.8099975585938 233.77999877929688,632.8099975585938 233.77999877929688,632.8099975585938z"/><path stroke-linecap="butt" stroke-linejoin="miter" fill-opacity="0" stroke-miterlimit="10" stroke="rgb(28,31,36)" stroke-opacity="1" stroke-width="3" d=" M233.77999877929688,632.8099975585938 C233.77999877929688,632.8099975585938 259.6300048828125,505.75 259.6300048828125,505.75 C263.3789978027344,491.60198974609375 258.97698974609375,476.5409851074219 248.197998046875,466.6400146484375 C237.41799926757812,456.739013671875 222.03900146484375,453.6289978027344 208.25900268554688,458.56500244140625 C194.47999572753906,463.5 184.57200622558594,475.6669921875 182.52999877929688,490.1600036621094 C182.31500244140625,491.64801025390625 182.18800354003906,493.1470031738281 182.14999389648438,494.6499938964844 C182.14999389648438,494.6499938964844 171.3000030517578,623.8599853515625 171.3000030517578,623.8599853515625 C169.59800720214844,635.0700073242188 174.0399932861328,646.3319702148438 182.93699645996094,653.3610229492188 C191.83299255371094,660.3900146484375 203.81700134277344,662.1069946289062 214.32899475097656,657.8579711914062 C224.8419952392578,653.6090087890625 232.26699829101562,644.0469970703125 233.77999877929688,632.8099975585938 C233.77999877929688,632.8099975585938 233.77999877929688,632.8099975585938 233.77999877929688,632.8099975585938z"/></g></g><g id="HR_1" opacity="1" transform="matrix(0.9774527549743652,-0.21115420758724213,0.21115420758724213,0.9774527549743652,-185.15245056152344,-366.70355224609375)"><g opacity="1" transform="matrix(1,0,0,1,0,0)"><path fill="rgb(255,255,255)" fill-opacity="1" d=" M139.72999572753906,462.6300048828125 C139.72999572753906,462.6300048828125 103.93000030517578,482.80999755859375 103.93000030517578,482.80999755859375 C103.93000030517578,482.80999755859375 172.83999633789062,639.9400024414062 172.83999633789062,639.9400024414062 C173.11000061035156,640.6099853515625 173.39999389648438,641.280029296875 173.72000122070312,641.9400024414062 C178.55599975585938,652.2260131835938 188.5489959716797,659.1170043945312 199.8820037841797,659.9810180664062 C211.21499633789062,660.844970703125 222.13699340820312,655.5479736328125 228.4759979248047,646.114013671875 C234.8159942626953,636.6799926757812 235.5919952392578,624.5659790039062 230.50999450683594,614.4000244140625 C229.70899963378906,612.760986328125 228.7729949951172,611.1920166015625 227.7100067138672,609.7100219726562 C227.7100067138672,609.7100219726562 139.72999572753906,462.6300048828125 139.72999572753906,462.6300048828125z"/><path stroke-linecap="butt" stroke-linejoin="miter" fill-opacity="0" stroke-miterlimit="10" stroke="rgb(28,31,36)" stroke-opacity="1" stroke-width="3" d=" M139.72999572753906,462.6300048828125 C139.72999572753906,462.6300048828125 103.93000030517578,482.80999755859375 103.93000030517578,482.80999755859375 C103.93000030517578,482.80999755859375 172.83999633789062,639.9400024414062 172.83999633789062,639.9400024414062 C173.11000061035156,640.6099853515625 173.39999389648438,641.280029296875 173.72000122070312,641.9400024414062 C178.55599975585938,652.2260131835938 188.5489959716797,659.1170043945312 199.8820037841797,659.9810180664062 C211.21499633789062,660.844970703125 222.13699340820312,655.5479736328125 228.4759979248047,646.114013671875 C234.8159942626953,636.6799926757812 235.5919952392578,624.5659790039062 230.50999450683594,614.4000244140625 C229.70899963378906,612.760986328125 228.7729949951172,611.1920166015625 227.7100067138672,609.7100219726562 C227.7100067138672,609.7100219726562 139.72999572753906,462.6300048828125 139.72999572753906,462.6300048828125z"/></g><g opacity="1" transform="matrix(1,0,0,1,0,0)"><path fill="rgb(255,255,255)" fill-opacity="1" d=" M123.05999755859375,442.4700012207031 C123.05999755859375,442.4700012207031 103.88999938964844,424.4700012207031 103.88999938964844,424.4700012207031 C102.97799682617188,423.6239929199219 101.61900329589844,423.4729919433594 100.54299926757812,424.0979919433594 C99.46800231933594,424.7229919433594 98.9260025024414,425.9779968261719 99.20999908447266,427.19000244140625 C99.20999908447266,427.19000244140625 101.11000061035156,435.05999755859375 101.11000061035156,435.05999755859375 C101.41200256347656,436.31500244140625 100.9729995727539,437.63299560546875 99.97799682617188,438.45599365234375 C98.98300170898438,439.27801513671875 97.60600280761719,439.4620056152344 96.43000030517578,438.92999267578125 C96.43000030517578,438.92999267578125 62.34000015258789,423.489990234375 62.34000015258789,423.489990234375 C60.702999114990234,422.7539978027344 58.775001525878906,423.26300048828125 57.71500015258789,424.7120056152344 C56.654998779296875,426.1600036621094 56.75299835205078,428.15301513671875 57.95000076293945,429.489990234375 C57.95000076293945,429.489990234375 103.94999694824219,482.80999755859375 103.94999694824219,482.80999755859375 C103.94999694824219,482.80999755859375 139.75,462.6300048828125 139.75,462.6300048828125 C139.75,462.6300048828125 139.75,462.6300048828125 139.75,462.6300048828125 C135.052001953125,455.2380065917969 129.44500732421875,448.4649963378906 123.05999755859375,442.4700012207031 C123.05999755859375,442.4700012207031 123.05999755859375,442.4700012207031 123.05999755859375,442.4700012207031z"/><path stroke-linecap="butt" stroke-linejoin="miter" fill-opacity="0" stroke-miterlimit="10" stroke="rgb(28,31,36)" stroke-opacity="1" stroke-width="3" d=" M123.05999755859375,442.4700012207031 C123.05999755859375,442.4700012207031 103.88999938964844,424.4700012207031 103.88999938964844,424.4700012207031 C102.97799682617188,423.6239929199219 101.61900329589844,423.4729919433594 100.54299926757812,424.0979919433594 C99.46800231933594,424.7229919433594 98.9260025024414,425.9779968261719 99.20999908447266,427.19000244140625 C99.20999908447266,427.19000244140625 101.11000061035156,435.05999755859375 101.11000061035156,435.05999755859375 C101.41200256347656,436.31500244140625 100.9729995727539,437.63299560546875 99.97799682617188,438.45599365234375 C98.98300170898438,439.27801513671875 97.60600280761719,439.4620056152344 96.43000030517578,438.92999267578125 C96.43000030517578,438.92999267578125 62.34000015258789,423.489990234375 62.34000015258789,423.489990234375 C60.702999114990234,422.7539978027344 58.775001525878906,423.26300048828125 57.71500015258789,424.7120056152344 C56.654998779296875,426.1600036621094 56.75299835205078,428.15301513671875 57.95000076293945,429.489990234375 C57.95000076293945,429.489990234375 103.94999694824219,482.80999755859375 103.94999694824219,482.80999755859375 C103.94999694824219,482.80999755859375 139.75,462.6300048828125 139.75,462.6300048828125 C139.75,462.6300048828125 139.75,462.6300048828125 139.75,462.6300048828125 C135.052001953125,455.2380065917969 129.44500732421875,448.4649963378906 123.05999755859375,442.4700012207031 C123.05999755859375,442.4700012207031 123.05999755859375,442.4700012207031 123.05999755859375,442.4700012207031z"/></g></g></g></g><g id="HEAD" opacity="1" transform="matrix(0.9986212849617004,0.05249281972646713,-0.05249281972646713,0.9986212849617004,40.03955078125,-295.2915954589844)"><g opacity="1" transform="matrix(1,0,0,1,0,0)"><path fill="rgb(255,255,255)" fill-opacity="1" d=" M361.79998779296875,319.05999755859375 C361.79998779296875,319.05999755859375 363.29998779296875,333.5299987792969 363.29998779296875,333.5299987792969 C363.29998779296875,333.5299987792969 367.44000244140625,373.6300048828125 367.44000244140625,373.6300048828125 C370.07000732421875,400.7300109863281 341.8599853515625,464.32000732421875 280.489990234375,386.32000732421875 C280.489990234375,386.32000732421875 268.489990234375,396.6400146484375 262.5899963378906,371.54998779296875 C261.989013671875,369.1549987792969 261.7200012207031,366.68798828125 261.7900085449219,364.2200012207031 C262.04998779296875,358.1300048828125 265.07000732421875,354.6499938964844 269.3999938964844,354.7099914550781 C273.1050109863281,354.8269958496094 276.4800109863281,356.8710021972656 278.29998779296875,360.1000061035156 C278.29998779296875,360.1000061035156 285.6700134277344,372.7900085449219 285.6700134277344,372.7900085449219 C287.04998779296875,364.1400146484375 286.82598876953125,355.3089904785156 285.010009765625,346.739990234375 C284.2659912109375,343.4119873046875 285.0679931640625,339.9259948730469 287.1910095214844,337.2569885253906 C289.3139953613281,334.5889892578125 292.5299987792969,333.02398681640625 295.94000244140625,333 C312.54998779296875,332.8699951171875 337.70001220703125,330.1000061035156 352.3699951171875,316.1099853515625 C353.8590087890625,314.70098876953125 355.9939880371094,314.2070007324219 357.95001220703125,314.8190002441406 C359.9070129394531,315.4309997558594 361.3789978027344,317.0539855957031 361.79998779296875,319.05999755859375 C361.79998779296875,319.05999755859375 361.79998779296875,319.05999755859375 361.79998779296875,319.05999755859375z"/><path stroke-linecap="butt" stroke-linejoin="miter" fill-opacity="0" stroke-miterlimit="10" stroke="rgb(28,31,36)" stroke-opacity="1" stroke-width="3" d=" M361.79998779296875,319.05999755859375 C361.79998779296875,319.05999755859375 363.29998779296875,333.5299987792969 363.29998779296875,333.5299987792969 C363.29998779296875,333.5299987792969 367.44000244140625,373.6300048828125 367.44000244140625,373.6300048828125 C370.07000732421875,400.7300109863281 341.8599853515625,464.32000732421875 280.489990234375,386.32000732421875 C280.489990234375,386.32000732421875 268.489990234375,396.6400146484375 262.5899963378906,371.54998779296875 C261.989013671875,369.1549987792969 261.7200012207031,366.68798828125 261.7900085449219,364.2200012207031 C262.04998779296875,358.1300048828125 265.07000732421875,354.6499938964844 269.3999938964844,354.7099914550781 C273.1050109863281,354.8269958496094 276.4800109863281,356.8710021972656 278.29998779296875,360.1000061035156 C278.29998779296875,360.1000061035156 285.6700134277344,372.7900085449219 285.6700134277344,372.7900085449219 C287.04998779296875,364.1400146484375 286.82598876953125,355.3089904785156 285.010009765625,346.739990234375 C284.2659912109375,343.4119873046875 285.0679931640625,339.9259948730469 287.1910095214844,337.2569885253906 C289.3139953613281,334.5889892578125 292.5299987792969,333.02398681640625 295.94000244140625,333 C312.54998779296875,332.8699951171875 337.70001220703125,330.1000061035156 352.3699951171875,316.1099853515625 C353.8590087890625,314.70098876953125 355.9939880371094,314.2070007324219 357.95001220703125,314.8190002441406 C359.9070129394531,315.4309997558594 361.3789978027344,317.0539855957031 361.79998779296875,319.05999755859375 C361.79998779296875,319.05999755859375 361.79998779296875,319.05999755859375 361.79998779296875,319.05999755859375z"/></g><g opacity="1" transform="matrix(1,0,0,1,0,0)"><path fill="rgb(29,31,37)" fill-opacity="1" d=" M369.1099853515625,313 C367.6390075683594,319.9729919433594 365.697998046875,326.8389892578125 363.29998779296875,333.54998779296875 C363.29998779296875,333.54998779296875 361.79998779296875,319.0799865722656 361.79998779296875,319.0799865722656 C361.3940124511719,317.06500244140625 359.927001953125,315.4289855957031 357.9679870605469,314.8059997558594 C356.0090026855469,314.1820068359375 353.8659973144531,314.6700134277344 352.3699951171875,316.0799865722656 C337.70001220703125,330.0799865722656 312.54998779296875,332.8399963378906 295.94000244140625,332.9700012207031 C292.5220031738281,332.989013671875 289.2959899902344,334.5570068359375 287.1700134277344,337.2330017089844 C285.0429992675781,339.9100036621094 284.2449951171875,343.406005859375 285,346.739990234375 C286.8160095214844,355.3089904785156 287.0400085449219,364.1400146484375 285.6600036621094,372.7900085449219 C285.6600036621094,372.7900085449219 278.29998779296875,360.1000061035156 278.29998779296875,360.1000061035156 C276.4800109863281,356.8710021972656 273.1050109863281,354.8269958496094 269.3999938964844,354.7099914550781 C265.07000732421875,354.6499938964844 262.04998779296875,358.1300048828125 261.7900085449219,364.2200012207031 C261.7900085449219,364.2200012207031 252.00999450683594,359.32000732421875 251.92999267578125,338.2200012207031 C251.85000610351562,317.1199951171875 269.260009765625,321.92999267578125 269.260009765625,321.92999267578125 C269.260009765625,321.92999267578125 263.8599853515625,266.92999267578125 311.8299865722656,289.17999267578125 C339.7200012207031,302.1000061035156 378.4200134277344,270.3699951171875 369.1099853515625,313 C369.1099853515625,313 369.1099853515625,313 369.1099853515625,313z"/></g></g><g id="b_hair" opacity="1" transform="matrix(0.9925461411476135,0.12186934053897858,-0.12186934053897858,0.9925461411476135,77.78668212890625,-360.36993408203125)"><g opacity="1" transform="matrix(1,0,0,1,0,0)"><path fill="rgb(29,31,37)" fill-opacity="1" d=" M712.9199829101562,331.3800048828125 C712.9199829101562,331.3800048828125 725.030029296875,325.7300109863281 735.4400024414062,357.3800048828125 C745.0800170898438,386.6400146484375 730.8099975585938,425.57000732421875 736.760009765625,476.5899963378906 C736.760009765625,476.5899963378906 675.280029296875,485.1400146484375 628.8300170898438,458.1199951171875 C628.8300170898438,458.1199951171875 642.2000122070312,410.2300109863281 640.8300170898438,379.6000061035156 C639.4600219726562,348.9700012207031 671.1300048828125,298 712.9199829101562,331.3800048828125 C712.9199829101562,331.3800048828125 712.9199829101562,331.3800048828125 712.9199829101562,331.3800048828125z"/></g></g><g id="body" opacity="1" transform="matrix(1,0,0,1,19.73602294921875,-280.25)"><g opacity="1" transform="matrix(1,0,0,1,0,0)"><path fill="rgb(255,255,255)" fill-opacity="1" d=" M775.75,620.0800170898438 C775.75,620.0800170898438 747.75,605.719970703125 747.75,605.719970703125 C747.75,605.719970703125 592,525.9000244140625 592,525.9000244140625 C594.3499755859375,519.47998046875 597.5499877929688,510.3900146484375 598.9400024414062,506.95001220703125 C609.510009765625,480.8800048828125 631.1900024414062,483.489990234375 631.1900024414062,483.489990234375 C631.1900024414062,483.489990234375 646.0800170898438,490.6400146484375 646.0800170898438,490.6400146484375 C646.0800170898438,490.6400146484375 680.6099853515625,487.30999755859375 680.6099853515625,487.30999755859375 C680.6099853515625,487.30999755859375 713.7999877929688,500.30999755859375 713.7999877929688,500.30999755859375 C713.7999877929688,500.30999755859375 728.4099731445312,497.3900146484375 728.4099731445312,497.3900146484375 C728.4099731445312,497.3900146484375 751.0999755859375,501.1400146484375 757.25,529.6099853515625 C761.0800170898438,547.4199829101562 770.7899780273438,595.469970703125 775.75,620.0800170898438 C775.75,620.0800170898438 775.75,620.0800170898438 775.75,620.0800170898438z"/><path stroke-linecap="butt" stroke-linejoin="miter" fill-opacity="0" stroke-miterlimit="10" stroke="rgb(28,31,36)" stroke-opacity="1" stroke-width="3" d=" M775.75,620.0800170898438 C775.75,620.0800170898438 747.75,605.719970703125 747.75,605.719970703125 C747.75,605.719970703125 592,525.9000244140625 592,525.9000244140625 C594.3499755859375,519.47998046875 597.5499877929688,510.3900146484375 598.9400024414062,506.95001220703125 C609.510009765625,480.8800048828125 631.1900024414062,483.489990234375 631.1900024414062,483.489990234375 C631.1900024414062,483.489990234375 646.0800170898438,490.6400146484375 646.0800170898438,490.6400146484375 C646.0800170898438,490.6400146484375 680.6099853515625,487.30999755859375 680.6099853515625,487.30999755859375 C680.6099853515625,487.30999755859375 713.7999877929688,500.30999755859375 713.7999877929688,500.30999755859375 C713.7999877929688,500.30999755859375 728.4099731445312,497.3900146484375 728.4099731445312,497.3900146484375 C728.4099731445312,497.3900146484375 751.0999755859375,501.1400146484375 757.25,529.6099853515625 C761.0800170898438,547.4199829101562 770.7899780273438,595.469970703125 775.75,620.0800170898438 C775.75,620.0800170898438 775.75,620.0800170898438 775.75,620.0800170898438z"/></g><g opacity="1" transform="matrix(1,0,0,1,0,0)"><path fill="rgb(255,255,255)" fill-opacity="1" d=" M678.6300048828125,497.739990234375 C678.6300048828125,497.739990234375 649.8599853515625,510.32000732421875 658.530029296875,521.469970703125 C672,538.8499755859375 678.6300048828125,497.739990234375 678.6300048828125,497.739990234375 C678.6300048828125,497.739990234375 678.6300048828125,497.739990234375 678.6300048828125,497.739990234375z"/><path stroke-linecap="butt" stroke-linejoin="miter" fill-opacity="0" stroke-miterlimit="10" stroke="rgb(28,31,36)" stroke-opacity="1" stroke-width="3" d=" M678.6300048828125,497.739990234375 C678.6300048828125,497.739990234375 649.8599853515625,510.32000732421875 658.530029296875,521.469970703125 C672,538.8499755859375 678.6300048828125,497.739990234375 678.6300048828125,497.739990234375 C678.6300048828125,497.739990234375 678.6300048828125,497.739990234375 678.6300048828125,497.739990234375z"/></g><g opacity="1" transform="matrix(1,0,0,1,0,0)"><path fill="rgb(255,255,255)" fill-opacity="1" d=" M681.0599975585938,498.0899963378906 C681.0599975585938,498.0899963378906 702.5499877929688,524.5700073242188 690.780029296875,530.0900268554688 C672.4400024414062,538.6400146484375 681.0599975585938,498.0899963378906 681.0599975585938,498.0899963378906 C681.0599975585938,498.0899963378906 681.0599975585938,498.0899963378906 681.0599975585938,498.0899963378906z"/><path stroke-linecap="butt" stroke-linejoin="miter" fill-opacity="0" stroke-miterlimit="10" stroke="rgb(28,31,36)" stroke-opacity="1" stroke-width="3" d=" M681.0599975585938,498.0899963378906 C681.0599975585938,498.0899963378906 702.5499877929688,524.5700073242188 690.780029296875,530.0900268554688 C672.4400024414062,538.6400146484375 681.0599975585938,498.0899963378906 681.0599975585938,498.0899963378906 C681.0599975585938,498.0899963378906 681.0599975585938,498.0899963378906 681.0599975585938,498.0899963378906z"/></g><g opacity="1" transform="matrix(1,0,0,1,0,0)"><path fill="rgb(255,255,255)" fill-opacity="1" d=" M656.9400024414062,482.6700134277344 C656.9400024414062,482.6700134277344 631.1599731445312,483.489990234375 631.1599731445312,483.489990234375 C631.1599731445312,483.489990234375 644.52001953125,502.8299865722656 644.52001953125,502.8299865722656 C652.3800048828125,514.22998046875 667.5999755859375,513.6599731445312 674.0599975585938,501.7300109863281 C674.0599975585938,501.7300109863281 679.0599975585938,492.510009765625 679.0599975585938,492.510009765625 C679.0599975585938,492.510009765625 663.8800048828125,482.1600036621094 663.8800048828125,482.1600036621094 C663.8800048828125,482.1600036621094 656.9400024414062,482.6700134277344 656.9400024414062,482.6700134277344z"/><path stroke-linecap="butt" stroke-linejoin="miter" fill-opacity="0" stroke-miterlimit="10" stroke="rgb(28,31,36)" stroke-opacity="1" stroke-width="3" d=" M656.9400024414062,482.6700134277344 C656.9400024414062,482.6700134277344 631.1599731445312,483.489990234375 631.1599731445312,483.489990234375 C631.1599731445312,483.489990234375 644.52001953125,502.8299865722656 644.52001953125,502.8299865722656 C652.3800048828125,514.22998046875 667.5999755859375,513.6599731445312 674.0599975585938,501.7300109863281 C674.0599975585938,501.7300109863281 679.0599975585938,492.510009765625 679.0599975585938,492.510009765625 C679.0599975585938,492.510009765625 663.8800048828125,482.1600036621094 663.8800048828125,482.1600036621094 C663.8800048828125,482.1600036621094 656.9400024414062,482.6700134277344 656.9400024414062,482.6700134277344z"/></g><g opacity="1" transform="matrix(1,0,0,1,0,0)"><path fill="rgb(255,255,255)" fill-opacity="1" d=" M703.3300170898438,489.32000732421875 C703.3300170898438,489.32000732421875 728.3300170898438,497.4200134277344 728.3300170898438,497.4200134277344 C728.3300170898438,497.4200134277344 712.1900024414062,512.5399780273438 712.1900024414062,512.5399780273438 C702.6799926757812,521.4400024414062 687.9000244140625,516.5399780273438 683.5,503.0899963378906 C683.5,503.0899963378906 680.0999755859375,492.6700134277344 680.0999755859375,492.6700134277344 C680.0999755859375,492.6700134277344 696.5900268554688,486.8500061035156 696.5900268554688,486.8500061035156 C696.5900268554688,486.8500061035156 703.3300170898438,489.32000732421875 703.3300170898438,489.32000732421875z"/><path stroke-linecap="butt" stroke-linejoin="miter" fill-opacity="0" stroke-miterlimit="10" stroke="rgb(28,31,36)" stroke-opacity="1" stroke-width="3" d=" M703.3300170898438,489.32000732421875 C703.3300170898438,489.32000732421875 728.3300170898438,497.4200134277344 728.3300170898438,497.4200134277344 C728.3300170898438,497.4200134277344 712.1900024414062,512.5399780273438 712.1900024414062,512.5399780273438 C702.6799926757812,521.4400024414062 687.9000244140625,516.5399780273438 683.5,503.0899963378906 C683.5,503.0899963378906 680.0999755859375,492.6700134277344 680.0999755859375,492.6700134277344 C680.0999755859375,492.6700134277344 696.5900268554688,486.8500061035156 696.5900268554688,486.8500061035156 C696.5900268554688,486.8500061035156 703.3300170898438,489.32000732421875 703.3300170898438,489.32000732421875z"/></g><g opacity="1" transform="matrix(1,0,0,1,0,0)"><path fill="rgb(255,255,255)" fill-opacity="1" d=" M707.0499877929688,429.6700134277344 C707.0499877929688,429.6700134277344 702.22998046875,489.1600036621094 702.22998046875,489.1600036621094 C702.22998046875,489.1600036621094 702.22998046875,489.1600036621094 702.22998046875,489.1600036621094 C687.4299926757812,495.92999267578125 670.3200073242188,493.4800109863281 656.9400024414062,482.6700134277344 C656.9400024414062,482.6700134277344 656.9400024414062,482.6700134277344 656.9400024414062,482.6700134277344 C656.9400024414062,482.6700134277344 661.760009765625,423.17999267578125 661.760009765625,423.17999267578125 C661.760009765625,423.17999267578125 707.0499877929688,429.6700134277344 707.0499877929688,429.6700134277344z"/><path stroke-linecap="butt" stroke-linejoin="miter" fill-opacity="0" stroke-miterlimit="10" stroke="rgb(28,31,36)" stroke-opacity="1" stroke-width="3" d=" M707.0499877929688,429.6700134277344 C707.0499877929688,429.6700134277344 702.22998046875,489.1600036621094 702.22998046875,489.1600036621094 C702.22998046875,489.1600036621094 702.22998046875,489.1600036621094 702.22998046875,489.1600036621094 C687.4299926757812,495.92999267578125 670.3200073242188,493.4800109863281 656.9400024414062,482.6700134277344 C656.9400024414062,482.6700134277344 656.9400024414062,482.6700134277344 656.9400024414062,482.6700134277344 C656.9400024414062,482.6700134277344 661.760009765625,423.17999267578125 661.760009765625,423.17999267578125 C661.760009765625,423.17999267578125 707.0499877929688,429.6700134277344 707.0499877929688,429.6700134277344z"/></g><g opacity="1" transform="matrix(1,0,0,1,0,0)"><path fill="rgb(29,31,37)" fill-opacity="1" d=" M707.0499877929688,429.6700134277344 C707.0499877929688,429.6700134277344 703.5,473.4700012207031 703.5,473.4700012207031 C700.8779907226562,473.4219970703125 698.2689819335938,473.0870056152344 695.719970703125,472.4700012207031 C678.6400146484375,468.5199890136719 665.719970703125,458.1700134277344 659.4099731445312,452.1300048828125 C659.4099731445312,452.1300048828125 661.760009765625,423.1300048828125 661.760009765625,423.1300048828125 C661.760009765625,423.1300048828125 707.0499877929688,429.6700134277344 707.0499877929688,429.6700134277344z"/></g><g opacity="1" transform="matrix(1,0,0,1,0,0)"><path stroke-linecap="butt" stroke-linejoin="miter" fill-opacity="0" stroke-miterlimit="10" stroke="rgb(34,31,31)" stroke-opacity="1" stroke-width="3" d=" M679.6199951171875,499.2699890136719 C679.6199951171875,499.2699890136719 678.469970703125,517.3699951171875 669.8800048828125,528.1799926757812 C661.2899780273438,538.989990234375 680.6400146484375,558.27001953125 680.6400146484375,558.27001953125"/></g></g><g id="Head-2" opacity="1" transform="matrix(0.9925461411476135,0.12186934053897858,-0.12186934053897858,0.9925461411476135,78.567626953125,-360.138671875)"><g opacity="1" transform="matrix(1,0,0,1,0,0)"><path fill="rgb(255,255,255)" fill-opacity="1" d=" M650.1699829101562,385.239990234375 C650.1699829101562,385.239990234375 639.5499877929688,379.8800048828125 638.7100219726562,390.2900085449219 C637.8699951171875,400.70001220703125 640.510009765625,410.3599853515625 649.989990234375,411.7200012207031 C659.469970703125,413.0799865722656 650.1699829101562,385.239990234375 650.1699829101562,385.239990234375 C650.1699829101562,385.239990234375 650.1699829101562,385.239990234375 650.1699829101562,385.239990234375z"/><path stroke-linecap="butt" stroke-linejoin="miter" fill-opacity="0" stroke-miterlimit="10" stroke="rgb(28,31,36)" stroke-opacity="1" stroke-width="3" d=" M650.1699829101562,385.239990234375 C650.1699829101562,385.239990234375 639.5499877929688,379.8800048828125 638.7100219726562,390.2900085449219 C637.8699951171875,400.70001220703125 640.510009765625,410.3599853515625 649.989990234375,411.7200012207031 C659.469970703125,413.0799865722656 650.1699829101562,385.239990234375 650.1699829101562,385.239990234375 C650.1699829101562,385.239990234375 650.1699829101562,385.239990234375 650.1699829101562,385.239990234375z"/></g><g opacity="1" transform="matrix(1,0,0,1,0,0)"><path fill="rgb(255,255,255)" fill-opacity="1" d=" M725.1099853515625,396 C725.1099853515625,396 736.3400268554688,393.7699890136719 735.5,404.17999267578125 C734.6599731445312,414.5899963378906 730.5,423.2799987792969 721.0499877929688,421.9200134277344 C711.5999755859375,420.55999755859375 725.1099853515625,396 725.1099853515625,396 C725.1099853515625,396 725.1099853515625,396 725.1099853515625,396z"/><path stroke-linecap="butt" stroke-linejoin="miter" fill-opacity="0" stroke-miterlimit="10" stroke="rgb(28,31,36)" stroke-opacity="1" stroke-width="3" d=" M725.1099853515625,396 C725.1099853515625,396 736.3400268554688,393.7699890136719 735.5,404.17999267578125 C734.6599731445312,414.5899963378906 730.5,423.2799987792969 721.0499877929688,421.9200134277344 C711.5999755859375,420.55999755859375 725.1099853515625,396 725.1099853515625,396 C725.1099853515625,396 725.1099853515625,396 725.1099853515625,396z"/></g><g opacity="1" transform="matrix(1,0,0,1,0,0)"><path fill="rgb(255,255,255)" fill-opacity="1" d=" M728.7100219726562,403.17999267578125 C726,436.5899963378906 705.530029296875,461 683,457.80999755859375 C660.469970703125,454.6199951171875 644.3200073242188,424.8800048828125 647,391.4800109863281 C647.2000122070312,389.010009765625 647.5,386.5799865722656 647.8900146484375,384.2200012207031 C652.75,354.6099853515625 671.8900146484375,333.8599853515625 692.739990234375,336.8500061035156 C713.3499755859375,339.8500061035156 728.5700073242188,364.8500061035156 728.9600219726562,394.6700134277344 C729,397.4700012207031 728.9400024414062,400.30999755859375 728.7100219726562,403.17999267578125 C728.7100219726562,403.17999267578125 728.7100219726562,403.17999267578125 728.7100219726562,403.17999267578125z"/><path stroke-linecap="butt" stroke-linejoin="miter" fill-opacity="0" stroke-miterlimit="10" stroke="rgb(28,31,36)" stroke-opacity="1" stroke-width="3" d=" M728.7100219726562,403.17999267578125 C726,436.5899963378906 705.530029296875,461 683,457.80999755859375 C660.469970703125,454.6199951171875 644.3200073242188,424.8800048828125 647,391.4800109863281 C647.2000122070312,389.010009765625 647.5,386.5799865722656 647.8900146484375,384.2200012207031 C652.75,354.6099853515625 671.8900146484375,333.8599853515625 692.739990234375,336.8500061035156 C713.3499755859375,339.8500061035156 728.5700073242188,364.8500061035156 728.9600219726562,394.6700134277344 C729,397.4700012207031 728.9400024414062,400.30999755859375 728.7100219726562,403.17999267578125 C728.7100219726562,403.17999267578125 728.7100219726562,403.17999267578125 728.7100219726562,403.17999267578125z"/></g><g opacity="1" transform="matrix(0.05216166004538536,-0.9986386299133301,0.9986386299133301,0.05216166004538536,669.744384765625,395.84832763671875)"><path fill="rgb(255,255,255)" fill-opacity="1" d=" M0,-10.6899995803833 C10.475061416625977,-10.6899995803833 18.979999542236328,-5.899810791015625 18.979999542236328,0 C18.979999542236328,5.899810791015625 10.475061416625977,10.6899995803833 0,10.6899995803833 C-10.475061416625977,10.6899995803833 -18.979999542236328,5.899810791015625 -18.979999542236328,0 C-18.979999542236328,-5.899810791015625 -10.475061416625977,-10.6899995803833 0,-10.6899995803833z"/><path stroke-linecap="butt" stroke-linejoin="miter" fill-opacity="0" stroke-miterlimit="10" stroke="rgb(28,31,36)" stroke-opacity="1" stroke-width="3" d=" M0,-10.6899995803833 C10.475061416625977,-10.6899995803833 18.979999542236328,-5.899810791015625 18.979999542236328,0 C18.979999542236328,5.899810791015625 10.475061416625977,10.6899995803833 0,10.6899995803833 C-10.475061416625977,10.6899995803833 -18.979999542236328,5.899810791015625 -18.979999542236328,0 C-18.979999542236328,-5.899810791015625 -10.475061416625977,-10.6899995803833 0,-10.6899995803833z"/></g><g opacity="1" transform="matrix(0.05216166004538536,-0.9986386299133301,0.9986386299133301,0.05216166004538536,705.53369140625,400.974609375)"><path fill="rgb(255,255,255)" fill-opacity="1" d=" M0,-10.6899995803833 C10.475061416625977,-10.6899995803833 18.979999542236328,-5.899810791015625 18.979999542236328,0 C18.979999542236328,5.899810791015625 10.475061416625977,10.6899995803833 0,10.6899995803833 C-10.475061416625977,10.6899995803833 -18.979999542236328,5.899810791015625 -18.979999542236328,0 C-18.979999542236328,-5.899810791015625 -10.475061416625977,-10.6899995803833 0,-10.6899995803833z"/><path stroke-linecap="butt" stroke-linejoin="miter" fill-opacity="0" stroke-miterlimit="10" stroke="rgb(28,31,36)" stroke-opacity="1" stroke-width="3" d=" M0,-10.6899995803833 C10.475061416625977,-10.6899995803833 18.979999542236328,-5.899810791015625 18.979999542236328,0 C18.979999542236328,5.899810791015625 10.475061416625977,10.6899995803833 0,10.6899995803833 C-10.475061416625977,10.6899995803833 -18.979999542236328,5.899810791015625 -18.979999542236328,0 C-18.979999542236328,-5.899810791015625 -10.475061416625977,-10.6899995803833 0,-10.6899995803833z"/></g><g opacity="1" transform="matrix(1,0,0,1,0,0)"><path fill="rgb(255,255,255)" fill-opacity="1" d=" M680.3200073242188,397.3399963378906 C680.3200073242188,397.3399963378906 686.1599731445312,390.6499938964844 694.8800048828125,399.42999267578125"/><path stroke-linecap="butt" stroke-linejoin="miter" fill-opacity="0" stroke-miterlimit="10" stroke="rgb(28,31,36)" stroke-opacity="1" stroke-width="3" d=" M680.3200073242188,397.3399963378906 C680.3200073242188,397.3399963378906 686.1599731445312,390.6499938964844 694.8800048828125,399.42999267578125"/></g><g opacity="1" transform="matrix(1,0,0,1,0,0)"><path fill="rgb(29,31,37)" fill-opacity="1" d=" M729,394.6700134277344 C729,394.6700134277344 719.4600219726562,386.30999755859375 717.8499755859375,373.2900085449219 C717.8499755859375,373.2900085449219 707.969970703125,374.7300109863281 704.6799926757812,349.0899963378906 C703.8289794921875,352.885009765625 702.677978515625,356.60699462890625 701.239990234375,360.2200012207031 C697.5900268554688,369.42999267578125 688.9600219726562,374.6700134277344 679.9500122070312,373.3800048828125 C679.9500122070312,373.3800048828125 655.8499755859375,369.92999267578125 655.8499755859375,369.92999267578125 C655.8499755859375,369.92999267578125 647.9299926757812,384.2200012207031 647.9299926757812,384.2200012207031 C652.7899780273438,354.6099853515625 671.9299926757812,333.8599853515625 692.780029296875,336.8500061035156 C713.3800048828125,339.80999755859375 728.5999755859375,364.8699951171875 729,394.6700134277344 C729,394.6700134277344 729,394.6700134277344 729,394.6700134277344z"/></g></g><g id="Layer_7" opacity="1" transform="matrix(1,0,0,1,4.52899169921875,-307.875)"><g opacity="1" transform="matrix(1,0,0,1,0,0)"><path fill="rgb(255,255,255)" fill-opacity="1" d=" M897.5800170898438,443.7900085449219 C898.8189697265625,434.4639892578125 893.2069702148438,425.5880126953125 884.25,422.7099914550781 C884.25,422.7099914550781 794.25,393.80999755859375 794.25,393.80999755859375 C790.5390014648438,392.56201171875 786.4660034179688,393.02801513671875 783.1329956054688,395.0820007324219 C779.7999877929688,397.135009765625 777.552978515625,400.5639953613281 777,404.44000244140625 C777,404.44000244140625 768,466.82000732421875 768,466.82000732421875 C767.1129760742188,472.88800048828125 770.5289916992188,478.7659912109375 776.239990234375,481 C776.239990234375,481 783.239990234375,483.7699890136719 783.239990234375,483.7699890136719 C783.239990234375,483.7699890136719 772.0599975585938,496.8900146484375 772.0599975585938,496.8900146484375 C771.3510131835938,497.72198486328125 771.281982421875,498.92498779296875 771.8920288085938,499.8330078125 C772.5020141601562,500.7409973144531 773.6409912109375,501.1319885253906 774.6799926757812,500.7900085449219 C774.6799926757812,500.7900085449219 802.6799926757812,491.4599914550781 802.6799926757812,491.4599914550781 C802.6799926757812,491.4599914550781 873.8800048828125,520.6300048828125 873.8800048828125,520.6300048828125 C876.926025390625,521.8770141601562 880.3779907226562,521.6400146484375 883.2269897460938,519.989990234375 C886.0750122070312,518.3400268554688 887.9959716796875,515.4630126953125 888.4299926757812,512.2000122070312 C888.4299926757812,512.2000122070312 897.5800170898438,443.7900085449219 897.5800170898438,443.7900085449219z"/><path stroke-linecap="round" stroke-linejoin="round" fill-opacity="0" stroke="rgb(28,31,36)" stroke-opacity="1" stroke-width="3" d=" M897.5800170898438,443.7900085449219 C898.8189697265625,434.4639892578125 893.2069702148438,425.5880126953125 884.25,422.7099914550781 C884.25,422.7099914550781 794.25,393.80999755859375 794.25,393.80999755859375 C790.5390014648438,392.56201171875 786.4660034179688,393.02801513671875 783.1329956054688,395.0820007324219 C779.7999877929688,397.135009765625 777.552978515625,400.5639953613281 777,404.44000244140625 C777,404.44000244140625 768,466.82000732421875 768,466.82000732421875 C767.1129760742188,472.88800048828125 770.5289916992188,478.7659912109375 776.239990234375,481 C776.239990234375,481 783.239990234375,483.7699890136719 783.239990234375,483.7699890136719 C783.239990234375,483.7699890136719 772.0599975585938,496.8900146484375 772.0599975585938,496.8900146484375 C771.3510131835938,497.72198486328125 771.281982421875,498.92498779296875 771.8920288085938,499.8330078125 C772.5020141601562,500.7409973144531 773.6409912109375,501.1319885253906 774.6799926757812,500.7900085449219 C774.6799926757812,500.7900085449219 802.6799926757812,491.4599914550781 802.6799926757812,491.4599914550781 C802.6799926757812,491.4599914550781 873.8800048828125,520.6300048828125 873.8800048828125,520.6300048828125 C876.926025390625,521.8770141601562 880.3779907226562,521.6400146484375 883.2269897460938,519.989990234375 C886.0750122070312,518.3400268554688 887.9959716796875,515.4630126953125 888.4299926757812,512.2000122070312 C888.4299926757812,512.2000122070312 897.5800170898438,443.7900085449219 897.5800170898438,443.7900085449219z"/></g><g opacity="1" transform="matrix(1,0,0,1,0,0)"><path stroke-linecap="round" stroke-linejoin="round" fill-opacity="0" stroke="rgb(34,31,31)" stroke-opacity="1" stroke-width="5" d=" M796.52001953125,429.1600036621094 C796.52001953125,429.1600036621094 877.1500244140625,455.54998779296875 877.1500244140625,455.54998779296875"/></g><g opacity="1" transform="matrix(1,0,0,1,0,0)"><path stroke-linecap="round" stroke-linejoin="round" fill-opacity="0" stroke="rgb(34,31,31)" stroke-opacity="1" stroke-width="5" d=" M792.4400024414062,451.2799987792969 C792.4400024414062,451.2799987792969 841.9500122070312,467.489990234375 841.9500122070312,467.489990234375"/></g></g></g></g></svg>