<svg xmlns="http://www.w3.org/2000/svg" viewBox="0 0 900 600" preserveAspectRatio="xMidYMid slice" style="width: 100%; height: 100%; transform: translate3d(0px, 0px, 0px);"><defs><clipPath id="__lottie_element_228"><rect width="900" height="600" x="0" y="0"/></clipPath></defs><g clip-path="url(#__lottie_element_228)"><g id="Execution" transform="matrix(1,0,0,1,88.9990234375,76.41998291015625)" opacity="1" style="display: block;"><g id="Base" opacity="1" transform="matrix(1,0,0,1,-147,-228.12997436523438)"><g opacity="1" transform="matrix(1,0,0,1,0,0)"><path fill="rgb(255,255,255)" fill-opacity="1" d=" M851.3900146484375,636 C851.3900146484375,636 851.3900146484375,716.77001953125 851.3900146484375,716.77001953125 C851.3740234375,725.1380004882812 848.0330200195312,733.156982421875 842.10302734375,739.06201171875 C836.1719970703125,744.9660034179688 828.1380004882812,748.27099609375 819.77001953125,748.25 C819.77001953125,748.25 188.22999572753906,748.25 188.22999572753906,748.25 C188.22999572753906,748.25 186.8000030517578,748.25 186.8000030517578,748.25 C164.6320037841797,747.5070190429688 147.03599548339844,729.3400268554688 147,707.1599731445312 C147,707.1599731445312 147,643.4199829101562 147,643.4199829101562 C147,590.8499755859375 189.80999755859375,548.25 242.6199951171875,548.25 C242.6199951171875,548.25 763.239990234375,548.25 763.239990234375,548.25 C811.9299926757812,548.25 851.3900146484375,587.530029296875 851.3900146484375,636 C851.3900146484375,636 851.3900146484375,636 851.3900146484375,636z"/><path stroke-linecap="butt" stroke-linejoin="round" fill-opacity="0" stroke="rgb(28,31,36)" stroke-opacity="1" stroke-width="3" d=" M851.3900146484375,636 C851.3900146484375,636 851.3900146484375,716.77001953125 851.3900146484375,716.77001953125 C851.3740234375,725.1380004882812 848.0330200195312,733.156982421875 842.10302734375,739.06201171875 C836.1719970703125,744.9660034179688 828.1380004882812,748.27099609375 819.77001953125,748.25 C819.77001953125,748.25 188.22999572753906,748.25 188.22999572753906,748.25 C188.22999572753906,748.25 186.8000030517578,748.25 186.8000030517578,748.25 C164.6320037841797,747.5070190429688 147.03599548339844,729.3400268554688 147,707.1599731445312 C147,707.1599731445312 147,643.4199829101562 147,643.4199829101562 C147,590.8499755859375 189.80999755859375,548.25 242.6199951171875,548.25 C242.6199951171875,548.25 763.239990234375,548.25 763.239990234375,548.25 C811.9299926757812,548.25 851.3900146484375,587.530029296875 851.3900146484375,636 C851.3900146484375,636 851.3900146484375,636 851.3900146484375,636z"/></g><g opacity="1" transform="matrix(1,0,0,1,0,0)"><path fill="rgb(72,103,255)" fill-opacity="1" d=" M297.20001220703125,748.7100219726562 C297.20001220703125,748.7100219726562 350.6700134277344,670.3300170898438 489.1000061035156,670.3300170898438 C627.530029296875,670.3300170898438 790.5900268554688,748.7100219726562 790.5900268554688,748.7100219726562 C790.5900268554688,748.7100219726562 297.20001220703125,748.7100219726562 297.20001220703125,748.7100219726562z"/><path stroke-linecap="butt" stroke-linejoin="round" fill-opacity="0" stroke="rgb(28,31,36)" stroke-opacity="1" stroke-width="3" d=" M297.20001220703125,748.7100219726562 C297.20001220703125,748.7100219726562 350.6700134277344,670.3300170898438 489.1000061035156,670.3300170898438 C627.530029296875,670.3300170898438 790.5900268554688,748.7100219726562 790.5900268554688,748.7100219726562 C790.5900268554688,748.7100219726562 297.20001220703125,748.7100219726562 297.20001220703125,748.7100219726562z"/></g><g opacity="1" transform="matrix(1,0,0,1,230.58999633789062,612.469970703125)"><path fill="rgb(255,255,255)" fill-opacity="1" d=" M0,-6.260000228881836 C3.4548940658569336,-6.260000228881836 6.260000228881836,-3.4548940658569336 6.260000228881836,0 C6.260000228881836,3.4548940658569336 3.4548940658569336,6.260000228881836 0,6.260000228881836 C-3.4548940658569336,6.260000228881836 -6.260000228881836,3.4548940658569336 -6.260000228881836,0 C-6.260000228881836,-3.4548940658569336 -3.4548940658569336,-6.260000228881836 0,-6.260000228881836z"/><path stroke-linecap="butt" stroke-linejoin="round" fill-opacity="0" stroke="rgb(28,31,36)" stroke-opacity="1" stroke-width="3" d=" M0,-6.260000228881836 C3.4548940658569336,-6.260000228881836 6.260000228881836,-3.4548940658569336 6.260000228881836,0 C6.260000228881836,3.4548940658569336 3.4548940658569336,6.260000228881836 0,6.260000228881836 C-3.4548940658569336,6.260000228881836 -6.260000228881836,3.4548940658569336 -6.260000228881836,0 C-6.260000228881836,-3.4548940658569336 -3.4548940658569336,-6.260000228881836 0,-6.260000228881836z"/></g><g opacity="1" transform="matrix(1,0,0,1,790.5900268554688,612.469970703125)"><path fill="rgb(255,255,255)" fill-opacity="1" d=" M0,-6.260000228881836 C3.4548940658569336,-6.260000228881836 6.260000228881836,-3.4548940658569336 6.260000228881836,0 C6.260000228881836,3.4548940658569336 3.4548940658569336,6.260000228881836 0,6.260000228881836 C-3.4548940658569336,6.260000228881836 -6.260000228881836,3.4548940658569336 -6.260000228881836,0 C-6.260000228881836,-3.4548940658569336 -3.4548940658569336,-6.260000228881836 0,-6.260000228881836z"/><path stroke-linecap="butt" stroke-linejoin="round" fill-opacity="0" stroke="rgb(28,31,36)" stroke-opacity="1" stroke-width="3" d=" M0,-6.260000228881836 C3.4548940658569336,-6.260000228881836 6.260000228881836,-3.4548940658569336 6.260000228881836,0 C6.260000228881836,3.4548940658569336 3.4548940658569336,6.260000228881836 0,6.260000228881836 C-3.4548940658569336,6.260000228881836 -6.260000228881836,3.4548940658569336 -6.260000228881836,0 C-6.260000228881836,-3.4548940658569336 -3.4548940658569336,-6.260000228881836 0,-6.260000228881836z"/></g></g><g id="TASK" opacity="1" transform="matrix(1,0,0,1,-147,-228.1300048828125)"><g opacity="1" transform="matrix(1,0,0,1,0,0)"><path fill="rgb(29,31,37)" fill-opacity="1" d=" M657.489990234375,713.72998046875 C636.364990234375,713.7459716796875 616.1010131835938,705.3619995117188 601.1619873046875,690.4249877929688 C586.2230224609375,675.4879760742188 577.8369750976562,655.2249755859375 577.8499755859375,634.0999755859375 C577.8499755859375,634.0999755859375 577.8499755859375,409.5299987792969 577.8499755859375,409.5299987792969 C577.8499755859375,409.2539978027344 578.073974609375,409.0299987792969 578.3499755859375,409.0299987792969 C578.3499755859375,409.0299987792969 712.1599731445312,409.0299987792969 712.1599731445312,409.0299987792969 C725.9669799804688,409.0299987792969 737.1599731445312,420.2229919433594 737.1599731445312,434.0299987792969 C737.1599731445312,434.0299987792969 737.1599731445312,634.0999755859375 737.1599731445312,634.0999755859375 C737.1539916992188,678.0800170898438 701.5,713.72998046875 657.52001953125,713.72998046875 C657.52001953125,713.72998046875 657.489990234375,713.72998046875 657.489990234375,713.72998046875z"/></g><g opacity="1" transform="matrix(1,0,0,1,0,0)"><path fill="rgb(255,255,255)" fill-opacity="1" d=" M657.5,713.22998046875 C657.5,713.22998046875 324.29998779296875,713.22998046875 324.29998779296875,713.22998046875 C309.49700927734375,713.2329711914062 295.29998779296875,707.35400390625 284.8330078125,696.8870239257812 C274.3659973144531,686.4199829101562 268.48699951171875,672.2230224609375 268.489990234375,657.4199829101562 C268.489990234375,657.4199829101562 268.489990234375,266.6000061035156 268.489990234375,266.6000061035156 C268.489990234375,256.3900146484375 272.54901123046875,246.5989990234375 279.7720031738281,239.38299560546875 C286.9949951171875,232.16799926757812 296.7900085449219,228.11900329589844 307,228.1300048828125 C307,228.1300048828125 539.8900146484375,228.1300048828125 539.8900146484375,228.1300048828125 C550.093017578125,228.1300048828125 559.8779907226562,232.18299865722656 567.0919799804688,239.3979949951172 C574.3070068359375,246.61199951171875 578.3599853515625,256.3970031738281 578.3599853515625,266.6000061035156 C578.3599853515625,266.6000061035156 578.3599853515625,634.0999755859375 578.3599853515625,634.0999755859375 C578.3660278320312,677.8040161132812 613.7960205078125,713.22998046875 657.5,713.22998046875 C657.5,713.22998046875 657.5,713.22998046875 657.5,713.22998046875z"/><path stroke-linecap="butt" stroke-linejoin="round" fill-opacity="0" stroke="rgb(28,31,36)" stroke-opacity="1" stroke-width="3" d=" M657.5,713.22998046875 C657.5,713.22998046875 324.29998779296875,713.22998046875 324.29998779296875,713.22998046875 C309.49700927734375,713.2329711914062 295.29998779296875,707.35400390625 284.8330078125,696.8870239257812 C274.3659973144531,686.4199829101562 268.48699951171875,672.2230224609375 268.489990234375,657.4199829101562 C268.489990234375,657.4199829101562 268.489990234375,266.6000061035156 268.489990234375,266.6000061035156 C268.489990234375,256.3900146484375 272.54901123046875,246.5989990234375 279.7720031738281,239.38299560546875 C286.9949951171875,232.16799926757812 296.7900085449219,228.11900329589844 307,228.1300048828125 C307,228.1300048828125 539.8900146484375,228.1300048828125 539.8900146484375,228.1300048828125 C550.093017578125,228.1300048828125 559.8779907226562,232.18299865722656 567.0919799804688,239.3979949951172 C574.3070068359375,246.61199951171875 578.3599853515625,256.3970031738281 578.3599853515625,266.6000061035156 C578.3599853515625,266.6000061035156 578.3599853515625,634.0999755859375 578.3599853515625,634.0999755859375 C578.3660278320312,677.8040161132812 613.7960205078125,713.22998046875 657.5,713.22998046875 C657.5,713.22998046875 657.5,713.22998046875 657.5,713.22998046875z"/></g><g opacity="1" transform="matrix(1,0,0,1,311.8299865722656,301.8199768066406)"><path fill="rgb(72,103,255)" fill-opacity="1" d=" M231,8.729999542236328 C231,8.729999542236328 231,12.540000915527344 231,12.540000915527344 C231,17.35808753967285 227.0880889892578,21.270000457763672 222.27000427246094,21.270000457763672 C222.27000427246094,21.270000457763672 8.729999542236328,21.270000457763672 8.729999542236328,21.270000457763672 C3.9119129180908203,21.270000457763672 0,17.35808753967285 0,12.540000915527344 C0,12.540000915527344 0,8.729999542236328 0,8.729999542236328 C0,3.9119129180908203 3.9119129180908203,0 8.729999542236328,0 C8.729999542236328,0 222.27000427246094,0 222.27000427246094,0 C227.0880889892578,0 231,3.9119129180908203 231,8.729999542236328z"/><path stroke-linecap="butt" stroke-linejoin="round" fill-opacity="0" stroke="rgb(28,31,36)" stroke-opacity="1" stroke-width="3" d=" M231,8.729999542236328 C231,8.729999542236328 231,12.540000915527344 231,12.540000915527344 C231,17.35808753967285 227.0880889892578,21.270000457763672 222.27000427246094,21.270000457763672 C222.27000427246094,21.270000457763672 8.729999542236328,21.270000457763672 8.729999542236328,21.270000457763672 C3.9119129180908203,21.270000457763672 0,17.35808753967285 0,12.540000915527344 C0,12.540000915527344 0,8.729999542236328 0,8.729999542236328 C0,3.9119129180908203 3.9119129180908203,0 8.729999542236328,0 C8.729999542236328,0 222.27000427246094,0 222.27000427246094,0 C227.0880889892578,0 231,3.9119129180908203 231,8.729999542236328z"/></g><g opacity="1" transform="matrix(1,0,0,1,311.83001708984375,360.1600036621094)"><path fill="rgb(255,255,255)" fill-opacity="1" d=" M130.58999633789062,8.729999542236328 C130.58999633789062,8.729999542236328 130.58999633789062,12.540000915527344 130.58999633789062,12.540000915527344 C130.58999633789062,17.35808753967285 126.67808532714844,21.270000457763672 121.85999298095703,21.270000457763672 C121.85999298095703,21.270000457763672 8.729999542236328,21.270000457763672 8.729999542236328,21.270000457763672 C3.9119129180908203,21.270000457763672 0,17.35808753967285 0,12.540000915527344 C0,12.540000915527344 0,8.729999542236328 0,8.729999542236328 C0,3.9119129180908203 3.9119129180908203,0 8.729999542236328,0 C8.729999542236328,0 121.85999298095703,0 121.85999298095703,0 C126.67808532714844,0 130.58999633789062,3.9119129180908203 130.58999633789062,8.729999542236328z"/><path stroke-linecap="butt" stroke-linejoin="round" fill-opacity="0" stroke="rgb(28,31,36)" stroke-opacity="1" stroke-width="3" d=" M130.58999633789062,8.729999542236328 C130.58999633789062,8.729999542236328 130.58999633789062,12.540000915527344 130.58999633789062,12.540000915527344 C130.58999633789062,17.35808753967285 126.67808532714844,21.270000457763672 121.85999298095703,21.270000457763672 C121.85999298095703,21.270000457763672 8.729999542236328,21.270000457763672 8.729999542236328,21.270000457763672 C3.9119129180908203,21.270000457763672 0,17.35808753967285 0,12.540000915527344 C0,12.540000915527344 0,8.729999542236328 0,8.729999542236328 C0,3.9119129180908203 3.9119129180908203,0 8.729999542236328,0 C8.729999542236328,0 121.85999298095703,0 121.85999298095703,0 C126.67808532714844,0 130.58999633789062,3.9119129180908203 130.58999633789062,8.729999542236328z"/></g><g opacity="1" transform="matrix(1,0,0,1,311.83001708984375,420.6399841308594)"><path fill="rgb(255,255,255)" fill-opacity="1" d=" M130.58999633789062,8.729999542236328 C130.58999633789062,8.729999542236328 130.58999633789062,12.540000915527344 130.58999633789062,12.540000915527344 C130.58999633789062,17.35808753967285 126.67808532714844,21.270000457763672 121.85999298095703,21.270000457763672 C121.85999298095703,21.270000457763672 8.729999542236328,21.270000457763672 8.729999542236328,21.270000457763672 C3.9119129180908203,21.270000457763672 0,17.35808753967285 0,12.540000915527344 C0,12.540000915527344 0,8.729999542236328 0,8.729999542236328 C0,3.9119129180908203 3.9119129180908203,0 8.729999542236328,0 C8.729999542236328,0 121.85999298095703,0 121.85999298095703,0 C126.67808532714844,0 130.58999633789062,3.9119129180908203 130.58999633789062,8.729999542236328z"/><path stroke-linecap="butt" stroke-linejoin="round" fill-opacity="0" stroke="rgb(28,31,36)" stroke-opacity="1" stroke-width="3" d=" M130.58999633789062,8.729999542236328 C130.58999633789062,8.729999542236328 130.58999633789062,12.540000915527344 130.58999633789062,12.540000915527344 C130.58999633789062,17.35808753967285 126.67808532714844,21.270000457763672 121.85999298095703,21.270000457763672 C121.85999298095703,21.270000457763672 8.729999542236328,21.270000457763672 8.729999542236328,21.270000457763672 C3.9119129180908203,21.270000457763672 0,17.35808753967285 0,12.540000915527344 C0,12.540000915527344 0,8.729999542236328 0,8.729999542236328 C0,3.9119129180908203 3.9119129180908203,0 8.729999542236328,0 C8.729999542236328,0 121.85999298095703,0 121.85999298095703,0 C126.67808532714844,0 130.58999633789062,3.9119129180908203 130.58999633789062,8.729999542236328z"/></g><g opacity="1" transform="matrix(1,0,0,1,427.3299865722656,569.8400268554688)"><path fill="rgb(255,255,255)" fill-opacity="1" d=" M0,-65.22000122070312 C35.99491882324219,-65.22000122070312 65.22000122070312,-35.99491882324219 65.22000122070312,0 C65.22000122070312,35.99491882324219 35.99491882324219,65.22000122070312 0,65.22000122070312 C-35.99491882324219,65.22000122070312 -65.22000122070312,35.99491882324219 -65.22000122070312,0 C-65.22000122070312,-35.99491882324219 -35.99491882324219,-65.22000122070312 0,-65.22000122070312z"/><path stroke-linecap="butt" stroke-linejoin="round" fill-opacity="0" stroke="rgb(28,31,36)" stroke-opacity="1" stroke-width="3" d=" M0,-65.22000122070312 C35.99491882324219,-65.22000122070312 65.22000122070312,-35.99491882324219 65.22000122070312,0 C65.22000122070312,35.99491882324219 35.99491882324219,65.22000122070312 0,65.22000122070312 C-35.99491882324219,65.22000122070312 -65.22000122070312,35.99491882324219 -65.22000122070312,0 C-65.22000122070312,-35.99491882324219 -35.99491882324219,-65.22000122070312 0,-65.22000122070312z"/></g><g opacity="1" transform="matrix(1,0,0,1,0,0)"><path fill="rgb(72,103,255)" fill-opacity="1" d=" M449.5400085449219,598.75 C449.5400085449219,598.75 393.45001220703125,598.75 393.45001220703125,598.75 C391.9840087890625,598.7470092773438 390.6340026855469,597.9539794921875 389.9169921875,596.676025390625 C389.20098876953125,595.3980102539062 389.2279968261719,593.8319702148438 389.989990234375,592.5800170898438 C389.989990234375,592.5800170898438 417.989990234375,546.5800170898438 417.989990234375,546.5800170898438 C418.7239990234375,545.3679809570312 420.0379943847656,544.6270141601562 421.4549865722656,544.6270141601562 C422.87200927734375,544.6270141601562 424.1860046386719,545.3679809570312 424.9200134277344,546.5800170898438 C424.9200134277344,546.5800170898438 452.9200134277344,592.5800170898438 452.9200134277344,592.5800170898438 C453.67498779296875,593.8200073242188 453.7099914550781,595.3679809570312 453.01300048828125,596.6420288085938 C452.31500244140625,597.9149780273438 450.9909973144531,598.718994140625 449.5400085449219,598.75 C449.5400085449219,598.75 449.5400085449219,598.75 449.5400085449219,598.75z"/><path stroke-linecap="butt" stroke-linejoin="round" fill-opacity="0" stroke="rgb(28,31,36)" stroke-opacity="1" stroke-width="3" d=" M449.5400085449219,598.75 C449.5400085449219,598.75 393.45001220703125,598.75 393.45001220703125,598.75 C391.9840087890625,598.7470092773438 390.6340026855469,597.9539794921875 389.9169921875,596.676025390625 C389.20098876953125,595.3980102539062 389.2279968261719,593.8319702148438 389.989990234375,592.5800170898438 C389.989990234375,592.5800170898438 417.989990234375,546.5800170898438 417.989990234375,546.5800170898438 C418.7239990234375,545.3679809570312 420.0379943847656,544.6270141601562 421.4549865722656,544.6270141601562 C422.87200927734375,544.6270141601562 424.1860046386719,545.3679809570312 424.9200134277344,546.5800170898438 C424.9200134277344,546.5800170898438 452.9200134277344,592.5800170898438 452.9200134277344,592.5800170898438 C453.67498779296875,593.8200073242188 453.7099914550781,595.3679809570312 453.01300048828125,596.6420288085938 C452.31500244140625,597.9149780273438 450.9909973144531,598.718994140625 449.5400085449219,598.75 C449.5400085449219,598.75 449.5400085449219,598.75 449.5400085449219,598.75z"/></g><g opacity="1" transform="matrix(1,0,0,1,455.29998779296875,554.0700073242188)"><path fill="rgb(72,103,255)" fill-opacity="1" d=" M0,-13.130000114440918 C7.2464470863342285,-13.130000114440918 13.130000114440918,-7.2464470863342285 13.130000114440918,0 C13.130000114440918,7.2464470863342285 7.2464470863342285,13.130000114440918 0,13.130000114440918 C-7.2464470863342285,13.130000114440918 -13.130000114440918,7.2464470863342285 -13.130000114440918,0 C-13.130000114440918,-7.2464470863342285 -7.2464470863342285,-13.130000114440918 0,-13.130000114440918z"/><path stroke-linecap="butt" stroke-linejoin="round" fill-opacity="0" stroke="rgb(28,31,36)" stroke-opacity="1" stroke-width="3" d=" M0,-13.130000114440918 C7.2464470863342285,-13.130000114440918 13.130000114440918,-7.2464470863342285 13.130000114440918,0 C13.130000114440918,7.2464470863342285 7.2464470863342285,13.130000114440918 0,13.130000114440918 C-7.2464470863342285,13.130000114440918 -13.130000114440918,7.2464470863342285 -13.130000114440918,0 C-13.130000114440918,-7.2464470863342285 -7.2464470863342285,-13.130000114440918 0,-13.130000114440918z"/></g><g id="cek" opacity="1" transform="matrix(0.8961617350578308,0,0,0.8961617350578308,51.989227294921875,38.170318603515625)"><path fill="rgb(255,255,255)" fill-opacity="1" d=" M496,384 C494.5,384.0140075683594 493.0580139160156,383.4230041503906 492,382.3599853515625 C492,382.3599853515625 479.739990234375,370.1000061035156 479.739990234375,370.1000061035156 C477.5639953613281,367.92401123046875 477.5639953613281,364.39599609375 479.739990234375,362.2200012207031 C481.9159851074219,360.04400634765625 485.4440002441406,360.04400634765625 487.6199951171875,362.2200012207031 C487.6199951171875,362.2200012207031 495.9800109863281,370.57000732421875 495.9800109863281,370.57000732421875 C495.9800109863281,370.57000732421875 513.72998046875,352.82000732421875 513.72998046875,352.82000732421875 C515.906005859375,350.6440124511719 519.4340209960938,350.6440124511719 521.6099853515625,352.82000732421875 C523.7860107421875,354.9960021972656 523.7860107421875,358.52398681640625 521.6099853515625,360.70001220703125 C521.6099853515625,360.70001220703125 499.9200134277344,382.3900146484375 499.9200134277344,382.3900146484375 C498.8760070800781,383.4219970703125 497.4679870605469,384.0010070800781 496,384 C496,384 496,384 496,384z"/><path stroke-linecap="butt" stroke-linejoin="round" fill-opacity="0" stroke="rgb(28,31,36)" stroke-opacity="1" stroke-width="3" d=" M496,384 C494.5,384.0140075683594 493.0580139160156,383.4230041503906 492,382.3599853515625 C492,382.3599853515625 479.739990234375,370.1000061035156 479.739990234375,370.1000061035156 C477.5639953613281,367.92401123046875 477.5639953613281,364.39599609375 479.739990234375,362.2200012207031 C481.9159851074219,360.04400634765625 485.4440002441406,360.04400634765625 487.6199951171875,362.2200012207031 C487.6199951171875,362.2200012207031 495.9800109863281,370.57000732421875 495.9800109863281,370.57000732421875 C495.9800109863281,370.57000732421875 513.72998046875,352.82000732421875 513.72998046875,352.82000732421875 C515.906005859375,350.6440124511719 519.4340209960938,350.6440124511719 521.6099853515625,352.82000732421875 C523.7860107421875,354.9960021972656 523.7860107421875,358.52398681640625 521.6099853515625,360.70001220703125 C521.6099853515625,360.70001220703125 499.9200134277344,382.3900146484375 499.9200134277344,382.3900146484375 C498.8760070800781,383.4219970703125 497.4679870605469,384.0010070800781 496,384 C496,384 496,384 496,384z"/></g><g id="cek" opacity="1" transform="matrix(0.9077221751213074,0,0,0.9077221751213074,46.206085205078125,39.29827880859375)"><path fill="rgb(255,255,255)" fill-opacity="1" d=" M496,442.3699951171875 C494.5010070800781,442.38800048828125 493.0589904785156,441.79998779296875 492,440.739990234375 C492,440.739990234375 479.7099914550781,428.44000244140625 479.7099914550781,428.44000244140625 C477.53399658203125,426.2640075683594 477.53399658203125,422.7359924316406 479.7099914550781,420.55999755859375 C481.885986328125,418.3840026855469 485.41400146484375,418.3840026855469 487.5899963378906,420.55999755859375 C487.5899963378906,420.55999755859375 495.95001220703125,428.9200134277344 495.95001220703125,428.9200134277344 C495.95001220703125,428.9200134277344 513.7000122070312,411.1600036621094 513.7000122070312,411.1600036621094 C515.0889892578125,409.6570129394531 517.1900024414062,409.0350036621094 519.1740112304688,409.5400085449219 C521.156982421875,410.04400634765625 522.7050170898438,411.593994140625 523.2069702148438,413.5790100097656 C523.708984375,415.56298828125 523.0850219726562,417.6629943847656 521.5800170898438,419.04998779296875 C521.5800170898438,419.04998779296875 499.8900146484375,440.739990234375 499.8900146484375,440.739990234375 C498.8580017089844,441.77301025390625 497.4599914550781,442.3590087890625 496,442.3699951171875 C496,442.3699951171875 496,442.3699951171875 496,442.3699951171875z"/><path stroke-linecap="butt" stroke-linejoin="round" fill-opacity="0" stroke="rgb(28,31,36)" stroke-opacity="1" stroke-width="3" d=" M496,442.3699951171875 C494.5010070800781,442.38800048828125 493.0589904785156,441.79998779296875 492,440.739990234375 C492,440.739990234375 479.7099914550781,428.44000244140625 479.7099914550781,428.44000244140625 C477.53399658203125,426.2640075683594 477.53399658203125,422.7359924316406 479.7099914550781,420.55999755859375 C481.885986328125,418.3840026855469 485.41400146484375,418.3840026855469 487.5899963378906,420.55999755859375 C487.5899963378906,420.55999755859375 495.95001220703125,428.9200134277344 495.95001220703125,428.9200134277344 C495.95001220703125,428.9200134277344 513.7000122070312,411.1600036621094 513.7000122070312,411.1600036621094 C515.0889892578125,409.6570129394531 517.1900024414062,409.0350036621094 519.1740112304688,409.5400085449219 C521.156982421875,410.04400634765625 522.7050170898438,411.593994140625 523.2069702148438,413.5790100097656 C523.708984375,415.56298828125 523.0850219726562,417.6629943847656 521.5800170898438,419.04998779296875 C521.5800170898438,419.04998779296875 499.8900146484375,440.739990234375 499.8900146484375,440.739990234375 C498.8580017089844,441.77301025390625 497.4599914550781,442.3590087890625 496,442.3699951171875 C496,442.3699951171875 496,442.3699951171875 496,442.3699951171875z"/></g><g opacity="1" transform="matrix(0.9998238682746887,-0.018768705427646637,0.018768705427646637,0.9998238682746887,-10.819244384765625,7.82470703125)"><path fill="rgb(255,255,255)" fill-opacity="1" d=" M293,455.94000244140625 C290.1099853515625,459.0539855957031 290.1579895019531,463.8840026855469 293.1099853515625,466.94000244140625 C293.1099853515625,466.94000244140625 392.6000061035156,571.8200073242188 392.6000061035156,571.8200073242188 C392.6000061035156,571.8200073242188 408.5400085449219,580.0900268554688 408.5400085449219,580.0900268554688 C409.2959899902344,580.47998046875 410.21600341796875,580.3489990234375 410.8340148925781,579.7630004882812 C411.45098876953125,579.177978515625 411.6300048828125,578.2659912109375 411.2799987792969,577.489990234375 C411.2799987792969,577.489990234375 403.8599853515625,561.1300048828125 403.8599853515625,561.1300048828125 C403.8599853515625,561.1300048828125 304.1400146484375,456.05999755859375 304.1400146484375,456.05999755859375 C302.69500732421875,454.5369873046875 300.6940002441406,453.6650085449219 298.5950012207031,453.64300537109375 C296.4960021972656,453.6199951171875 294.4779968261719,454.4490051269531 293,455.94000244140625 C293,455.94000244140625 293,455.94000244140625 293,455.94000244140625z"/><path stroke-linecap="round" stroke-linejoin="round" fill-opacity="0" stroke="rgb(28,31,36)" stroke-opacity="1" stroke-width="3" d=" M293,455.94000244140625 C290.1099853515625,459.0539855957031 290.1579895019531,463.8840026855469 293.1099853515625,466.94000244140625 C293.1099853515625,466.94000244140625 392.6000061035156,571.8200073242188 392.6000061035156,571.8200073242188 C392.6000061035156,571.8200073242188 408.5400085449219,580.0900268554688 408.5400085449219,580.0900268554688 C409.2959899902344,580.47998046875 410.21600341796875,580.3489990234375 410.8340148925781,579.7630004882812 C411.45098876953125,579.177978515625 411.6300048828125,578.2659912109375 411.2799987792969,577.489990234375 C411.2799987792969,577.489990234375 403.8599853515625,561.1300048828125 403.8599853515625,561.1300048828125 C403.8599853515625,561.1300048828125 304.1400146484375,456.05999755859375 304.1400146484375,456.05999755859375 C302.69500732421875,454.5369873046875 300.6940002441406,453.6650085449219 298.5950012207031,453.64300537109375 C296.4960021972656,453.6199951171875 294.4779968261719,454.4490051269531 293,455.94000244140625 C293,455.94000244140625 293,455.94000244140625 293,455.94000244140625z"/></g></g><g id="Tree" opacity="1" transform="matrix(1,0,0,1,-146.99998474121094,-228.12997436523438)"><g opacity="1" transform="matrix(1,0,0,1,0,0)"><path fill="rgb(255,255,255)" fill-opacity="1" d=" M272.9200134277344,748.7100219726562 C272.9200134277344,748.7100219726562 188.22999572753906,748.7100219726562 188.22999572753906,748.7100219726562 C188.22999572753906,748.7100219726562 186.8000030517578,748.7100219726562 186.8000030517578,748.7100219726562 C185.0800018310547,737.780029296875 185.91000366210938,724.7899780273438 195.39999389648438,715.3099975585938 C208.39999389648438,702.3099975585938 184.39999389648438,660.030029296875 203.5800018310547,652.8099975585938 C227.1300048828125,643.9400024414062 231.5800018310547,682.8099975585938 236.86000061035156,696.8099975585938 C238.1999969482422,700.4000244140625 240.64999389648438,703.72998046875 243.72000122070312,707.1699829101562 C252.7100067138672,717.25 266.8699951171875,728.1900024414062 272.9200134277344,748.7100219726562 C272.9200134277344,748.7100219726562 272.9200134277344,748.7100219726562 272.9200134277344,748.7100219726562z"/><path stroke-linecap="butt" stroke-linejoin="round" fill-opacity="0" stroke="rgb(28,31,36)" stroke-opacity="1" stroke-width="3" d=" M272.9200134277344,748.7100219726562 C272.9200134277344,748.7100219726562 188.22999572753906,748.7100219726562 188.22999572753906,748.7100219726562 C188.22999572753906,748.7100219726562 186.8000030517578,748.7100219726562 186.8000030517578,748.7100219726562 C185.0800018310547,737.780029296875 185.91000366210938,724.7899780273438 195.39999389648438,715.3099975585938 C208.39999389648438,702.3099975585938 184.39999389648438,660.030029296875 203.5800018310547,652.8099975585938 C227.1300048828125,643.9400024414062 231.5800018310547,682.8099975585938 236.86000061035156,696.8099975585938 C238.1999969482422,700.4000244140625 240.64999389648438,703.72998046875 243.72000122070312,707.1699829101562 C252.7100067138672,717.25 266.8699951171875,728.1900024414062 272.9200134277344,748.7100219726562 C272.9200134277344,748.7100219726562 272.9200134277344,748.7100219726562 272.9200134277344,748.7100219726562z"/></g><g opacity="1" transform="matrix(1,0,0,1,0,0)"><path stroke-linecap="butt" stroke-linejoin="round" fill-opacity="0" stroke="rgb(28,31,36)" stroke-opacity="1" stroke-width="3" d=" M228.3800048828125,748.7100219726562 C225.55999755859375,709.9299926757812 213.08999633789062,670.3300170898438 213.08999633789062,670.3300170898438"/></g><g opacity="1" transform="matrix(1,0,0,1,0,0)"><path fill="rgb(255,255,255)" fill-opacity="1" d=" M335.6600036621094,748.7100219726562 C335.6600036621094,748.7100219726562 230.60000610351562,748.7100219726562 230.60000610351562,748.7100219726562 C230.60000610351562,735.6400146484375 233.05999755859375,719.1500244140625 243.72000122070312,707.1599731445312 C247.79600524902344,702.5980224609375 252.79200744628906,698.9509887695312 258.3800048828125,696.4600219726562 C297.3800048828125,678.719970703125 278.6600036621094,623.6300048828125 314.260009765625,625.4600219726562 C342.6300048828125,626.9400024414062 344.8299865722656,660.1099853515625 327.57000732421875,690.219970703125 C313.7900085449219,714.2999877929688 330.4700012207031,724.6500244140625 335.6600036621094,748.7100219726562 C335.6600036621094,748.7100219726562 335.6600036621094,748.7100219726562 335.6600036621094,748.7100219726562z"/><path stroke-linecap="butt" stroke-linejoin="round" fill-opacity="0" stroke="rgb(28,31,36)" stroke-opacity="1" stroke-width="3" d=" M335.6600036621094,748.7100219726562 C335.6600036621094,748.7100219726562 230.60000610351562,748.7100219726562 230.60000610351562,748.7100219726562 C230.60000610351562,735.6400146484375 233.05999755859375,719.1500244140625 243.72000122070312,707.1599731445312 C247.79600524902344,702.5980224609375 252.79200744628906,698.9509887695312 258.3800048828125,696.4600219726562 C297.3800048828125,678.719970703125 278.6600036621094,623.6300048828125 314.260009765625,625.4600219726562 C342.6300048828125,626.9400024414062 344.8299865722656,660.1099853515625 327.57000732421875,690.219970703125 C313.7900085449219,714.2999877929688 330.4700012207031,724.6500244140625 335.6600036621094,748.7100219726562 C335.6600036621094,748.7100219726562 335.6600036621094,748.7100219726562 335.6600036621094,748.7100219726562z"/></g><g opacity="1" transform="matrix(1,0,0,1,0,0)"><path stroke-linecap="butt" stroke-linejoin="round" fill-opacity="0" stroke="rgb(28,31,36)" stroke-opacity="1" stroke-width="3" d=" M281.1300048828125,748.7100219726562 C287.4200134277344,697.0900268554688 313.2799987792969,643.9199829101562 313.2799987792969,643.9199829101562"/></g></g><g id="Tree" opacity="1" transform="matrix(1,0,0,1,-147,-228.12997436523438)"><g opacity="1" transform="matrix(1,0,0,1,0,0)"><path fill="rgb(255,255,255)" fill-opacity="1" d=" M790.5900268554688,748.7100219726562 C790.5900268554688,748.7100219726562 773.5900268554688,682.8099975585938 793.3099975585938,648.25 C793.3099975585938,648.25 742.3099975585938,701.6900024414062 747.4500122070312,748.7100219726562 C747.4500122070312,748.7100219726562 790.5900268554688,748.7100219726562 790.5900268554688,748.7100219726562z"/><path stroke-linecap="round" stroke-linejoin="round" fill-opacity="0" stroke="rgb(28,31,36)" stroke-opacity="1" stroke-width="3" d=" M790.5900268554688,748.7100219726562 C790.5900268554688,748.7100219726562 773.5900268554688,682.8099975585938 793.3099975585938,648.25 C793.3099975585938,648.25 742.3099975585938,701.6900024414062 747.4500122070312,748.7100219726562 C747.4500122070312,748.7100219726562 790.5900268554688,748.7100219726562 790.5900268554688,748.7100219726562z"/></g><g opacity="1" transform="matrix(1,0,0,1,0,0)"><path fill="rgb(255,255,255)" fill-opacity="1" d=" M732.1599731445312,748.7100219726562 C732.1599731445312,748.7100219726562 743.7100219726562,687.0800170898438 743.7100219726562,687.0800170898438 C743.7100219726562,687.0800170898438 745.7100219726562,740.3800048828125 762.7100219726562,748.7100219726562 C762.7100219726562,748.7100219726562 732.1599731445312,748.7100219726562 732.1599731445312,748.7100219726562z"/><path stroke-linecap="round" stroke-linejoin="round" fill-opacity="0" stroke="rgb(28,31,36)" stroke-opacity="1" stroke-width="3" d=" M732.1599731445312,748.7100219726562 C732.1599731445312,748.7100219726562 743.7100219726562,687.0800170898438 743.7100219726562,687.0800170898438 C743.7100219726562,687.0800170898438 745.7100219726562,740.3800048828125 762.7100219726562,748.7100219726562 C762.7100219726562,748.7100219726562 732.1599731445312,748.7100219726562 732.1599731445312,748.7100219726562z"/></g></g><g id="Stars" opacity="1" transform="matrix(1,0,0,1,-147,-228.1300048828125)"><g opacity="1" transform="matrix(1.0977295637130737,0,0,1.0977295637130737,-22.237380981445312,-33.28277587890625)"><path fill="rgb(255,255,255)" fill-opacity="1" d=" M229.74000549316406,314.7799987792969 C229.74000549316406,314.7799987792969 237.74000549316406,329.3599853515625 237.74000549316406,329.3599853515625 C237.9709930419922,329.7820129394531 238.3179931640625,330.1289978027344 238.74000549316406,330.3599853515625 C238.74000549316406,330.3599853515625 253.3300018310547,338.3599853515625 253.3300018310547,338.3599853515625 C254.1320037841797,338.8039855957031 254.6300048828125,339.64801025390625 254.6300048828125,340.56500244140625 C254.6300048828125,341.48199462890625 254.1320037841797,342.32598876953125 253.3300018310547,342.7699890136719 C253.3300018310547,342.7699890136719 238.74000549316406,350.7699890136719 238.74000549316406,350.7699890136719 C238.3179931640625,351.0010070800781 237.9709930419922,351.3479919433594 237.74000549316406,351.7699890136719 C237.74000549316406,351.7699890136719 229.74000549316406,366.3500061035156 229.74000549316406,366.3500061035156 C229.29600524902344,367.1520080566406 228.45199584960938,367.6499938964844 227.53500366210938,367.6499938964844 C226.6179962158203,367.6499938964844 225.7740020751953,367.1520080566406 225.3300018310547,366.3500061035156 C225.3300018310547,366.3500061035156 217.3300018310547,351.7699890136719 217.3300018310547,351.7699890136719 C217.1009979248047,351.34600830078125 216.75399780273438,350.9989929199219 216.3300018310547,350.7699890136719 C216.3300018310547,350.7699890136719 201.75,342.7699890136719 201.75,342.7699890136719 C200.947998046875,342.32598876953125 200.4499969482422,341.48199462890625 200.4499969482422,340.56500244140625 C200.4499969482422,339.64801025390625 200.947998046875,338.8039855957031 201.75,338.3599853515625 C201.75,338.3599853515625 216.3300018310547,330.3599853515625 216.3300018310547,330.3599853515625 C216.75399780273438,330.1310119628906 217.1009979248047,329.78399658203125 217.3300018310547,329.3599853515625 C217.3300018310547,329.3599853515625 225.3300018310547,314.7799987792969 225.3300018310547,314.7799987792969 C225.7689971923828,313.97198486328125 226.61500549316406,313.468994140625 227.53500366210938,313.468994140625 C228.4550018310547,313.468994140625 229.30099487304688,313.97198486328125 229.74000549316406,314.7799987792969 C229.74000549316406,314.7799987792969 229.74000549316406,314.7799987792969 229.74000549316406,314.7799987792969z"/><path stroke-linecap="butt" stroke-linejoin="round" fill-opacity="0" stroke="rgb(28,31,36)" stroke-opacity="1" stroke-width="3" d=" M229.74000549316406,314.7799987792969 C229.74000549316406,314.7799987792969 237.74000549316406,329.3599853515625 237.74000549316406,329.3599853515625 C237.9709930419922,329.7820129394531 238.3179931640625,330.1289978027344 238.74000549316406,330.3599853515625 C238.74000549316406,330.3599853515625 253.3300018310547,338.3599853515625 253.3300018310547,338.3599853515625 C254.1320037841797,338.8039855957031 254.6300048828125,339.64801025390625 254.6300048828125,340.56500244140625 C254.6300048828125,341.48199462890625 254.1320037841797,342.32598876953125 253.3300018310547,342.7699890136719 C253.3300018310547,342.7699890136719 238.74000549316406,350.7699890136719 238.74000549316406,350.7699890136719 C238.3179931640625,351.0010070800781 237.9709930419922,351.3479919433594 237.74000549316406,351.7699890136719 C237.74000549316406,351.7699890136719 229.74000549316406,366.3500061035156 229.74000549316406,366.3500061035156 C229.29600524902344,367.1520080566406 228.45199584960938,367.6499938964844 227.53500366210938,367.6499938964844 C226.6179962158203,367.6499938964844 225.7740020751953,367.1520080566406 225.3300018310547,366.3500061035156 C225.3300018310547,366.3500061035156 217.3300018310547,351.7699890136719 217.3300018310547,351.7699890136719 C217.1009979248047,351.34600830078125 216.75399780273438,350.9989929199219 216.3300018310547,350.7699890136719 C216.3300018310547,350.7699890136719 201.75,342.7699890136719 201.75,342.7699890136719 C200.947998046875,342.32598876953125 200.4499969482422,341.48199462890625 200.4499969482422,340.56500244140625 C200.4499969482422,339.64801025390625 200.947998046875,338.8039855957031 201.75,338.3599853515625 C201.75,338.3599853515625 216.3300018310547,330.3599853515625 216.3300018310547,330.3599853515625 C216.75399780273438,330.1310119628906 217.1009979248047,329.78399658203125 217.3300018310547,329.3599853515625 C217.3300018310547,329.3599853515625 225.3300018310547,314.7799987792969 225.3300018310547,314.7799987792969 C225.7689971923828,313.97198486328125 226.61500549316406,313.468994140625 227.53500366210938,313.468994140625 C228.4550018310547,313.468994140625 229.30099487304688,313.97198486328125 229.74000549316406,314.7799987792969 C229.74000549316406,314.7799987792969 229.74000549316406,314.7799987792969 229.74000549316406,314.7799987792969z"/></g><g opacity="1" transform="matrix(0.8450971245765686,0,0,0.8450971245765686,31.751983642578125,60.292083740234375)"><path fill="rgb(29,31,37)" fill-opacity="1" d=" M205.89999389648438,378.42999267578125 C205.89999389648438,378.42999267578125 209.22999572753906,384.5299987792969 209.22999572753906,384.5299987792969 C209.3260040283203,384.70599365234375 209.4720001220703,384.8479919433594 209.64999389648438,384.94000244140625 C209.64999389648438,384.94000244140625 215.74000549316406,388.2699890136719 215.74000549316406,388.2699890136719 C216.0749969482422,388.4570007324219 216.28199768066406,388.8110046386719 216.28199768066406,389.19500732421875 C216.28199768066406,389.5790100097656 216.0749969482422,389.9330139160156 215.74000549316406,390.1199951171875 C215.74000549316406,390.1199951171875 209.64999389648438,393.45001220703125 209.64999389648438,393.45001220703125 C209.4709930419922,393.54400634765625 209.32400512695312,393.6910095214844 209.22999572753906,393.8699951171875 C209.22999572753906,393.8699951171875 205.89999389648438,400 205.89999389648438,400 C205.7429962158203,400.3689880371094 205.38099670410156,400.6080017089844 204.97999572753906,400.6080017089844 C204.57899475097656,400.6080017089844 204.2169952392578,400.3689880371094 204.05999755859375,400 C204.05999755859375,400 200.72999572753906,393.9100036621094 200.72999572753906,393.9100036621094 C200.63299560546875,393.7330017089844 200.48699951171875,393.5870056152344 200.30999755859375,393.489990234375 C200.30999755859375,393.489990234375 194.22000122070312,390.1600036621094 194.22000122070312,390.1600036621094 C193.88499450683594,389.9729919433594 193.67799377441406,389.6189880371094 193.67799377441406,389.2349853515625 C193.67799377441406,388.85101318359375 193.88499450683594,388.49700927734375 194.22000122070312,388.30999755859375 C194.22000122070312,388.30999755859375 200.30999755859375,384.9800109863281 200.30999755859375,384.9800109863281 C200.48500061035156,384.8840026855469 200.6300048828125,384.74200439453125 200.72999572753906,384.57000732421875 C200.72999572753906,384.57000732421875 204.05999755859375,378.4700012207031 204.05999755859375,378.4700012207031 C204.20899963378906,378.0979919433594 204.5659942626953,377.8500061035156 204.9669952392578,377.8420104980469 C205.3679962158203,377.8330078125 205.73500061035156,378.0639953613281 205.89999389648438,378.42999267578125 C205.89999389648438,378.42999267578125 205.89999389648438,378.42999267578125 205.89999389648438,378.42999267578125z"/></g></g><g id="Screen-1" opacity="1" transform="matrix(0.9919884204864502,0,0,0.9919884204864502,-141.00592041015625,-224.67478942871094)"><g opacity="1" transform="matrix(1,0,0,1,617.0499877929688,272.3599853515625)"><path fill="rgb(255,255,255)" fill-opacity="1" d=" M262.25,22.239999771118164 C262.25,22.239999771118164 262.25,295.5899963378906 262.25,295.5899963378906 C262.25,307.8642578125 252.2842559814453,317.8299865722656 240.00999450683594,317.8299865722656 C240.00999450683594,317.8299865722656 22.239999771118164,317.8299865722656 22.239999771118164,317.8299865722656 C9.965744018554688,317.8299865722656 0,307.8642578125 0,295.5899963378906 C0,295.5899963378906 0,22.239999771118164 0,22.239999771118164 C0,9.965744018554688 9.965744018554688,0 22.239999771118164,0 C22.239999771118164,0 240.00999450683594,0 240.00999450683594,0 C252.2842559814453,0 262.25,9.965744018554688 262.25,22.239999771118164z"/><path stroke-linecap="butt" stroke-linejoin="round" fill-opacity="0" stroke="rgb(28,31,36)" stroke-opacity="1" stroke-width="3" d=" M262.25,22.239999771118164 C262.25,22.239999771118164 262.25,295.5899963378906 262.25,295.5899963378906 C262.25,307.8642578125 252.2842559814453,317.8299865722656 240.00999450683594,317.8299865722656 C240.00999450683594,317.8299865722656 22.239999771118164,317.8299865722656 22.239999771118164,317.8299865722656 C9.965744018554688,317.8299865722656 0,307.8642578125 0,295.5899963378906 C0,295.5899963378906 0,22.239999771118164 0,22.239999771118164 C0,9.965744018554688 9.965744018554688,0 22.239999771118164,0 C22.239999771118164,0 240.00999450683594,0 240.00999450683594,0 C252.2842559814453,0 262.25,9.965744018554688 262.25,22.239999771118164z"/></g><g opacity="1" transform="matrix(1,0,0,1,658.489990234375,323.32000732421875)"><path fill="rgb(255,255,255)" fill-opacity="1" d=" M179.3699951171875,8.520000457763672 C179.3699951171875,8.520000457763672 179.3699951171875,86.43000030517578 179.3699951171875,86.43000030517578 C179.3699951171875,91.13218688964844 175.55218505859375,94.94999694824219 170.84999084472656,94.94999694824219 C170.84999084472656,94.94999694824219 8.520000457763672,94.94999694824219 8.520000457763672,94.94999694824219 C3.817811965942383,94.94999694824219 0,91.13218688964844 0,86.43000030517578 C0,86.43000030517578 0,8.520000457763672 0,8.520000457763672 C0,3.817811965942383 3.817811965942383,0 8.520000457763672,0 C8.520000457763672,0 170.84999084472656,0 170.84999084472656,0 C175.55218505859375,0 179.3699951171875,3.817811965942383 179.3699951171875,8.520000457763672z"/><path stroke-linecap="butt" stroke-linejoin="round" fill-opacity="0" stroke="rgb(28,31,36)" stroke-opacity="1" stroke-width="3" d=" M179.3699951171875,8.520000457763672 C179.3699951171875,8.520000457763672 179.3699951171875,86.43000030517578 179.3699951171875,86.43000030517578 C179.3699951171875,91.13218688964844 175.55218505859375,94.94999694824219 170.84999084472656,94.94999694824219 C170.84999084472656,94.94999694824219 8.520000457763672,94.94999694824219 8.520000457763672,94.94999694824219 C3.817811965942383,94.94999694824219 0,91.13218688964844 0,86.43000030517578 C0,86.43000030517578 0,8.520000457763672 0,8.520000457763672 C0,3.817811965942383 3.817811965942383,0 8.520000457763672,0 C8.520000457763672,0 170.84999084472656,0 170.84999084472656,0 C175.55218505859375,0 179.3699951171875,3.817811965942383 179.3699951171875,8.520000457763672z"/></g><g opacity="1" transform="matrix(1,0,0,1,0,0)"><path fill="rgb(255,255,255)" fill-opacity="1" d=" M833.7899780273438,325.4700012207031 C833.7899780273438,325.4700012207031 662.5599975585938,416.1199951171875 662.5599975585938,416.1199951171875"/><path stroke-linecap="butt" stroke-linejoin="round" fill-opacity="0" stroke="rgb(28,31,36)" stroke-opacity="1" stroke-width="3" d=" M833.7899780273438,325.4700012207031 C833.7899780273438,325.4700012207031 662.5599975585938,416.1199951171875 662.5599975585938,416.1199951171875"/></g><g opacity="1" transform="matrix(1,0,0,1,0,0)"><path fill="rgb(255,255,255)" fill-opacity="1" d=" M662.5599975585938,325.4700012207031 C662.5599975585938,325.4700012207031 833.7899780273438,416.1199951171875 833.7899780273438,416.1199951171875"/><path stroke-linecap="butt" stroke-linejoin="round" fill-opacity="0" stroke="rgb(28,31,36)" stroke-opacity="1" stroke-width="3" d=" M662.5599975585938,325.4700012207031 C662.5599975585938,325.4700012207031 833.7899780273438,416.1199951171875 833.7899780273438,416.1199951171875"/></g></g><g id="Screen-2" opacity="1" transform="matrix(1.100000023841858,0,0,1.100000023841858,-226.33099365234375,-276.69952392578125)"><g opacity="1" transform="matrix(1,0,0,1,651.3099975585938,444.92999267578125)"><path fill="rgb(72,103,255)" fill-opacity="1" d=" M284,13.90999984741211 C284,13.90999984741211 284,67.6199951171875 284,67.6199951171875 C284,75.29692840576172 277.7669372558594,81.52999877929688 270.0899963378906,81.52999877929688 C270.0899963378906,81.52999877929688 13.90999984741211,81.52999877929688 13.90999984741211,81.52999877929688 C6.2330708503723145,81.52999877929688 0,75.29692840576172 0,67.6199951171875 C0,67.6199951171875 0,13.90999984741211 0,13.90999984741211 C0,6.2330708503723145 6.2330708503723145,0 13.90999984741211,0 C13.90999984741211,0 270.0899963378906,0 270.0899963378906,0 C277.7669372558594,0 284,6.2330708503723145 284,13.90999984741211z"/><path stroke-linecap="butt" stroke-linejoin="round" fill-opacity="0" stroke="rgb(28,31,36)" stroke-opacity="1" stroke-width="3" d=" M284,13.90999984741211 C284,13.90999984741211 284,67.6199951171875 284,67.6199951171875 C284,75.29692840576172 277.7669372558594,81.52999877929688 270.0899963378906,81.52999877929688 C270.0899963378906,81.52999877929688 13.90999984741211,81.52999877929688 13.90999984741211,81.52999877929688 C6.2330708503723145,81.52999877929688 0,75.29692840576172 0,67.6199951171875 C0,67.6199951171875 0,13.90999984741211 0,13.90999984741211 C0,6.2330708503723145 6.2330708503723145,0 13.90999984741211,0 C13.90999984741211,0 270.0899963378906,0 270.0899963378906,0 C277.7669372558594,0 284,6.2330708503723145 284,13.90999984741211z"/></g><g opacity="1" transform="matrix(1,0,0,1,677.8099975585938,478.8999938964844)"><path fill="rgb(255,255,255)" fill-opacity="1" d=" M231,5.579999923706055 C231,5.579999923706055 231,8.010000228881836 231,8.010000228881836 C231,11.08960247039795 228.49960327148438,13.59000015258789 225.4199981689453,13.59000015258789 C225.4199981689453,13.59000015258789 5.579999923706055,13.59000015258789 5.579999923706055,13.59000015258789 C2.5003979206085205,13.59000015258789 0,11.08960247039795 0,8.010000228881836 C0,8.010000228881836 0,5.579999923706055 0,5.579999923706055 C0,2.5003979206085205 2.5003979206085205,0 5.579999923706055,0 C5.579999923706055,0 225.4199981689453,0 225.4199981689453,0 C228.49960327148438,0 231,2.5003979206085205 231,5.579999923706055z"/><path stroke-linecap="butt" stroke-linejoin="round" fill-opacity="0" stroke="rgb(28,31,36)" stroke-opacity="1" stroke-width="3" d=" M231,5.579999923706055 C231,5.579999923706055 231,8.010000228881836 231,8.010000228881836 C231,11.08960247039795 228.49960327148438,13.59000015258789 225.4199981689453,13.59000015258789 C225.4199981689453,13.59000015258789 5.579999923706055,13.59000015258789 5.579999923706055,13.59000015258789 C2.5003979206085205,13.59000015258789 0,11.08960247039795 0,8.010000228881836 C0,8.010000228881836 0,5.579999923706055 0,5.579999923706055 C0,2.5003979206085205 2.5003979206085205,0 5.579999923706055,0 C5.579999923706055,0 225.4199981689453,0 225.4199981689453,0 C228.49960327148438,0 231,2.5003979206085205 231,5.579999923706055z"/></g></g></g></g></svg>